<svg width="2048" height="2048" version="1.1" xmlns="http://www.w3.org/2000/svg" desc="Created with imagetracer.js version 0.2.1" ><path fill="rgb(225,225,225)" stroke="rgb(225,225,225)" stroke-width="1" opacity="0.8823529411764706" d="M 1116 0 L 1150.5 0 L 1151 0.5 L 1151 9 L 1126 9 L 1126 18 L 1146 18 L 1146 28 L 1126 28 L 1126 37 L 1151 37 L 1151 46 L 1116 46 L 1116 0 Z " /><path fill="rgb(225,225,225)" stroke="rgb(225,225,225)" stroke-width="1" opacity="0.8823529411764706" d="M 1156 0 L 1165.5 0 L 1166 0.5 L 1166 37 L 1189 37 L 1189 46 L 1156 46 L 1156 0 Z " /><path fill="rgb(225,225,225)" stroke="rgb(225,225,225)" stroke-width="1" opacity="0.8823529411764706" d="M 1193 0 L 1227.5 0 L 1228 0.5 L 1228 9 L 1203 9 L 1203 18 L 1223 18 L 1223 28 L 1203 28 L 1203 37 L 1228 37 L 1228 46 L 1193 46 L 1193 0 Z " /><path fill="rgb(225,225,225)" stroke="rgb(225,225,225)" stroke-width="1" opacity="0.8823529411764706" d="M 1244.5 0 L 1260.5 0 Q 1267.9 2.6 1272 8.5 L 1273 10.5 L 1264.5 16 Q 1261.6 8.4 1250.5 9 L 1243 13.5 L 1240 19.5 L 1240 26.5 Q 1241.5 33 1246.5 36 L 1256.5 37 L 1263 31.5 L 1264 29.5 L 1251 29 L 1251 20 L 1275 20 L 1275 46 L 1266 46 L 1265.5 42 Q 1260.6 48.6 1247.5 47 Q 1237.6 44.9 1233 37.5 L 1230 31.5 L 1229 20.5 L 1232 10.5 L 1237.5 4 L 1244.5 0 Z " /><path fill="rgb(225,225,225)" stroke="rgb(225,225,225)" stroke-width="1" opacity="0.8823529411764706" d="M 1294.5 0 L 1311.5 0 L 1322 7.5 L 1326 14.5 L 1331 30.5 L 1336.5 36 L 1345.5 37 L 1353 31.5 L 1356 22.5 Q 1354.8 14.7 1349.5 11 Q 1346.5 8 1339.5 9 L 1329.5 15 L 1325 8.5 L 1325 5 L 1334.5 0 L 1350.5 0 Q 1357.9 2.6 1362 8.5 Q 1367.7 14.8 1366 28.5 Q 1363.9 38.4 1356.5 43 L 1347.5 47 L 1337.5 47 Q 1326.8 44.7 1322 36.5 L 1319 30.5 L 1316 18.5 L 1311.5 12 Q 1308.3 7.7 1299.5 9 L 1294 12 L 1290 19.5 L 1290 26.5 L 1294 34 L 1299.5 37 L 1306.5 37 L 1315.5 31 L 1321 39.5 Q 1314.8 48.3 1298.5 47 Q 1288.8 45.2 1284 38.5 Q 1278.5 32 1279 19.5 Q 1280.8 9.3 1287.5 4 L 1294.5 0 Z " /><path fill="rgb(225,225,225)" stroke="rgb(225,225,225)" stroke-width="1" opacity="0.8823529411764706" d="M 1376 1 L 1386.5 1 L 1387 2.5 L 1411 45.5 L 1400.5 46 L 1377 5.5 L 1376 1 Z " /><path fill="rgb(225,225,225)" stroke="rgb(225,225,225)" stroke-width="1" opacity="0.8823529411764706" d="M 1390 1 L 1400.5 1 L 1401 2.5 L 1425 45.5 L 1414.5 46 L 1391 5.5 L 1390 1 Z " /><path fill="rgb(225,225,225)" stroke="rgb(225,225,225)" stroke-width="1" opacity="0.8823529411764706" d="M 1404 1 L 1414.5 1 L 1415 2.5 L 1439 45.5 L 1428.5 46 L 1404 3.5 L 1404 1 Z " /><path fill="rgb(225,225,225)" stroke="rgb(225,225,225)" stroke-width="1" opacity="0.8823529411764706" d="M 1418 1 L 1428.5 1 L 1429 2.5 L 1453 45.5 L 1442.5 46 L 1418 3.5 L 1418 1 Z " /><path fill="rgb(225,225,225)" stroke="rgb(225,225,225)" stroke-width="1" opacity="0.8823529411764706" d="M 1374 7 Q 1376.7 5.9 1376 8.5 L 1397 45.5 L 1385 46 L 1374 25.5 L 1374 7 Z " /><path fill="rgb(225,225,225)" stroke="rgb(225,225,225)" stroke-width="1" opacity="0.8823529411764706" d="M 1374 32 Q 1376.7 30.9 1376 33.5 L 1383 45.5 L 1374 46 L 1374 32 Z " /><path fill="rgb(225,225,225)" stroke="rgb(225,225,225)" stroke-width="1" opacity="0.8823529411764706" d="M 18.5 723 Q 23.3 723.3 25 726.5 L 24 733 L 22 733.5 L 22 1564.5 L 89 1629.5 L 89 1993.5 L 48.5 2034 L 22.5 2034 Q 21.3 2038.3 14.5 2037 Q 10.8 2035.8 12 2029.5 Q 13.3 2025.8 19.5 2027 L 22.5 2030 L 45.5 2030 L 85 1990.5 L 85 1632.5 L 18 1567.5 L 18 734.5 L 16.5 733 Q 14.3 733.8 15 731.5 L 14 726.5 L 18.5 723 Z " /><path fill="rgb(225,225,225)" stroke="rgb(225,225,225)" stroke-width="1" opacity="0.8823529411764706" d="M 39 743 Q 49.5 741.5 53 748.5 L 57 757 L 60.5 758 Q 63.5 757.5 63 753.5 L 62 751 L 58 749.5 L 58 743 L 61.5 743 L 68 747.5 Q 70.5 751 69 758.5 L 63.5 765 Q 53 767 51 760.5 L 46.5 752 L 46 765 L 39.5 765 L 39 764.5 L 39 743 Z " /><path fill="rgb(225,225,225)" stroke="rgb(225,225,225)" stroke-width="1" opacity="0.8823529411764706" d="M 46.5 769 L 49 769 L 49 777 L 45 779.5 Q 44.5 783.5 47.5 784 Q 53 785 54 781.5 L 52 776.5 L 52 769 L 57.5 770 L 66.5 770 L 69 771 L 69 790.5 L 68.5 791 L 63 791 L 63 777 L 58.5 777 L 59 778.5 L 60 783.5 L 56.5 790 Q 53.5 793 46.5 792 L 40 787.5 L 39 776.5 L 42.5 771 L 46.5 769 Z " /><path fill="rgb(225,225,225)" stroke="rgb(225,225,225)" stroke-width="1" opacity="0.8823529411764706" d="M 49.5 796 Q 63.5 794 68 801.5 Q 70.5 805 69 812.5 L 63.5 819 L 60 819 L 60 812.5 L 63 811 Q 64.3 806.4 61.5 805 L 57.5 804 L 58 805.5 L 59 812.5 L 55.5 818 L 48.5 820 L 41 817 Q 37.9 813.4 39 804.5 L 44.5 798 L 49.5 796 Z M 49 804 L 45 807 Q 44 811 48 812 Q 52 813 53 810 L 52 805 L 49 804 Z " /><path fill="rgb(225,225,225)" stroke="rgb(225,225,225)" stroke-width="1" opacity="0.8823529411764706" d="M 39 823 L 51.5 829 L 61.5 823 L 62 830.5 L 56 834.5 L 62 838.5 L 62 845.5 L 60.5 846 L 50.5 840 L 39 846 L 39 838.5 L 40.5 838 L 46 834.5 L 39 830.5 L 39 823 Z " /><path fill="rgb(225,225,225)" stroke="rgb(225,225,225)" stroke-width="1" opacity="0.8823529411764706" d="M 39 850 Q 49.6 848.7 53 855.5 L 57 864 L 60.5 865 Q 63.5 864.5 63 860.5 L 62 858 L 58 857 L 58 850 L 62.5 850 L 68 854.5 Q 70.5 858 69 865.5 L 63.5 872 Q 53.4 873.6 51 867.5 L 46.5 859 L 46 872 L 39.5 872 L 39 871.5 L 39 850 Z " /><path fill="rgb(225,225,225)" stroke="rgb(225,225,225)" stroke-width="1" opacity="0.8823529411764706" d="M 46.5 876 L 49 876 L 49 884 L 45 886.5 Q 44.5 890.5 47.5 891 Q 53 892 54 888.5 L 52 883.5 L 52 876 L 57.5 877 L 66.5 877 L 69 878 L 69 897.5 L 68.5 898 L 63 898 L 63 884 L 58.5 884 L 59 885.5 L 60 890.5 L 56.5 897 Q 53.5 900 46.5 899 L 41 895.5 Q 37.7 891.8 39 883.5 L 43.5 877 L 46.5 876 Z " /><path fill="rgb(225,225,225)" stroke="rgb(225,225,225)" stroke-width="1" opacity="0.8823529411764706" d="M 49.5 903 Q 63.5 901 68 908.5 Q 70.5 912 69 919.5 L 63.5 926 L 60 926 L 60 919.5 L 63 918 Q 64.3 912.5 60.5 911 L 57 911.5 Q 60 913.5 59 919.5 L 55.5 925 L 48.5 927 L 41 924 Q 37.9 920.4 39 911.5 L 44.5 905 L 49.5 903 Z M 49 911 L 45 914 Q 44 918 48 919 Q 52 920 53 917 L 52 912 L 49 911 Z " /><path fill="rgb(225,225,225)" stroke="rgb(225,225,225)" stroke-width="1" opacity="0.8823529411764706" d="M 39 930 L 54.5 938 L 69 930 L 69 937.5 L 67.5 938 L 59 943.5 L 69 949.5 L 68.5 957 L 53.5 949 L 39.5 957 L 39 949.5 L 49 943.5 L 39 938 L 39 930 Z " /><path fill="rgb(225,225,225)" stroke="rgb(225,225,225)" stroke-width="1" opacity="0.8823529411764706" d="M 39 960 Q 49 959.3 53 965.5 L 58.5 975 Q 62.5 975.5 63 972.5 Q 63.5 968.5 60.5 968 L 58 968 L 58 960 Q 64.2 959.2 67 963.5 Q 70.8 966.7 69 975.5 L 65.5 981 Q 62.3 983.3 55.5 982 L 51 977.5 L 46.5 969 L 46 982 L 39.5 982 L 39 981.5 L 39 960 Z " /><path fill="rgb(225,225,225)" stroke="rgb(225,225,225)" stroke-width="1" opacity="0.8823529411764706" d="M 46.5 986 L 49 986 L 49 994 L 45 996.5 Q 44.5 1000.5 47.5 1001 L 49.5 1002 L 54 998.5 L 52 993.5 L 52 986 L 69 988 L 69 1007.5 L 68.5 1008 L 63 1008 L 63 995.5 L 61.5 994 L 58 994.5 L 60 1001.5 L 55.5 1008 L 46.5 1009 L 40 1004.5 Q 37.5 1001 39 993.5 L 42.5 988 L 46.5 986 Z " /><path fill="rgb(225,225,225)" stroke="rgb(225,225,225)" stroke-width="1" opacity="0.8823529411764706" d="M 50.5 1013 Q 62.4 1011.6 67 1017.5 Q 70.5 1021.5 69 1030.5 L 65.5 1035 L 60 1036 L 60 1029.5 L 61.5 1029 Q 64 1028 63 1023.5 L 57.5 1021 L 58 1022.5 L 59 1030.5 L 54.5 1036 L 46.5 1037 L 41 1033.5 Q 37.7 1029.8 39 1021.5 L 44.5 1015 L 50.5 1013 Z M 48 1022 Q 44 1023 45 1028 Q 46 1030 51 1029 Q 53 1028 53 1025 Q 52 1021 48 1022 Z " /><path fill="rgb(225,225,225)" stroke="rgb(225,225,225)" stroke-width="1" opacity="0.8823529411764706" d="M 39 1041 L 62 1041 L 62 1048.5 L 62 1050.5 L 63 1057.5 L 59 1061.5 L 62 1064.5 L 63 1071.5 L 58.5 1076 L 39 1077 L 39 1069 L 54.5 1069 Q 56.8 1068.3 56 1064.5 L 54.5 1063 L 39 1063 L 39 1055 L 54.5 1055 Q 56.8 1054.3 56 1050.5 L 54.5 1049 L 39 1049 L 39 1041 Z " /><path fill="rgb(225,225,225)" stroke="rgb(225,225,225)" stroke-width="1" opacity="0.8823529411764706" d="M 39 1081 L 62 1081 L 62 1088.5 L 62 1090.5 L 63 1097.5 L 60.5 1101 L 59 1101.5 Q 64.1 1103.4 63 1111.5 L 60.5 1115 L 55.5 1117 L 39 1117 L 39 1109 L 54.5 1109 Q 56.8 1108.3 56 1104.5 L 54.5 1103 L 39 1103 L 39 1095 L 54.5 1095 Q 57 1093.8 56 1090 L 53.5 1089 L 39 1089 L 39 1081 Z " /><path fill="rgb(225,225,225)" stroke="rgb(225,225,225)" stroke-width="1" opacity="0.8823529411764706" d="M 57.5 1119 L 58 1123.5 L 56 1126.5 Q 57.5 1129.5 59 1126.5 Q 57.8 1121.9 63 1124 L 63 1120 L 66.5 1120 Q 70.8 1121.8 69 1129.5 Q 68 1133 62.5 1132 L 60.5 1131 L 55.5 1132 L 53 1131 L 52 1124.5 L 54 1120 L 57.5 1119 Z M 63 1124 Q 62 1128 65 1127 Q 66 1123 63 1124 Z " /><path fill="rgb(225,225,225)" stroke="rgb(225,225,225)" stroke-width="1" opacity="0.8823529411764706" d="M 39 1155 L 77.5 1155 L 78 1160 L 39.5 1160 L 39 1155 Z " /><path fill="rgb(225,225,225)" stroke="rgb(225,225,225)" stroke-width="1" opacity="0.8823529411764706" d="M 40 1183 L 68.5 1183 L 69 1183.5 L 69 1190 L 58 1190 L 58 1201 L 69 1201 L 69 1208 L 40.5 1208 L 40 1207.5 L 40 1201 L 51 1201 L 51 1190 L 40 1190 L 40 1183 Z " /><path fill="rgb(225,225,225)" stroke="rgb(225,225,225)" stroke-width="1" opacity="0.8823529411764706" d="M 46.5 1213 Q 58.8 1210.8 62 1217.5 Q 64.7 1221.3 63 1229.5 L 61 1233 L 54.5 1236 L 47.5 1236 L 40 1230.5 Q 37.7 1227.3 39 1220.5 L 42.5 1215 L 46.5 1213 Z M 50 1220 L 48 1221 L 45 1225 L 46 1227 L 51 1229 L 55 1228 Q 58 1228 57 1224 Q 56 1219 50 1220 Z " /><path fill="rgb(225,225,225)" stroke="rgb(225,225,225)" stroke-width="1" opacity="0.8823529411764706" d="M 57 1238 L 63 1238 Q 60.9 1244.4 68 1242 L 68 1249 Q 60.9 1246.6 63 1253 L 57 1253 L 57 1249 L 47.5 1249 L 46 1253 L 40 1253 L 40 1245.5 L 43.5 1242 L 57 1242 L 57 1238 Z " /><path fill="rgb(225,225,225)" stroke="rgb(225,225,225)" stroke-width="1" opacity="0.8823529411764706" d="M 47.5 1272 L 49 1272.5 L 49 1280 L 46 1281.5 L 45 1285.5 L 47.5 1289 Q 51.3 1290.3 50 1286.5 L 52 1276.5 L 55.5 1273 L 60.5 1272 L 64.5 1273 L 68 1276.5 Q 70.7 1279.8 70 1286.5 Q 68.8 1292.3 64.5 1295 L 60 1296 L 60 1289.5 L 64 1284.5 L 61.5 1280 L 59 1281.5 L 57 1292.5 L 53.5 1296 L 46.5 1297 L 41 1293.5 Q 38 1289.5 39 1281.5 L 43.5 1274 L 47.5 1272 Z " /><path fill="rgb(225,225,225)" stroke="rgb(225,225,225)" stroke-width="1" opacity="0.8823529411764706" d="M 45.5 1301 L 63 1301 L 63 1309 L 47.5 1309 L 46 1310.5 Q 45.3 1314.3 47.5 1315 L 49.5 1316 L 63 1316 L 63 1322.5 L 62.5 1323 L 40 1323 L 40 1316.5 L 41 1315.5 Q 37.8 1313.2 39 1306.5 L 42.5 1302 L 45.5 1301 Z " /><path fill="rgb(225,225,225)" stroke="rgb(225,225,225)" stroke-width="1" opacity="0.8823529411764706" d="M 40 1328 L 62.5 1328 L 63 1328.5 L 63 1335 L 61 1335.5 Q 63.8 1337.5 63 1342 L 56.5 1342 L 56 1340.5 L 52.5 1335 L 40 1335 L 40 1328 Z " /><path fill="rgb(225,225,225)" stroke="rgb(225,225,225)" stroke-width="1" opacity="0.8823529411764706" d="M 57 1346 L 63 1346 Q 61.3 1350.5 66.5 1349 L 71 1352.5 L 71 1360 L 65 1360 Q 66.3 1355.9 63 1357 L 63 1360 L 57 1360 L 56.5 1356 L 40 1356 L 40 1349 L 56.5 1349 L 57 1346 Z " /><path fill="rgb(225,225,225)" stroke="rgb(225,225,225)" stroke-width="1" opacity="0.8823529411764706" d="M 44.5 1363 Q 51.4 1362.1 53 1366.5 L 54 1377 Q 58.9 1378.8 57 1372.5 Q 53.3 1370.8 55 1363.5 L 56.5 1364 Q 61.5 1363.5 62 1367.5 Q 64.5 1371 63 1378.5 L 58.5 1384 L 56.5 1385 L 41.5 1385 L 40.5 1386 L 40 1378 L 42 1377.5 Q 37.9 1375.6 39 1368.5 L 42.5 1364 L 44.5 1363 Z M 47 1371 L 45 1373 Q 44 1376 48 1377 Q 51 1378 49 1373 L 47 1371 Z " /><path fill="rgb(225,225,225)" stroke="rgb(225,225,225)" stroke-width="1" opacity="0.8823529411764706" d="M 48.5 1389 Q 58.5 1388.5 62 1394.5 Q 64.5 1398 63 1405.5 L 58.5 1411 L 53 1412 L 53 1405.5 L 54.5 1405 Q 57.8 1404.3 57 1399.5 Q 55.5 1395.5 48.5 1397 L 46 1398 L 45 1400.5 L 46 1404 L 49 1405.5 L 49 1412 L 45.5 1412 L 40 1407.5 Q 37.7 1404.3 39 1397.5 L 43.5 1391 L 48.5 1389 Z " /><path fill="rgb(225,225,225)" stroke="rgb(225,225,225)" stroke-width="1" opacity="0.8823529411764706" d="M 48.5 1416 Q 58.5 1415.5 62 1421.5 Q 64.3 1424.7 63 1431.5 L 59.5 1437 L 56.5 1439 L 49 1440 L 48.5 1424 L 46 1425 L 45 1428.5 L 46 1431 L 48 1431.5 L 48 1439 Q 41.6 1440 40 1434.5 L 39 1425.5 L 43.5 1418 L 48.5 1416 Z M 55 1424 L 54 1431 L 56 1431 Q 58 1430 57 1425 L 55 1424 Z " /><path fill="rgb(225,225,225)" stroke="rgb(225,225,225)" stroke-width="1" opacity="0.8823529411764706" d="M 43.5 1463 Q 51.2 1461.8 54.5 1465 L 106.5 1496 L 115 1502.5 L 116 1508.5 L 111.5 1514 L 58.5 1546 L 50.5 1550 L 43.5 1550 L 41 1549 L 39 1544.5 L 39 1468.5 L 43.5 1463 Z M 47 1467 L 44 1468 L 43 1471 L 43 1544 L 46 1546 L 49 1546 L 55 1543 L 110 1510 Q 112 1509 111 1506 Q 81 1484 47 1467 Z " /><path fill="rgb(225,225,225)" stroke="rgb(225,225,225)" stroke-width="1" opacity="0.8823529411764706" d="M 53.5 1482 L 57.5 1482 L 66 1487 L 66 1525.5 L 64.5 1527 L 56.5 1532 L 53 1532 L 52 1529.5 L 52 1483.5 L 53.5 1482 Z M 57 1488 L 58 1526 L 60 1525 L 62 1523 L 62 1491 L 57 1488 Z " /><path fill="rgb(225,225,225)" stroke="rgb(225,225,225)" stroke-width="1" opacity="0.8823529411764706" d="M 67 1493 Q 72.1 1492 73.5 1496 Q 75 1492.5 81.5 1494 L 86 1497.5 L 84.5 1500 L 77.5 1498 Q 76.5 1501 71.5 1500 L 67 1496.5 L 67 1493 Z " /><path fill="rgb(225,225,225)" stroke="rgb(225,225,225)" stroke-width="1" opacity="0.8823529411764706" d="M 67 1502 Q 70.8 1501 72 1503.5 Q 71.3 1505.8 73.5 1505 Q 75 1501.5 81.5 1503 L 86 1506.5 Q 87.3 1510.7 82.5 1509 L 77.5 1507 Q 76.3 1510.3 70.5 1509 Q 66 1507.6 67 1502 Z " /><path fill="rgb(225,225,225)" stroke="rgb(225,225,225)" stroke-width="1" opacity="0.8823529411764706" d="M 67 1511 L 69.5 1511 L 73.5 1514 Q 74.8 1510.8 80.5 1512 L 86 1515.5 Q 87.1 1518.8 84.5 1518 L 82.5 1518 L 78.5 1516 Q 76.5 1519 70.5 1518 Q 66 1516.6 67 1511 Z " /><path fill="rgb(225,225,225)" stroke="rgb(225,225,225)" stroke-width="1" opacity="0.8823529411764706" d="M 16.5 1593 L 19.5 1593 L 27 1600.5 L 21.5 1607 L 15.5 1612 L 15 1594.5 L 16.5 1593 Z " /><path fill="rgb(225,225,225)" stroke="rgb(225,225,225)" stroke-width="1" opacity="0.8823529411764706" d="M 2001.5 1594 L 2028.5 1594 Q 2035 1595.5 2038 1600.5 L 2039 1602.5 L 2039 2025.5 L 2034.5 2032 L 2030.5 2034 L 1999.5 2034 L 1993 2029.5 L 1991 2025.5 L 1991 1602.5 L 1996.5 1596 L 2001.5 1594 Z M 2001 1599 L 1999 1600 L 1995 1605 L 1995 2024 L 1996 2026 L 2002 2030 L 2029 2030 L 2031 2029 L 2035 2024 L 2035 1605 L 2034 1603 L 2030 1599 L 2001 1599 Z " /><path fill="rgb(225,225,225)" stroke="rgb(225,225,225)" stroke-width="1" opacity="0.8823529411764706" d="M 37.5 1611 L 44 1617.5 L 32.5 1629 L 16.5 1644 L 15 1644 L 15 1631.5 L 17.5 1629 L 37.5 1611 Z " /><path fill="rgb(225,225,225)" stroke="rgb(225,225,225)" stroke-width="1" opacity="0.8823529411764706" d="M 2029.5 1618 L 2032 1618.5 L 2032 1986.5 L 1998 2011 L 1998 1642.5 L 2001.5 1639 L 2029.5 1618 Z " /><path fill="rgb(225,225,225)" stroke="rgb(225,225,225)" stroke-width="1" opacity="0.8823529411764706" d="M 53.5 1628 L 60 1633.5 Q 61.1 1636.8 58.5 1636 L 15.5 1677 L 15 1664.5 L 53.5 1628 Z " /><path fill="rgb(225,225,225)" stroke="rgb(225,225,225)" stroke-width="1" opacity="0.8823529411764706" d="M 62.5 1652 L 64 1652.5 L 64 1663.5 L 15.5 1709 L 15 1696.5 L 62.5 1652 Z " /><path fill="rgb(225,225,225)" stroke="rgb(225,225,225)" stroke-width="1" opacity="0.8823529411764706" d="M 62.5 1684 L 64 1684.5 L 64 1697 L 62.5 1697 L 15.5 1742 L 15 1728 L 16.5 1728 L 62.5 1684 Z " /><path fill="rgb(225,225,225)" stroke="rgb(225,225,225)" stroke-width="1" opacity="0.8823529411764706" d="M 62.5 1717 L 64 1717.5 L 64 1728.5 L 15.5 1774 L 15 1761.5 L 62.5 1717 Z " /><path fill="rgb(225,225,225)" stroke="rgb(225,225,225)" stroke-width="1" opacity="0.8823529411764706" d="M 62.5 1749 L 64 1749.5 L 64 1760.5 L 15.5 1806 L 15 1793.5 L 62.5 1749 Z " /><path fill="rgb(225,225,225)" stroke="rgb(225,225,225)" stroke-width="1" opacity="0.8823529411764706" d="M 62.5 1781 L 64 1781.5 L 64 1793.5 L 15.5 1839 L 15 1826.5 L 62.5 1781 Z " /><path fill="rgb(225,225,225)" stroke="rgb(225,225,225)" stroke-width="1" opacity="0.8823529411764706" d="M 62.5 1814 L 64 1814.5 L 64 1825.5 L 15.5 1871 L 15 1858.5 L 62.5 1814 Z " /><path fill="rgb(225,225,225)" stroke="rgb(225,225,225)" stroke-width="1" opacity="0.8823529411764706" d="M 62.5 1846 L 64 1846.5 L 64 1857.5 L 16.5 1903 L 15 1903 L 15 1890.5 L 20.5 1885 L 62.5 1846 Z " /><path fill="rgb(225,225,225)" stroke="rgb(225,225,225)" stroke-width="1" opacity="0.8823529411764706" d="M 62.5 1878 L 64 1878.5 L 64 1890.5 L 15.5 1936 L 15 1922 L 16.5 1922 L 62.5 1878 Z " /><path fill="rgb(225,225,225)" stroke="rgb(225,225,225)" stroke-width="1" opacity="0.8823529411764706" d="M 63.5 1910 L 64 1922.5 L 15.5 1968 L 15 1955.5 L 63.5 1910 Z " /><path fill="rgb(225,225,225)" stroke="rgb(225,225,225)" stroke-width="1" opacity="0.8823529411764706" d="M 62.5 1943 L 64 1943.5 L 64 1954.5 L 15.5 2000 L 15 1987.5 L 62.5 1943 Z " /><path fill="rgb(225,225,225)" stroke="rgb(225,225,225)" stroke-width="1" opacity="0.8823529411764706" d="M 62.5 1975 L 64 1975.5 L 64 1987.5 L 43.5 2007 L 30 2007 Q 28.9 2004.3 31.5 2005 L 62.5 1975 Z " /><path fill="rgb(225,225,225)" stroke="rgb(225,225,225)" stroke-width="1" opacity="0.8823529411764706" d="M 86.5 2016 L 90 2035 L 71 2031.5 L 86.5 2016 Z " /><path fill="rgb(0,0,0)" stroke="rgb(0,0,0)" stroke-width="1" opacity="0" d="M 0 0 L 1115.5 0 L 1116 0.5 L 1116 46 L 1151 46 L 1151 37 L 1126 37 L 1126 28 L 1146 28 L 1146 18 L 1126 18 L 1126 9 L 1150.5 9 L 1151 8.5 L 1151 0 L 1156 0 L 1156 46 L 1189 46 L 1189 37 L 1166 37 L 1166 0 L 1193 0 L 1193 46 L 1228 46 L 1228 37 L 1203 37 L 1203 28 L 1223 28 L 1223 18 L 1203 18 L 1203 9 L 1227.5 9 L 1228 8.5 L 1228 0 L 1243.5 0 L 1243.5 1 L 1234 7.5 Q 1228.5 14 1229 26.5 Q 1230.7 37.8 1238.5 43 Q 1244.1 48.4 1256.5 47 L 1265.5 42 L 1266 46 L 1275 46 L 1275 20 L 1251 20 L 1251 29 L 1264 29.5 L 1258.5 36 L 1249.5 37 L 1242 31.5 Q 1239 27.5 1240 19.5 L 1244.5 12 Q 1247.7 8.2 1255.5 9 L 1265.5 16 L 1273 10.5 L 1266.5 3 L 1261 0.5 L 1293.5 0 L 1293.5 1 L 1284 7.5 Q 1278.5 14 1279 26.5 Q 1281 37.5 1288.5 43 L 1298.5 47 L 1307.5 47 Q 1316.5 45.5 1321 39.5 L 1315.5 31 L 1306.5 37 L 1299.5 37 L 1294 34 L 1290 26.5 L 1290 19.5 L 1294 12 L 1299.5 9 L 1306.5 9 L 1313 13.5 L 1316 18.5 L 1319 30.5 L 1322 36.5 L 1329.5 44 L 1337.5 47 L 1347.5 47 Q 1357.1 44.6 1362 37.5 Q 1367.7 31.2 1366 17.5 Q 1363.9 7.6 1356.5 3 L 1351 0.5 L 2048 0 L 2048 2048 L 0 2048 L 0 0 Z M 1376 1 L 1377 6 L 1401 46 L 1411 46 L 1387 3 L 1387 1 L 1376 1 Z M 1390 1 L 1391 6 L 1415 46 L 1425 46 L 1401 3 L 1401 1 L 1390 1 Z M 1404 1 L 1404 4 L 1429 46 L 1439 46 L 1415 3 L 1415 1 L 1404 1 Z M 1418 1 L 1418 4 L 1443 46 L 1453 46 L 1429 3 L 1429 1 L 1418 1 Z M 1374 7 L 1374 26 L 1385 46 L 1397 46 L 1376 9 Q 1377 6 1374 7 Z M 1374 32 L 1374 46 L 1383 46 L 1376 34 Q 1377 31 1374 32 Z M 19 723 L 14 727 L 15 732 Q 14 734 17 733 L 18 735 L 18 1568 L 85 1633 L 85 1991 L 46 2030 L 23 2030 L 20 2027 Q 13 2026 12 2030 Q 11 2036 15 2037 Q 21 2038 23 2034 L 49 2034 L 89 1994 L 89 1630 L 22 1565 L 22 734 L 24 733 L 25 727 Q 23 723 19 723 Z M 39 743 L 39 765 L 40 765 L 46 765 L 47 752 L 51 761 Q 53 767 64 765 L 69 759 Q 71 751 68 748 L 62 743 L 58 743 L 58 750 L 62 751 L 63 754 Q 63 758 61 758 L 57 757 L 53 749 Q 50 742 39 743 Z M 47 769 L 43 771 L 39 777 L 40 788 L 47 792 Q 54 793 57 790 L 60 784 L 59 779 L 59 777 L 63 777 L 63 791 L 69 791 L 69 791 L 69 771 L 67 770 L 58 770 L 52 769 L 52 777 L 54 782 Q 53 785 48 784 Q 44 784 45 780 L 49 777 L 49 769 L 47 769 Z M 50 796 L 45 798 L 39 805 Q 38 813 41 817 L 49 820 L 56 818 L 59 813 L 58 806 L 57 803 L 62 805 Q 64 806 63 811 L 60 813 L 60 819 L 64 819 L 69 813 Q 71 805 68 802 Q 63 794 50 796 Z M 39 823 L 39 831 L 46 835 L 41 838 L 39 839 L 39 846 L 51 840 L 61 846 L 62 846 L 62 839 L 56 835 L 62 831 L 62 823 L 52 829 L 39 823 Z M 39 850 L 39 872 L 40 872 L 46 872 L 47 859 L 51 868 Q 53 874 64 872 L 69 866 Q 71 858 68 855 L 63 850 L 58 850 L 58 857 L 62 858 L 63 861 Q 63 865 61 865 L 57 864 L 53 856 Q 50 849 39 850 Z M 47 876 L 44 877 L 39 884 Q 38 892 41 896 L 47 899 Q 54 900 57 897 L 60 891 L 59 886 L 59 884 L 63 884 L 63 898 L 69 898 L 69 898 L 69 878 L 67 877 L 58 877 L 52 876 L 52 884 L 54 889 Q 53 892 48 891 Q 44 891 45 887 L 49 884 L 49 876 L 47 876 Z M 50 903 L 45 905 L 39 912 Q 38 920 41 924 L 49 927 L 56 925 L 59 920 Q 60 914 57 912 L 61 911 Q 64 913 63 918 L 60 920 L 60 926 L 64 926 L 69 920 Q 71 912 68 909 Q 63 901 50 903 Z M 39 930 L 39 938 L 49 944 L 39 950 L 40 957 L 54 949 L 69 957 L 69 950 L 59 944 L 68 938 L 69 938 L 69 930 L 55 938 L 39 930 Z M 39 960 L 39 982 L 40 982 L 46 982 L 47 969 L 51 978 L 56 982 Q 62 983 66 981 L 69 976 Q 71 967 67 964 Q 64 959 58 960 L 58 968 L 61 968 Q 63 968 63 973 Q 62 975 59 975 L 53 966 Q 49 959 39 960 Z M 47 986 L 43 988 L 39 994 Q 38 1001 40 1005 L 47 1009 L 56 1008 L 60 1002 L 58 995 L 62 994 L 63 996 L 63 1008 L 69 1008 L 69 1008 L 69 988 L 52 986 L 52 994 L 54 999 L 50 1002 L 48 1001 Q 44 1001 45 997 L 49 994 L 49 986 L 47 986 Z M 51 1013 L 45 1015 L 39 1022 Q 38 1030 41 1034 L 47 1037 L 55 1036 L 59 1031 L 58 1023 L 58 1021 L 63 1024 Q 64 1028 62 1029 L 60 1030 L 60 1036 L 66 1035 L 69 1031 Q 71 1021 67 1018 Q 62 1012 51 1013 Z M 39 1041 L 39 1049 L 55 1049 L 56 1051 Q 57 1054 55 1055 L 39 1055 L 39 1063 L 55 1063 L 56 1065 Q 57 1068 55 1069 L 39 1069 L 39 1077 L 59 1076 L 63 1072 L 62 1065 L 59 1062 L 63 1058 L 62 1051 L 62 1049 L 62 1041 L 39 1041 Z M 39 1081 L 39 1089 L 54 1089 L 56 1090 Q 57 1094 55 1095 L 39 1095 L 39 1103 L 55 1103 L 56 1105 Q 57 1108 55 1109 L 39 1109 L 39 1117 L 56 1117 L 61 1115 L 63 1112 Q 64 1103 59 1102 L 61 1101 L 63 1098 L 62 1091 L 62 1089 L 62 1081 L 39 1081 Z M 58 1119 L 54 1120 L 52 1125 L 53 1131 L 56 1132 L 61 1131 L 67 1132 Q 71 1130 69 1123 Q 68 1119 63 1120 L 63 1124 Q 66 1123 65 1127 Q 62 1128 63 1124 Q 58 1122 59 1127 Q 58 1130 56 1127 L 58 1124 L 58 1119 Z M 39 1155 L 40 1160 L 78 1160 L 78 1155 L 39 1155 Z M 40 1183 L 40 1190 L 51 1190 L 51 1201 L 40 1201 L 40 1208 L 41 1208 L 69 1208 L 69 1201 L 58 1201 L 58 1190 L 69 1190 L 69 1184 L 69 1183 L 40 1183 Z M 47 1213 L 43 1215 L 39 1221 Q 38 1227 40 1231 L 48 1236 L 55 1236 L 61 1233 L 63 1230 Q 65 1221 62 1218 Q 59 1211 47 1213 Z M 57 1238 L 57 1242 L 44 1242 L 40 1246 L 40 1253 L 46 1253 L 48 1249 L 57 1249 L 57 1253 L 63 1253 Q 61 1247 68 1249 L 68 1242 Q 61 1244 63 1238 L 57 1238 Z M 48 1272 L 44 1274 L 39 1282 Q 38 1290 41 1294 L 47 1297 L 54 1296 L 57 1293 L 59 1282 L 62 1280 L 64 1285 L 60 1290 L 60 1296 L 65 1295 Q 69 1292 70 1287 Q 71 1280 68 1277 L 65 1273 L 61 1272 L 56 1273 L 52 1277 L 50 1287 Q 51 1290 48 1289 L 45 1286 L 46 1282 L 49 1280 L 49 1273 L 48 1272 Z M 46 1301 L 43 1302 L 39 1307 Q 38 1313 41 1316 L 40 1317 L 40 1323 L 63 1323 L 63 1323 L 63 1316 L 50 1316 L 48 1315 Q 45 1314 46 1311 L 48 1309 L 63 1309 L 63 1301 L 46 1301 Z M 40 1328 L 40 1335 L 53 1335 L 56 1341 L 57 1342 L 63 1342 Q 64 1338 61 1336 L 63 1335 L 63 1329 L 63 1328 L 40 1328 Z M 57 1346 L 57 1349 L 40 1349 L 40 1356 L 57 1356 L 57 1360 L 63 1360 L 63 1357 Q 66 1356 65 1360 L 71 1360 L 71 1353 L 67 1349 Q 61 1351 63 1346 L 57 1346 Z M 45 1363 L 43 1364 L 39 1369 Q 38 1376 42 1378 L 40 1378 L 41 1386 L 42 1385 L 57 1385 L 59 1384 L 63 1379 Q 65 1371 62 1368 Q 62 1364 57 1364 L 55 1364 Q 53 1371 57 1373 Q 59 1379 54 1377 L 53 1367 Q 51 1362 45 1363 Z M 49 1389 L 44 1391 L 39 1398 Q 38 1404 40 1408 L 46 1412 L 49 1412 L 49 1406 L 46 1404 L 45 1401 L 46 1398 L 49 1397 Q 56 1396 57 1400 Q 58 1404 55 1405 L 53 1406 L 53 1412 L 59 1411 L 63 1406 Q 65 1398 62 1395 Q 58 1389 49 1389 Z M 49 1416 L 44 1418 L 39 1426 L 40 1435 Q 42 1440 48 1439 L 48 1432 L 46 1431 L 45 1429 L 46 1425 L 49 1424 L 49 1440 L 57 1439 L 60 1437 L 63 1432 Q 64 1425 62 1422 Q 58 1416 49 1416 Z M 44 1463 L 39 1469 L 39 1545 L 41 1549 L 44 1550 L 51 1550 L 59 1546 L 112 1514 L 116 1509 L 115 1503 L 107 1496 L 55 1465 Q 51 1462 44 1463 Z M 17 1593 L 15 1595 L 16 1612 L 22 1607 L 27 1601 L 20 1593 L 17 1593 Z M 2002 1594 L 1997 1596 L 1991 1603 L 1991 2026 L 1993 2030 L 2000 2034 L 2031 2034 L 2035 2032 L 2039 2026 L 2039 1603 L 2038 1601 Q 2035 1596 2029 1594 L 2002 1594 Z M 38 1611 L 18 1629 L 15 1632 L 15 1644 L 17 1644 L 33 1629 L 44 1618 L 38 1611 Z M 54 1628 L 15 1665 L 16 1677 L 59 1636 Q 61 1637 60 1634 L 54 1628 Z M 63 1652 L 15 1697 L 16 1709 L 64 1664 L 64 1653 L 63 1652 Z M 63 1684 L 17 1728 L 15 1728 L 16 1742 L 63 1697 L 64 1697 L 64 1685 L 63 1684 Z M 63 1717 L 15 1762 L 16 1774 L 64 1729 L 64 1718 L 63 1717 Z M 63 1749 L 15 1794 L 16 1806 L 64 1761 L 64 1750 L 63 1749 Z M 63 1781 L 15 1827 L 16 1839 L 64 1794 L 64 1782 L 63 1781 Z M 63 1814 L 15 1859 L 16 1871 L 64 1826 L 64 1815 L 63 1814 Z M 63 1846 L 21 1885 L 15 1891 L 15 1903 L 17 1903 L 64 1858 L 64 1847 L 63 1846 Z M 63 1878 L 17 1922 L 15 1922 L 16 1936 L 64 1891 L 64 1879 L 63 1878 Z M 64 1910 L 15 1956 L 16 1968 L 64 1923 L 64 1910 Z M 63 1943 L 15 1988 L 16 2000 L 64 1955 L 64 1944 L 63 1943 Z M 63 1975 L 32 2005 Q 29 2004 30 2007 L 44 2007 L 64 1988 L 64 1976 L 63 1975 Z M 87 2016 L 71 2032 L 90 2035 L 87 2016 Z " /><path fill="rgb(0,0,0)" stroke="rgb(0,0,0)" stroke-width="1" opacity="0" d="M 1312.5 0 L 1334 0.5 L 1325 5 L 1325 8.5 L 1329.5 15 Q 1334 8.5 1345.5 9 L 1353 14.5 L 1356 23.5 Q 1354.8 31.3 1349.5 35 Q 1346.5 38 1339.5 37 Q 1333.4 35.6 1331 30.5 L 1326 14.5 L 1318.5 4 L 1312.5 1 L 1312.5 0 Z " /><path fill="rgb(0,0,0)" stroke="rgb(0,0,0)" stroke-width="1" opacity="0" d="M 48.5 804 L 52 805 L 53 809.5 Q 52.3 812.8 47.5 812 Q 44.3 811.3 45 806.5 L 48.5 804 Z " /><path fill="rgb(0,0,0)" stroke="rgb(0,0,0)" stroke-width="1" opacity="0" d="M 48.5 911 L 52 912 L 53 916.5 Q 52.3 919.8 47.5 919 Q 44.3 918.3 45 913.5 L 48.5 911 Z " /><path fill="rgb(0,0,0)" stroke="rgb(0,0,0)" stroke-width="1" opacity="0" d="M 47.5 1022 Q 52.3 1021.3 53 1024.5 Q 53.5 1028.5 50.5 1029 Q 46 1030 45 1027.5 Q 44.3 1022.8 47.5 1022 Z " /><path fill="rgb(0,0,0)" stroke="rgb(0,0,0)" stroke-width="1" opacity="0" d="M 49.5 1220 Q 56 1219 57 1223.5 Q 57.5 1227.5 54.5 1228 L 50.5 1229 L 46 1226.5 L 45 1224.5 L 47.5 1221 L 49.5 1220 Z " /><path fill="rgb(0,0,0)" stroke="rgb(0,0,0)" stroke-width="1" opacity="0" d="M 46.5 1371 L 49 1372.5 Q 50.9 1377.9 47.5 1377 Q 44.5 1376.5 45 1372.5 L 46.5 1371 Z " /><path fill="rgb(0,0,0)" stroke="rgb(0,0,0)" stroke-width="1" opacity="0" d="M 54.5 1424 L 57 1425 Q 58.3 1429.6 55.5 1431 L 54 1430.5 L 54.5 1424 Z " /><path fill="rgb(0,0,0)" stroke="rgb(0,0,0)" stroke-width="1" opacity="0" d="M 46.5 1467 Q 81 1484 111 1505.5 Q 111.8 1509.3 109.5 1510 L 54.5 1543 L 48.5 1546 L 45.5 1546 L 43 1543.5 L 43 1470.5 L 44 1468 L 46.5 1467 Z M 54 1482 L 52 1484 L 52 1530 L 53 1532 L 57 1532 L 65 1527 L 66 1526 L 66 1487 L 58 1482 L 54 1482 Z M 67 1493 L 67 1497 L 72 1500 Q 77 1501 78 1498 L 85 1500 L 86 1498 L 82 1494 Q 75 1493 74 1496 Q 72 1492 67 1493 Z M 67 1502 Q 66 1508 71 1509 Q 76 1510 78 1507 L 83 1509 Q 87 1511 86 1507 L 82 1503 Q 75 1502 74 1505 Q 71 1506 72 1504 Q 71 1501 67 1502 Z M 67 1511 Q 66 1517 71 1518 Q 77 1519 79 1516 L 83 1518 L 85 1518 Q 87 1519 86 1516 L 81 1512 Q 75 1511 74 1514 L 70 1511 L 67 1511 Z " /><path fill="rgb(0,0,0)" stroke="rgb(0,0,0)" stroke-width="1" opacity="0" d="M 57 1488 L 62 1490.5 L 62 1522.5 L 59.5 1525 L 57.5 1526 L 57 1488 Z " /><path fill="rgb(0,0,0)" stroke="rgb(0,0,0)" stroke-width="1" opacity="0" d="M 2000.5 1599 L 2029.5 1599 L 2034 1602.5 L 2035 1604.5 L 2035 2023.5 L 2030.5 2029 L 2028.5 2030 L 2001.5 2030 L 1996 2025.5 L 1995 2023.5 L 1995 1604.5 L 1998.5 1600 L 2000.5 1599 Z M 2030 1618 L 2002 1639 L 1998 1643 L 1998 2011 L 2032 1987 L 2032 1619 L 2030 1618 Z " /></svg>