<?xml version="1.0" encoding="utf-8"?>
<!-- Generator: Adobe Illustrator 29.1.0, SVG Export Plug-In . SVG Version: 9.03 Build 55587)  -->
<svg version="1.1" baseProfile="tiny"
	 id="svg159" xmlns:sodipodi="http://sodipodi.sourceforge.net/DTD/sodipodi-0.dtd" xmlns:svg="http://www.w3.org/2000/svg" xmlns:inkscape="http://www.inkscape.org/namespaces/inkscape" xmlns:sketch="http://www.bohemiancoding.com/sketch/ns" xmlns:dc="http://purl.org/dc/elements/1.1/" xmlns:cc="http://creativecommons.org/ns#" xmlns:rdf="http://www.w3.org/1999/02/22-rdf-syntax-ns#"
	 xmlns="http://www.w3.org/2000/svg" xmlns:xlink="http://www.w3.org/1999/xlink" x="0px" y="0px" viewBox="0 0 222.5 500"
	 overflow="visible" xml:space="preserve">
<sodipodi:namedview  bordercolor="#666666" borderopacity="1" gridtolerance="10" guidetolerance="10" id="namedview161" inkscape:current-layer="Page-1" inkscape:cx="-557.39902" inkscape:cy="330.90388" inkscape:deskcolor="#d1d1d1" inkscape:document-rotation="0" inkscape:pagecheckerboard="0" inkscape:pageopacity="0" inkscape:pageshadow="2" inkscape:showpageshadow="2" inkscape:window-height="1369" inkscape:window-maximized="1" inkscape:window-width="3440" inkscape:window-x="-8" inkscape:window-y="-8" inkscape:zoom="0.90509668" objecttolerance="10" pagecolor="#ffffff" showgrid="false">
	</sodipodi:namedview>
<g>
	<polygon fill="#A5A4A4" points="222.5,499.5 0.5,499.5 0.5,0.5 222.5,0.5 222.5,0 0,0 0,500 222.5,500 	"/>
</g>
<g>
	<rect x="59.9" y="0" fill="#A5A4A4" width="0.2" height="500"/>
</g>
<g>
	<rect x="69.9" y="0" fill="#A5A4A4" width="0.2" height="500"/>
</g>
<g>
	<rect x="79.9" y="0" fill="#A5A4A4" width="0.2" height="500"/>
</g>
<g>
	<rect x="89.9" y="0" fill="#A5A4A4" width="0.2" height="500"/>
</g>
<g>
	<rect x="99.8" y="0" fill="#A5A4A4" width="0.5" height="491.7"/>
</g>
<g>
	<rect x="49.8" y="0" fill="#A5A4A4" width="0.5" height="491.7"/>
</g>
<g>
	<rect x="9.9" y="0" fill="#A5A4A4" width="0.2" height="500"/>
</g>
<g>
	<rect x="19.9" y="0" fill="#A5A4A4" width="0.2" height="500"/>
</g>
<g>
	<rect x="29.9" y="0" fill="#A5A4A4" width="0.2" height="500"/>
</g>
<g>
	<rect x="39.9" y="0" fill="#A5A4A4" width="0.2" height="500"/>
</g>
<g>
	<rect x="109.9" y="0" fill="#A5A4A4" width="0.2" height="454.8"/>
	<polygon fill="#A5A4A4" points="109.9,482.3 110.1,482.1 110.1,500 109.9,500 109.9,482.2 	"/>
</g>
<g>
	<rect x="119.9" y="0" fill="#A5A4A4" width="0.2" height="500"/>
</g>
<g>
	<rect x="129.9" y="0" fill="#A5A4A4" width="0.2" height="500"/>
</g>
<g>
	<rect x="139.9" y="0" fill="#A5A4A4" width="0.2" height="500"/>
</g>
<g>
	<rect x="149.8" y="0" fill="#A5A4A4" width="0.5" height="491.7"/>
</g>
<g>
	<rect x="159.9" y="0" fill="#A5A4A4" width="0.2" height="500"/>
</g>
<g>
	<rect x="169.9" y="0" fill="#A5A4A4" width="0.2" height="500"/>
</g>
<g>
	<rect x="179.9" y="0" fill="#A5A4A4" width="0.2" height="500"/>
</g>
<g>
	<rect x="189.9" y="0" fill="#A5A4A4" width="0.2" height="500"/>
</g>
<g>
	<rect x="199.8" y="0" fill="#A5A4A4" width="0.5" height="491.7"/>
</g>
<g>
	<rect x="209.9" y="0" fill="#A5A4A4" width="0.2" height="500"/>
</g>
<g>
	<rect x="219.9" y="0" fill="#A5A4A4" width="0.2" height="500"/>
</g>
<g>
	<rect x="0" y="59.9" fill="#A5A4A4" width="222.5" height="0.2"/>
</g>
<g>
	<rect x="0" y="69.9" fill="#A5A4A4" width="222.5" height="0.2"/>
</g>
<g>
	<rect x="0" y="79.9" fill="#A5A4A4" width="222.5" height="0.2"/>
</g>
<g>
	<rect x="0" y="89.9" fill="#A5A4A4" width="222.5" height="0.2"/>
</g>
<g>
	<rect x="9.6" y="99.8" fill="#A5A4A4" width="212.9" height="0.5"/>
</g>
<g>
	<rect x="9.5" y="49.8" fill="#A5A4A4" width="213" height="0.5"/>
</g>
<g>
	<rect x="0" y="9.9" fill="#A5A4A4" width="222.5" height="0.2"/>
</g>
<g>
	<rect x="0" y="19.9" fill="#A5A4A4" width="222.5" height="0.2"/>
</g>
<g>
	<rect x="0" y="29.9" fill="#A5A4A4" width="222.5" height="0.2"/>
</g>
<g>
	<rect x="0" y="39.9" fill="#A5A4A4" width="222.5" height="0.2"/>
</g>
<g>
	<rect x="0" y="109.9" fill="#A5A4A4" width="222.5" height="0.2"/>
</g>
<g>
	<rect x="0" y="119.9" fill="#A5A4A4" width="222.5" height="0.2"/>
</g>
<g>
	<rect x="0" y="129.9" fill="#A5A4A4" width="222.5" height="0.2"/>
</g>
<g>
	<rect x="0" y="139.9" fill="#A5A4A4" width="222.5" height="0.2"/>
</g>
<g>
	<rect x="9.4" y="149.8" fill="#A5A4A4" width="213.1" height="0.5"/>
</g>
<g>
	<rect x="0" y="159.9" fill="#A5A4A4" width="222.5" height="0.2"/>
</g>
<g>
	<rect x="0" y="169.9" fill="#A5A4A4" width="222.5" height="0.2"/>
</g>
<g>
	<rect x="0" y="179.9" fill="#A5A4A4" width="222.5" height="0.2"/>
</g>
<g>
	<rect x="0" y="189.9" fill="#A5A4A4" width="222.5" height="0.2"/>
</g>
<g>
	<rect x="9.5" y="199.8" fill="#A5A4A4" width="213" height="0.5"/>
</g>
<g>
	<rect x="0" y="209.9" fill="#A5A4A4" width="222.5" height="0.2"/>
</g>
<g>
	<rect x="0" y="219.9" fill="#A5A4A4" width="222.5" height="0.2"/>
</g>
<g>
	<rect x="0" y="229.9" fill="#A5A4A4" width="222.5" height="0.2"/>
</g>
<g>
	<rect x="0" y="239.9" fill="#A5A4A4" width="222.5" height="0.2"/>
</g>
<g>
	<rect x="9.4" y="249.8" fill="#A5A4A4" width="213.1" height="0.5"/>
</g>
<g>
	<rect x="0" y="259.9" fill="#A5A4A4" width="222.5" height="0.2"/>
</g>
<g>
	<rect x="0" y="269.9" fill="#A5A4A4" width="222.5" height="0.2"/>
</g>
<g>
	<rect x="0" y="279.9" fill="#A5A4A4" width="222.5" height="0.2"/>
</g>
<g>
	<rect x="0" y="289.9" fill="#A5A4A4" width="222.5" height="0.2"/>
</g>
<g>
	<rect x="9.5" y="299.8" fill="#A5A4A4" width="213" height="0.5"/>
</g>
<g>
	<rect x="0" y="309.9" fill="#A5A4A4" width="222.5" height="0.2"/>
</g>
<g>
	<rect x="0" y="319.9" fill="#A5A4A4" width="222.5" height="0.2"/>
</g>
<g>
	<rect x="0" y="329.9" fill="#A5A4A4" width="222.5" height="0.2"/>
</g>
<g>
	<rect x="0" y="339.9" fill="#A5A4A4" width="222.5" height="0.2"/>
</g>
<g>
	<rect x="9.1" y="349.8" fill="#A5A4A4" width="213.4" height="0.5"/>
</g>
<g>
	<rect x="0" y="359.9" fill="#A5A4A4" width="222.5" height="0.2"/>
</g>
<g>
	<rect x="0" y="369.9" fill="#A5A4A4" width="222.5" height="0.2"/>
</g>
<g>
	<rect x="0" y="379.9" fill="#A5A4A4" width="222.5" height="0.2"/>
</g>
<g>
	<rect x="0" y="389.9" fill="#A5A4A4" width="222.5" height="0.2"/>
</g>
<g>
	<rect x="9.2" y="399.8" fill="#A5A4A4" width="213.3" height="0.5"/>
</g>
<g>
	<rect x="8.3" y="449.8" fill="#A5A4A4" width="214.2" height="0.5"/>
</g>
<g>
	<rect x="0" y="409.9" fill="#A5A4A4" width="222.5" height="0.2"/>
</g>
<g>
	<rect x="0" y="419.9" fill="#A5A4A4" width="222.5" height="0.2"/>
</g>
<g>
	<rect x="0" y="429.9" fill="#A5A4A4" width="222.5" height="0.2"/>
</g>
<g>
	<rect x="0" y="439.9" fill="#A5A4A4" width="222.5" height="0.2"/>
</g>
<g>
	<polygon fill="#A5A4A4" points="104.3,459.9 104.4,460.1 0,460.1 0,459.9 	"/>
	<rect x="119.2" y="459.9" fill="#A5A4A4" width="103.3" height="0.2"/>
</g>
<g>
	<polygon fill="#A5A4A4" points="108.4,469.9 108.5,470.1 0,470.1 0,469.9 	"/>
	<rect x="119.2" y="469.9" fill="#A5A4A4" width="103.3" height="0.2"/>
</g>
<g>
	<rect x="0" y="479.9" fill="#A5A4A4" width="109.9" height="0.2"/>
	<rect x="119.2" y="479.9" fill="#A5A4A4" width="103.3" height="0.2"/>
</g>
<g>
	<rect x="0" y="489.9" fill="#A5A4A4" width="222.5" height="0.2"/>
</g>
<g>
	<path fill="#A5A4A4" d="M47.5,496.2v-0.3H48v0.4c0,0.4,0.2,0.7,0.6,0.7c0.4,0,0.6-0.2,0.6-0.7v-1.1c0-0.5-0.2-0.7-0.6-0.7
		c-0.3,0-0.5,0.2-0.6,0.6v0h-0.5l0.1-2.7h2v0.5h-1.5l-0.1,1.5c0.2-0.3,0.4-0.4,0.8-0.4c0.6,0,0.9,0.4,0.9,1.1v1.1
		c0,0.8-0.4,1.2-1.1,1.2C47.8,497.4,47.5,496.9,47.5,496.2z"/>
	<path fill="#A5A4A4" d="M50.2,496.2v-2.7c0-0.8,0.4-1.2,1.2-1.2c0.7,0,1.2,0.4,1.2,1.2v2.7c0,0.8-0.4,1.2-1.2,1.2
		C50.6,497.4,50.2,497,50.2,496.2z M51.9,496.2v-2.8c0-0.5-0.2-0.7-0.6-0.7c-0.4,0-0.6,0.2-0.6,0.7v2.8c0,0.5,0.2,0.7,0.6,0.7
		C51.7,496.9,51.9,496.7,51.9,496.2z"/>
</g>
<g>
	<path fill="#A5A4A4" d="M2.8,451.4v-0.3h0.5v0.4c0,0.4,0.2,0.7,0.6,0.7c0.4,0,0.6-0.2,0.6-0.7v-1.1c0-0.5-0.2-0.7-0.6-0.7
		c-0.3,0-0.5,0.2-0.6,0.6v0H2.8l0.1-2.7h2v0.5H3.5l-0.1,1.5c0.2-0.3,0.4-0.4,0.8-0.4c0.6,0,0.9,0.4,0.9,1.1v1.1
		c0,0.8-0.4,1.2-1.1,1.2C3.1,452.7,2.8,452.2,2.8,451.4z"/>
	<path fill="#A5A4A4" d="M5.5,451.4v-2.7c0-0.8,0.4-1.2,1.2-1.2c0.7,0,1.2,0.4,1.2,1.2v2.7c0,0.8-0.4,1.2-1.2,1.2
		C5.9,452.7,5.5,452.2,5.5,451.4z M7.2,451.5v-2.8c0-0.5-0.2-0.7-0.6-0.7c-0.4,0-0.6,0.2-0.6,0.7v2.8c0,0.5,0.2,0.7,0.6,0.7
		C7,452.2,7.2,451.9,7.2,451.5z"/>
</g>
<g>
	<path fill="#A5A4A4" d="M2.4,398.5c-0.2,0.1-0.5,0.2-0.9,0.2v-0.4c0.6,0,0.9-0.2,1-0.7h0.4v5H2.4V398.5z"/>
	<path fill="#A5A4A4" d="M3.5,401.4v-2.7c0-0.8,0.4-1.2,1.2-1.2c0.7,0,1.2,0.4,1.2,1.2v2.7c0,0.8-0.4,1.2-1.2,1.2
		C3.9,402.6,3.5,402.2,3.5,401.4z M5.3,401.4v-2.8c0-0.5-0.2-0.7-0.6-0.7c-0.4,0-0.6,0.2-0.6,0.7v2.8c0,0.5,0.2,0.7,0.6,0.7
		C5.1,402.1,5.3,401.9,5.3,401.4z"/>
	<path fill="#A5A4A4" d="M6.3,401.4v-2.7c0-0.8,0.4-1.2,1.2-1.2c0.7,0,1.2,0.4,1.2,1.2v2.7c0,0.8-0.4,1.2-1.2,1.2
		C6.7,402.6,6.3,402.2,6.3,401.4z M8.1,401.4v-2.8c0-0.5-0.2-0.7-0.6-0.7c-0.4,0-0.6,0.2-0.6,0.7v2.8c0,0.5,0.2,0.7,0.6,0.7
		C7.8,402.1,8.1,401.9,8.1,401.4z"/>
</g>
<g>
	<path fill="#A5A4A4" d="M2.4,348.5c-0.2,0.1-0.5,0.2-0.9,0.2v-0.4c0.6,0,0.9-0.2,1-0.7H3v5H2.4V348.5z"/>
	<path fill="#A5A4A4" d="M3.5,351.4v-0.3h0.5v0.4c0,0.4,0.2,0.7,0.6,0.7c0.4,0,0.6-0.2,0.6-0.7v-1.1c0-0.5-0.2-0.7-0.6-0.7
		c-0.3,0-0.5,0.2-0.6,0.6v0H3.6l0.1-2.7h2v0.5H4.2l-0.1,1.5c0.2-0.3,0.4-0.4,0.8-0.4c0.6,0,0.9,0.4,0.9,1.1v1.1
		c0,0.8-0.4,1.2-1.1,1.2C3.9,352.7,3.5,352.2,3.5,351.4z"/>
	<path fill="#A5A4A4" d="M6.2,351.4v-2.7c0-0.8,0.4-1.2,1.2-1.2c0.7,0,1.2,0.4,1.2,1.2v2.7c0,0.8-0.4,1.2-1.2,1.2
		C6.6,352.7,6.2,352.2,6.2,351.4z M8,351.5v-2.8c0-0.5-0.2-0.7-0.6-0.7c-0.4,0-0.6,0.2-0.6,0.7v2.8c0,0.5,0.2,0.7,0.6,0.7
		C7.8,352.2,8,352,8,351.5z"/>
</g>
<g>
	<path fill="#A5A4A4" d="M1.2,302c0-0.8,0.3-1.3,0.9-1.9c0.6-0.6,0.8-1,0.8-1.5c0-0.5-0.2-0.7-0.6-0.7c-0.4,0-0.6,0.3-0.6,0.7v0.5
		H1.2v-0.4c0-0.7,0.3-1.2,1.1-1.2c0.8,0,1.1,0.5,1.1,1.2c0,0.6-0.3,1.1-0.9,1.8c-0.5,0.5-0.8,0.9-0.8,1.4v0.1h1.7v0.5H1.2V302z"/>
	<path fill="#A5A4A4" d="M3.9,301.2v-2.7c0-0.8,0.4-1.2,1.2-1.2c0.7,0,1.2,0.4,1.2,1.2v2.7c0,0.8-0.4,1.2-1.2,1.2
		C4.3,302.5,3.9,302,3.9,301.2z M5.6,301.3v-2.8c0-0.5-0.2-0.7-0.6-0.7c-0.4,0-0.6,0.2-0.6,0.7v2.8c0,0.5,0.2,0.7,0.6,0.7
		C5.4,302,5.6,301.8,5.6,301.3z"/>
	<path fill="#A5A4A4" d="M6.6,301.2v-2.7c0-0.8,0.4-1.2,1.2-1.2c0.7,0,1.2,0.4,1.2,1.2v2.7c0,0.8-0.4,1.2-1.2,1.2
		C7,302.5,6.6,302,6.6,301.2z M8.4,301.3v-2.8c0-0.5-0.2-0.7-0.6-0.7c-0.4,0-0.6,0.2-0.6,0.7v2.8c0,0.5,0.2,0.7,0.6,0.7
		C8.2,302,8.4,301.8,8.4,301.3z"/>
</g>
<g>
	<path fill="#A5A4A4" d="M1.3,252.1c0-0.8,0.3-1.3,0.9-1.9c0.6-0.6,0.8-1,0.8-1.5c0-0.5-0.2-0.7-0.6-0.7c-0.4,0-0.6,0.3-0.6,0.7v0.5
		H1.3v-0.4c0-0.7,0.3-1.2,1.1-1.2c0.8,0,1.1,0.5,1.1,1.2c0,0.6-0.3,1.1-0.9,1.8c-0.5,0.5-0.8,0.9-0.8,1.4v0.1h1.7v0.5H1.3V252.1z"/>
	<path fill="#A5A4A4" d="M3.9,251.3V251h0.5v0.4c0,0.4,0.2,0.7,0.6,0.7c0.4,0,0.6-0.2,0.6-0.7v-1.1c0-0.5-0.2-0.7-0.6-0.7
		c-0.3,0-0.5,0.2-0.6,0.6v0H3.9l0.1-2.7h2v0.5H4.5l-0.1,1.5c0.2-0.3,0.4-0.4,0.8-0.4c0.6,0,0.9,0.4,0.9,1.1v1.1
		c0,0.8-0.4,1.2-1.1,1.2C4.2,252.6,3.9,252.1,3.9,251.3z"/>
	<path fill="#A5A4A4" d="M6.6,251.3v-2.7c0-0.8,0.4-1.2,1.2-1.2c0.7,0,1.2,0.4,1.2,1.2v2.7c0,0.8-0.4,1.2-1.2,1.2
		C7,252.6,6.6,252.1,6.6,251.3z M8.3,251.4v-2.8c0-0.5-0.2-0.7-0.6-0.7c-0.4,0-0.6,0.2-0.6,0.7v2.8c0,0.5,0.2,0.7,0.6,0.7
		C8.1,252.1,8.3,251.8,8.3,251.4z"/>
</g>
<g>
	<path fill="#A5A4A4" d="M1.2,201.2v-0.4h0.5v0.4c0,0.4,0.2,0.7,0.6,0.7c0.4,0,0.6-0.2,0.6-0.7v-0.4c0-0.5-0.2-0.7-0.6-0.7H2v-0.5
		h0.3c0.4,0,0.6-0.2,0.6-0.7v-0.3c0-0.5-0.2-0.7-0.6-0.7c-0.4,0-0.6,0.2-0.6,0.7v0.3H1.2v-0.3c0-0.8,0.4-1.2,1.1-1.2
		c0.7,0,1.1,0.4,1.1,1.2v0.2c0,0.5-0.2,0.9-0.6,1v0c0.4,0.1,0.6,0.5,0.6,1v0.5c0,0.8-0.4,1.2-1.1,1.2C1.5,202.4,1.2,201.9,1.2,201.2
		z"/>
	<path fill="#A5A4A4" d="M3.9,201.2v-2.7c0-0.8,0.4-1.2,1.2-1.2c0.7,0,1.2,0.4,1.2,1.2v2.7c0,0.8-0.4,1.2-1.2,1.2
		C4.3,202.4,3.9,202,3.9,201.2z M5.6,201.2v-2.8c0-0.5-0.2-0.7-0.6-0.7c-0.4,0-0.6,0.2-0.6,0.7v2.8c0,0.5,0.2,0.7,0.6,0.7
		C5.4,201.9,5.6,201.7,5.6,201.2z"/>
	<path fill="#A5A4A4" d="M6.7,201.2v-2.7c0-0.8,0.4-1.2,1.2-1.2c0.7,0,1.2,0.4,1.2,1.2v2.7c0,0.8-0.4,1.2-1.2,1.2
		C7.1,202.4,6.7,202,6.7,201.2z M8.4,201.2v-2.8c0-0.5-0.2-0.7-0.6-0.7c-0.4,0-0.6,0.2-0.6,0.7v2.8c0,0.5,0.2,0.7,0.6,0.7
		C8.2,201.9,8.4,201.7,8.4,201.2z"/>
</g>
<g>
	<path fill="#A5A4A4" d="M1.2,151.3v-0.4h0.5v0.4c0,0.4,0.2,0.7,0.6,0.7c0.4,0,0.6-0.2,0.6-0.7v-0.4c0-0.5-0.2-0.7-0.6-0.7H2v-0.5
		h0.3c0.4,0,0.6-0.2,0.6-0.7v-0.3c0-0.5-0.2-0.7-0.6-0.7c-0.4,0-0.6,0.2-0.6,0.7v0.3H1.3v-0.3c0-0.8,0.4-1.2,1.1-1.2
		c0.7,0,1.1,0.4,1.1,1.2v0.2c0,0.5-0.2,0.9-0.6,1v0c0.4,0.1,0.6,0.5,0.6,1v0.5c0,0.8-0.4,1.2-1.1,1.2C1.6,152.5,1.2,152,1.2,151.3z"
		/>
	<path fill="#A5A4A4" d="M3.9,151.3v-0.3h0.5v0.4c0,0.4,0.2,0.7,0.6,0.7c0.4,0,0.6-0.2,0.6-0.7v-1.1c0-0.5-0.2-0.7-0.6-0.7
		c-0.3,0-0.5,0.2-0.6,0.6v0H3.9l0.1-2.7h2v0.5H4.6l-0.1,1.5c0.2-0.3,0.4-0.4,0.8-0.4c0.6,0,0.9,0.4,0.9,1.1v1.1
		c0,0.8-0.4,1.2-1.1,1.2C4.3,152.5,3.9,152,3.9,151.3z"/>
	<path fill="#A5A4A4" d="M6.6,151.3v-2.7c0-0.8,0.4-1.2,1.2-1.2c0.7,0,1.2,0.4,1.2,1.2v2.7c0,0.8-0.4,1.2-1.2,1.2
		C7,152.5,6.6,152.1,6.6,151.3z M8.3,151.3v-2.8c0-0.5-0.2-0.7-0.6-0.7c-0.4,0-0.6,0.2-0.6,0.7v2.8c0,0.5,0.2,0.7,0.6,0.7
		C8.1,152,8.3,151.8,8.3,151.3z"/>
</g>
<g>
	<path fill="#A5A4A4" d="M2.7,101.4H1v-0.5l1.6-3.5h0.6v3.5h0.4v0.5H3.2v1H2.7V101.4z M2.7,100.9v-2.5l-1.1,2.5H2.7z"/>
	<path fill="#A5A4A4" d="M4,101.3v-2.7c0-0.8,0.4-1.2,1.2-1.2c0.7,0,1.2,0.4,1.2,1.2v2.7c0,0.8-0.4,1.2-1.2,1.2
		C4.4,102.5,4,102.1,4,101.3z M5.7,101.3v-2.8c0-0.5-0.2-0.7-0.6-0.7c-0.4,0-0.6,0.2-0.6,0.7v2.8c0,0.5,0.2,0.7,0.6,0.7
		C5.5,102,5.7,101.8,5.7,101.3z"/>
	<path fill="#A5A4A4" d="M6.7,101.3v-2.7c0-0.8,0.4-1.2,1.2-1.2c0.7,0,1.2,0.4,1.2,1.2v2.7c0,0.8-0.4,1.2-1.2,1.2
		C7.2,102.5,6.7,102.1,6.7,101.3z M8.5,101.3v-2.8c0-0.5-0.2-0.7-0.6-0.7c-0.4,0-0.6,0.2-0.6,0.7v2.8c0,0.5,0.2,0.7,0.6,0.7
		C8.3,102,8.5,101.8,8.5,101.3z"/>
</g>
<g>
	<path fill="#A5A4A4" d="M2.7,51.5H1.1v-0.5l1.6-3.5h0.6v3.5h0.4v0.5H3.3v1H2.7V51.5z M2.7,50.9v-2.5l-1.1,2.5H2.7z"/>
	<path fill="#A5A4A4" d="M4,51.3V51h0.5v0.4c0,0.4,0.2,0.7,0.6,0.7c0.4,0,0.6-0.2,0.6-0.7v-1.1c0-0.5-0.2-0.7-0.6-0.7
		c-0.3,0-0.5,0.2-0.6,0.6v0H4l0.1-2.7h2V48H4.6l-0.1,1.5c0.2-0.3,0.4-0.4,0.8-0.4c0.6,0,0.9,0.4,0.9,1.1v1.1c0,0.8-0.4,1.2-1.1,1.2
		C4.3,52.5,4,52,4,51.3z"/>
	<path fill="#A5A4A4" d="M6.7,51.3v-2.7c0-0.8,0.4-1.2,1.2-1.2c0.7,0,1.2,0.4,1.2,1.2v2.7c0,0.8-0.4,1.2-1.2,1.2
		C7.1,52.5,6.7,52.1,6.7,51.3z M8.4,51.3v-2.8c0-0.5-0.2-0.7-0.6-0.7c-0.4,0-0.6,0.2-0.6,0.7v2.8c0,0.5,0.2,0.7,0.6,0.7
		C8.2,52,8.4,51.8,8.4,51.3z"/>
</g>
<g>
	<path fill="#A5A4A4" d="M97.3,493.2c-0.2,0.1-0.5,0.2-0.9,0.2V493c0.6,0,0.9-0.2,1-0.7h0.4v5h-0.6V493.2z"/>
	<path fill="#A5A4A4" d="M98.4,496.2v-2.7c0-0.8,0.4-1.2,1.2-1.2c0.7,0,1.2,0.4,1.2,1.2v2.7c0,0.8-0.4,1.2-1.2,1.2
		C98.8,497.4,98.4,497,98.4,496.2z M100.2,496.2v-2.8c0-0.5-0.2-0.7-0.6-0.7c-0.4,0-0.6,0.2-0.6,0.7v2.8c0,0.5,0.2,0.7,0.6,0.7
		C99.9,496.9,100.2,496.7,100.2,496.2z"/>
	<path fill="#A5A4A4" d="M101.2,496.2v-2.7c0-0.8,0.4-1.2,1.2-1.2c0.7,0,1.2,0.4,1.2,1.2v2.7c0,0.8-0.4,1.2-1.2,1.2
		C101.6,497.4,101.2,497,101.2,496.2z M102.9,496.2v-2.8c0-0.5-0.2-0.7-0.6-0.7c-0.4,0-0.6,0.2-0.6,0.7v2.8c0,0.5,0.2,0.7,0.6,0.7
		C102.7,496.9,102.9,496.7,102.9,496.2z"/>
</g>
<g>
	<path fill="#A5A4A4" d="M147.3,493.2c-0.2,0.1-0.5,0.2-0.9,0.2V493c0.6,0,0.9-0.2,1-0.7h0.4v5h-0.6V493.2z"/>
	<path fill="#A5A4A4" d="M148.4,496.2v-0.3h0.5v0.4c0,0.4,0.2,0.7,0.6,0.7c0.4,0,0.6-0.2,0.6-0.7v-1.1c0-0.5-0.2-0.7-0.6-0.7
		c-0.3,0-0.5,0.2-0.6,0.6v0h-0.5l0.1-2.7h2v0.5h-1.5l-0.1,1.5c0.2-0.3,0.4-0.4,0.8-0.4c0.6,0,0.9,0.4,0.9,1.1v1.1
		c0,0.8-0.4,1.2-1.1,1.2C148.8,497.4,148.4,496.9,148.4,496.2z"/>
	<path fill="#A5A4A4" d="M151.1,496.2v-2.7c0-0.8,0.4-1.2,1.2-1.2c0.7,0,1.2,0.4,1.2,1.2v2.7c0,0.8-0.4,1.2-1.2,1.2
		C151.5,497.4,151.1,497,151.1,496.2z M152.9,496.2v-2.8c0-0.5-0.2-0.7-0.6-0.7c-0.4,0-0.6,0.2-0.6,0.7v2.8c0,0.5,0.2,0.7,0.6,0.7
		C152.7,496.9,152.9,496.7,152.9,496.2z"/>
</g>
<g>
	<path fill="#A5A4A4" d="M196.1,496.9c0-0.8,0.3-1.3,0.9-1.9c0.6-0.6,0.8-1,0.8-1.5c0-0.5-0.2-0.7-0.6-0.7c-0.4,0-0.6,0.3-0.6,0.7
		v0.5h-0.5v-0.4c0-0.7,0.3-1.2,1.1-1.2c0.8,0,1.1,0.5,1.1,1.2c0,0.6-0.3,1.1-0.9,1.8c-0.5,0.5-0.8,0.9-0.8,1.4v0.1h1.7v0.5h-2.2
		V496.9z"/>
	<path fill="#A5A4A4" d="M198.7,496.2v-2.7c0-0.8,0.4-1.2,1.2-1.2c0.7,0,1.2,0.4,1.2,1.2v2.7c0,0.8-0.4,1.2-1.2,1.2
		C199.1,497.4,198.7,497,198.7,496.2z M200.5,496.2v-2.8c0-0.5-0.2-0.7-0.6-0.7c-0.4,0-0.6,0.2-0.6,0.7v2.8c0,0.5,0.2,0.7,0.6,0.7
		C200.3,496.9,200.5,496.7,200.5,496.2z"/>
	<path fill="#A5A4A4" d="M201.5,496.2v-2.7c0-0.8,0.4-1.2,1.2-1.2c0.7,0,1.2,0.4,1.2,1.2v2.7c0,0.8-0.4,1.2-1.2,1.2
		C201.9,497.4,201.5,497,201.5,496.2z M203.3,496.2v-2.8c0-0.5-0.2-0.7-0.6-0.7c-0.4,0-0.6,0.2-0.6,0.7v2.8c0,0.5,0.2,0.7,0.6,0.7
		C203.1,496.9,203.3,496.7,203.3,496.2z"/>
</g>
<g>
	<rect x="0" y="449.8" fill="#A5A4A4" width="2.2" height="0.5"/>
</g>
<g>
	<rect x="0" y="399.8" fill="#A5A4A4" width="1.8" height="0.5"/>
</g>
<g>
	<rect x="0" y="349.8" fill="#A5A4A4" width="1.9" height="0.5"/>
</g>
<g>
	<rect x="0" y="299.8" fill="#A5A4A4" width="0.9" height="0.5"/>
</g>
<g>
	<rect x="0" y="249.8" fill="#A5A4A4" width="1" height="0.5"/>
</g>
<g>
	<rect x="0" y="149.8" fill="#A5A4A4" width="1" height="0.5"/>
</g>
<g>
	<rect x="49.8" y="497.9" fill="#A5A4A4" width="0.5" height="2.1"/>
</g>
<g>
	<rect x="99.8" y="497.9" fill="#A5A4A4" width="0.5" height="2.1"/>
</g>
<g>
	<rect x="149.8" y="497.9" fill="#A5A4A4" width="0.5" height="2.1"/>
</g>
<g>
	<rect x="199.8" y="497.9" fill="#A5A4A4" width="0.5" height="2.1"/>
</g>
<g>
	<path fill-rule="evenodd" fill="#6D6C6C" d="M111.3,463.8l2,3.3v2.8C112.6,469,109.2,465.5,111.3,463.8z M104.3,455.1l2.8,1.3
		l-1.6,1.8L104.3,455.1z M118.8,483.5v2.4h-1.4l-1.8-2.4H118.8z M101.8,452.6l6,2.7h10.9v27.5H115l-1.8-2.3l-0.7-1.6l-2.7,2.7
		l-0.2-0.2l2.8-2.8l-0.5-1.1l-3.9,1.5l-0.1-0.3l3.9-1.5l-0.4-1h-4v-0.3h3.8L101.8,452.6z"/>
	<path fill="#A5A4A4" d="M118.9,486h-1.5l0,0l-2-2.6h3.5V486z M117.4,485.8h1.2v-2.2h-2.9L117.4,485.8z M118.9,482.9H115l0,0
		l-1.8-2.3l-0.6-1.5l-2.7,2.7l-0.4-0.4l2.8-2.8l-0.4-1l-3.9,1.5l-0.2-0.5l0.1,0l3.8-1.5l-0.4-0.9h-4v-0.5h3.8l-9.5-23.2l6.2,2.8h11
		V482.9z M115.1,482.7h3.6v-27.3l-10.9,0l-5.8-2.6l9.5,23.1h-3.9v0.1h3.9l0.5,1.2l-3.9,1.5l0.1,0.1l3.9-1.5l0.5,1.3l-2.8,2.8
		l0.1,0.1l2.7-2.7l0.7,1.7L115.1,482.7z M113.4,470.1l-0.2-0.2c-0.1-0.1-0.2-0.2-0.3-0.3c-0.8-0.9-2.6-2.9-2.4-4.5
		c0-0.5,0.3-1,0.7-1.3l0.1-0.1l2,3.4V470.1z M111.3,463.9c-0.3,0.3-0.5,0.7-0.6,1.1c-0.1,1.5,1.6,3.5,2.4,4.4c0,0,0.1,0.1,0.1,0.1
		v-2.5L111.3,463.9z M105.5,458.3l-1.4-3.4l3.2,1.4L105.5,458.3z M104.5,455.3l1.1,2.7l1.4-1.6L104.5,455.3z"/>
</g>
</svg>
