<?xml version="1.0" encoding="utf-8"?>
<!-- Generator: Adobe Illustrator 29.1.0, SVG Export Plug-In . SVG Version: 9.03 Build 55587)  -->
<svg version="1.1" baseProfile="tiny"
	 id="svg3128" xmlns:sodipodi="http://sodipodi.sourceforge.net/DTD/sodipodi-0.dtd" xmlns:svg="http://www.w3.org/2000/svg" xmlns:inkscape="http://www.inkscape.org/namespaces/inkscape"
	 xmlns="http://www.w3.org/2000/svg" xmlns:xlink="http://www.w3.org/1999/xlink" x="0px" y="0px" viewBox="0 0 300 300"
	 overflow="visible" xml:space="preserve">
<metadata><?xpacket begin="﻿" id="W5M0MpCehiHzreSzNTczkc9d"?>
<x:xmpmeta xmlns:x="adobe:ns:meta/" x:xmptk="Adobe XMP Core 9.1-c002 79.b7c64cc, 2024/07/16-07:59:40        ">
   <rdf:RDF xmlns:rdf="http://www.w3.org/1999/02/22-rdf-syntax-ns#">
      <rdf:Description rdf:about=""
            xmlns:xmp="http://ns.adobe.com/xap/1.0/"
            xmlns:xmpGImg="http://ns.adobe.com/xap/1.0/g/img/"
            xmlns:xmpTPg="http://ns.adobe.com/xap/1.0/t/pg/"
            xmlns:stDim="http://ns.adobe.com/xap/1.0/sType/Dimensions#"
            xmlns:xmpG="http://ns.adobe.com/xap/1.0/g/"
            xmlns:dc="http://purl.org/dc/elements/1.1/"
            xmlns:xmpMM="http://ns.adobe.com/xap/1.0/mm/"
            xmlns:stRef="http://ns.adobe.com/xap/1.0/sType/ResourceRef#"
            xmlns:stEvt="http://ns.adobe.com/xap/1.0/sType/ResourceEvent#">
         <xmp:CreatorTool>Adobe Illustrator 29.1 (Windows)</xmp:CreatorTool>
         <xmp:CreateDate>2025-05-28T11:41:46+01:00</xmp:CreateDate>
         <xmp:MetadataDate>2025-05-28T11:41:46+01:00</xmp:MetadataDate>
         <xmp:ModifyDate>2025-05-28T11:41:46+01:00</xmp:ModifyDate>
         <xmp:Thumbnails>
            <rdf:Alt>
               <rdf:li rdf:parseType="Resource">
                  <xmpGImg:width>256</xmpGImg:width>
                  <xmpGImg:height>256</xmpGImg:height>
                  <xmpGImg:format>JPEG</xmpGImg:format>
                  <xmpGImg:image>/9j/4AAQSkZJRgABAgEASABIAAD/7QAsUGhvdG9zaG9wIDMuMAA4QklNA+0AAAAAABAASAAAAAEA&#xA;AQBIAAAAAQAB/+4ADkFkb2JlAGTAAAAAAf/bAIQABgQEBAUEBgUFBgkGBQYJCwgGBggLDAoKCwoK&#xA;DBAMDAwMDAwQDA4PEA8ODBMTFBQTExwbGxscHx8fHx8fHx8fHwEHBwcNDA0YEBAYGhURFRofHx8f&#xA;Hx8fHx8fHx8fHx8fHx8fHx8fHx8fHx8fHx8fHx8fHx8fHx8fHx8fHx8fHx8f/8AAEQgBAAEAAwER&#xA;AAIRAQMRAf/EAaIAAAAHAQEBAQEAAAAAAAAAAAQFAwIGAQAHCAkKCwEAAgIDAQEBAQEAAAAAAAAA&#xA;AQACAwQFBgcICQoLEAACAQMDAgQCBgcDBAIGAnMBAgMRBAAFIRIxQVEGE2EicYEUMpGhBxWxQiPB&#xA;UtHhMxZi8CRygvElQzRTkqKyY3PCNUQnk6OzNhdUZHTD0uIIJoMJChgZhJRFRqS0VtNVKBry4/PE&#xA;1OT0ZXWFlaW1xdXl9WZ2hpamtsbW5vY3R1dnd4eXp7fH1+f3OEhYaHiImKi4yNjo+Ck5SVlpeYmZ&#xA;qbnJ2en5KjpKWmp6ipqqusra6voRAAICAQIDBQUEBQYECAMDbQEAAhEDBCESMUEFURNhIgZxgZEy&#xA;obHwFMHR4SNCFVJicvEzJDRDghaSUyWiY7LCB3PSNeJEgxdUkwgJChgZJjZFGidkdFU38qOzwygp&#xA;0+PzhJSktMTU5PRldYWVpbXF1eX1RlZmdoaWprbG1ub2R1dnd4eXp7fH1+f3OEhYaHiImKi4yNjo&#xA;+DlJWWl5iZmpucnZ6fkqOkpaanqKmqq6ytrq+v/aAAwDAQACEQMRAD8A9N2FhYmxtybeIkxJU8F/&#xA;lHtirrCwsTY25NvESYkqeC/yj2xV1jYWJtUJt4id9+C+J9sVdZWFiYWrbxH97L+wvaVvbFV8dhY8&#xA;5f8ARovtD9hf5V9sVULKxsTc34NvEQJ1A+Bdh6ER8MVVEsLH69MPq8VBFFtwX+aT2xVyWFj9emH1&#xA;eKgii24L/NJ7Yq57Cx+vQj6vFQxS7cF/mj9sVc9hY/XoR9XioYpduC/zR+2Kqd7Y2IubAC3iAM7A&#xA;/Au49CU+GKq8lhY84v8ARovtH9hf5W9sVWXthYiFaW8Q/exfsL3lX2xV19YWItXIt4gdt+C+I9sV&#xA;df2FiLG4It4gRE9DwX+U+2Kr57CxEEhFtFXi37C+HyxV0FhYmCMm2irxX9hfD5YqssLCxNjbk28R&#xA;JiSp4L/KPbFXWNhYm1Qm3iJ334L4n2xV1lYWJhatvEf3sv7C9pW9sVXx2Fjzl/0aL7Q/YX+VfbFV&#xA;CysbE3N+DbxECdQPgXYehEfDFVRLCx+vTD6vFQRRbcF/mk9sVclhY/Xph9XioIotuC/zSe2Kuews&#xA;fr0I+rxUMUu3Bf5o/bFXPYWP16EfV4qGKXbgv80ftirriwsRNa0t4t5TX4F/30/tiq+SwsecX+jR&#xA;faP7C/yt7YqsvbCxEK0t4h+9i/YXvKvtirr6wsRauRbxA7b8F8R7Yq6/sLEWNwRbxAiJ6Hgv8p9s&#xA;Vdf2FiLG4It4gRE9DwX+U+2KusLCxNjbk28RJiSp4L/KPbFXWFhYmxtybeIkxJU8F/lHtirrGwsT&#xA;aoTbxE778F8T7Yq6ysLEwtW3iP72X9he0re2Kr47Cx5y/wCjRfaH7C/yr7YqoWVjYm5vwbeIgTqB&#xA;8C7D0Ij4YqqJYWP16YfV4qCKLbgv80ntirksLH69MPq8VBFFtwX+aT2xVz2Fj9ehH1eKhil24L/N&#xA;H7Yq57Cx+vQj6vFQxS7cF/mj9sVU72xsRc2AFvEAZ2B+Bdx6Ep8MVV5LCx5xf6NF9o/sL/K3tiqy&#xA;9sLEQrS3iH72L9he8q+2KuvrCxFq5FvEDtvwXxHtirr+wsRY3BFvECInoeC/yn2xVfPYWIgkItoq&#xA;8W/YXw+WKugsLEwRk20VeK/sL4fLFVlhYWJsbcm3iJMSVPBf5R7Yq6xsLE2qE28RO+/BfE+2Kusr&#xA;CxMLVt4j+9l/YXtK3tiq+Owsecv+jRfaH7C/yr7YqoWVjYm5vwbeIgTqB8C7D0Ij4YqqJYWP16Yf&#xA;V4qCKLbgv80ntirksLH69MPq8VBFFtwX+aT2xVz2Fj9ehH1eKhil24L/ADR+2Kuewsfr0I+rxUMU&#xA;u3Bf5o/bFXXFhYia1pbxbymvwL/vp/bFVVrS1RogkKKC5qAoH7De2Krb2CD0V/dr/ew/sj/fq4q6&#xA;+ggFq9I17fsjxGKuv4IBY3JEa19J/wBkfynFXX8EAsbkiNa+k/7I/lOKrLCxtTY25KbmJK7n+Ue+&#xA;KusLG1NjbkpuYkruf5R74q6xsbU2qEpvv3PiffFXWVjamFqp/u2Xue0re+Kr47G15y/B+0O5/lX3&#xA;xVQsrK1Nzfgp0nUDc/74iPjiqolja/Xphw2EUXc/zSe+KuSxtfr0w4bCKLuf5pPfFXPY2v16EcNj&#xA;FL3P80fvirnsbX69COGxil7n+aP3xVTvbK1FzYAJ1nYHc/74lPjiqvJY2vOL4P2j3P8AK3viqy9s&#xA;bUQrRP8AdsXc95V98VdfWNqLVyE327nxHvirr+xtRY3BCbiJyNz/ACn3xVXuIE9CTdvst+23h88V&#xA;dbwJ6Ee7fZX9tvD54qp2EKfUbbdv7pP22/lHvirrGFPqqbt3/bbxPvirrKFPRbdv72b9tv8Afre+&#xA;KqkcCc5d2+0P22/lX3xVD2UKfWb/AHbadf22/wB8Re+KqiQp9em3b+6i/bb+aT3xVyQp9em3b+6i&#xA;/bb+aT3xVzwp9eh3b+6l/bb+aP3xVzwp9eh3b+6l/bb+aP3xV1zCnrWu7f3p/bb/AH0/viqpJAnO&#xA;LdvtH9tv5W98VUr+2jMK1L/3sXSRx/u1fA4qtvrKEWrnlL2/3bKe4/ysVdf2UIsbg8pdon/3bKf2&#xA;T/lYq6/soRY3B5S7RP8A7tlP7J/ysVdYWUJsbc8pd4k/3bKP2R/lYq6wsoTY255S7xJ/u2Ufsj/K&#xA;xVvT7WMWyENJvXrJIe58WxVdZQp6Lbt/ezftt/v1vfFVSOBOcu7faH7bfyr74qh7KFPrN/u206/t&#xA;t/viL3xVUSFPr027f3UX7bfzSe+KuSFPr027f3UX7bfzSe+KueFPr0O7f3Uv7bfzR++KueFPr0O7&#xA;f3Uv7bfzR++Kqd7Cn1mw3bedv22/3xL74qiJIE5xbt9o/tt/K3viqnewp6K7t/ew/tt/v1ffFXX0&#xA;KfVX3bt+23iPfFXX8KfUbndv7p/22/lPviqpcQJ6Em7fZb9tvD54qshs4mhjJaWpVeksgHTwDYqp&#xA;2FlCbG3PKXeJP92yj9kf5WKusbKE2qHlL3/3bKO5/wArFXWVlCYW+KX+9l/3bL/v1v8AKxVfHZQ8&#xA;5fil+0P93S/yr/lYqoWVnCbm/HKXadQP3sv++Ij/ADYqqJZQ/Xphyl/uov8Adsv80n+Virksofr0&#xA;w5S/3UX+7Zf5pP8AKxVz2UP16Ecpf7qX/dsv80f+Virnsofr0I5S/wB1L/u2X+aP/KxV1xZQia1+&#xA;KXeU/wC7Zf8AfT/5WKr5LKHnF8Uv2j/u6X+Vv8rFVl7ZQiFfil/vYv8Adsv+/V/ysVdfWUItXPKX&#xA;t/u2U9x/lYq6/soRY3B5S7RP/u2U/sn/ACsVdf2UIsbg8pdon/3bKf2T/lYqvsI3+o2371v7pOy/&#xA;yj/JxV1hG/1G2/et/dJ2X+Uf5OKusY3+qp+9bv2XxP8Ak4q1aRSGBgJnX97NuAn+/W8VOKtx203O&#xA;X/SpftDtF/Kv+RiqhZW8xub/AP0qUUnWppFv+4i/yMVVEt5vr0w+tS/3UW9Iv5pP8jFXJbzfXph9&#xA;al/uot6RfzSf5GKue3m+vQj61L/dS70i/mj/AMjFXPbzfXoR9al/upd6RfzR/wCRiqne28wubD/S&#xA;pTWdqGkW37iX/IxVXktpucX+lS/aPaL+Vv8AIxVZe28whX/SpT+9i7Rf79X/ACMVdfW8wtX/ANKl&#xA;PTakXiP8jFXX9vMLG4P1qU/un2pF/Kf8jFV89tN6En+lS/ZbtF4f6mKugtpvQj/0qX7K9ovD/UxV&#xA;ZYW8xsbc/WpR+6TakX8o/wAjFXWNvMbVP9KlHXakXif8jFXWVvMYW/0qUfvZe0X+/W/yMVXx203O&#xA;X/SpftDtF/Kv+RiqhZW8xub/AP0qUUnWppFv+4i/yMVVEt5vr0w+tS/3UW9Iv5pP8jFXJbzfXph9&#xA;al/uot6RfzSf5GKue3m+vQj61L/dS70i/mj/AMjFXPbzfXoR9al/upd6RfzR/wCRirri3m9a1/0q&#xA;U1lPaL/fT/5GKr5LabnF/pUv2j2i/lb/ACMVWXtvMIV/0qU/vYu0X+/V/wAjFXX1vMLV/wDSpT02&#xA;pF4j/IxV1/bzCxuD9alP7p9qRfyn/IxV1/bzCxuD9alP7p9qRfyn/IxVJIdA1WSKOaO5oJEBWsjV&#xA;AKqFOyihH2qA02p8lU3sbK5NjbkX84BiTYLBQfCPGLFXWVlcm1Qi/nHXYLB4nxixV1nZXJhal/OP&#xA;3suwWD/freMWKr47K55y/wCnz/aH7MH8q/8AFWKqNnZ3BuL4C+nFJ1BIWDf9xEamsWKr0srn69KP&#xA;r89fSj34wV+1J/xVirksrn69KPr89fSj34wV+1J/xVirnsrn69EPr89fSk34wV+1H/xVirnsrn69&#xA;EPr89fSk34wV+1H/AMVYqsvLO4FxYg305rOwBKwbfuJTUUixVWksrnnF/p8/2j+zB/K3/FWKrLyy&#xA;uRCtb+c/vYtisH+/V8IsVde2VyLVyb+c9NisHiPCLFXX1lcixuCb+cgRPsVgofhPhFiq+eyufQk/&#xA;0+c/CduMHh/xixV0Flc+hH/p84+EbcYPD/jFiqyws7k2VuRfzgGJPhCwUHwjbeLFVSxt5jap/pUo&#xA;67Ui8T/kYq6yt5jC3+lSj97L2i/363+Riq+O2m5y/wClS/aHaL+Vf8jFVCyt5jc3/wDpUopOtTSL&#xA;f9xF/kYqqJbzfXph9al/uot6RfzSf5GKuS3m+vTD61L/AHUW9Iv5pP8AIxVz28316EfWpf7qXekX&#xA;80f+Rirnt5vr0I+tS/3Uu9Iv5o/8jFXXFvN61r/pUprKe0X++n/yMVXyW03OL/SpftHtF/K3+Riq&#xA;y9t5hCv+lSn97F2i/wB+r/kYq6+t5hav/pUp6bUi8R/kYq6/t5hY3B+tSn90+1Iv5T/kYq6/t5hY&#xA;3B+tSn90+1Iv5T/kYq6wS++o29JogPSSn7pv5R/xZirrBL76jb0miA9JKfum/lH/ABZirrFL76ql&#xA;JogN/wDdTeJ/4sxV1kl96LUmi/vZf91N/v1v+LMVXxpfc5f30X2h/upv5V/4sxVQskvvrN/SWKvr&#xA;rX923X0Iv+LMVVES++vTfvoq+lF/upv5pP8AizFXIl99em/fRV9KL/dTfzSf8WYq50vvr0P76Kvp&#xA;S/7qb+aP/izFXOl99eh/fRV9KX/dTfzR/wDFmKqd6l99ZsKyxV9dqfu26+hL/wAWYqryJfc4v30X&#xA;2j/upv5W/wCLMVWXqX3orWaL+9i/3U3+/V/4sxV18l99Ves0RG3+6m8R/wAWYq6/S++o3FZoiPSe&#xA;v7pv5T/xZiq+dL70JKzRU4t/upvD/jJiroEvvQjpNFTiv+6m8P8AjJiqywS++o29JogPSSn7pv5R&#xA;/wAWYq6xS++qpSaIDf8A3U3if+LMVdZJfei1Jov72X/dTf79b/izFV8aX3OX99F9of7qb+Vf+LMV&#xA;ULJL76zf0lir661/dt19CL/izFVREvvr0376KvpRf7qb+aT/AIsxVyJffXpv30VfSi/3U380n/Fm&#xA;KudL769D++ir6Uv+6m/mj/4sxVzpffXof30VfSl/3U380f8AxZirrhL71rWs0X96afum/wB9P/xZ&#xA;iq+RL7nF++i+0f8AdTfyt/xZiqy9S+9FazRf3sX+6m/36v8AxZirr5L76q9ZoiNv91N4j/izFXX6&#xA;X31G4rNER6T1/dN/Kf8AizFXX6X31G4rNER6T1/dN/Kf+LMVdYJffUbek0QHpJT9038o/wCLMVdY&#xA;JffUbek0QHpJT9038o/4sxV1il99VSk0QG/+6m8T/wAWYq6yS+9FqTRf3sv+6m/363/FmKr40vuc&#xA;v76L7Q/3U38q/wDFmKqFkl99Zv6SxV9da/u26+hF/wAWYqqIl99em/fRV9KL/dTfzSf8WYq5Evvr&#xA;0376KvpRf7qb+aT/AIsxVzpffXof30VfSl/3U380f/FmKudL769D++ir6Uv+6m/mj/4sxVTvUvvr&#xA;NhWWKvrtT923X0Jf+LMVV5EvucX76L7R/wB1N/K3/FmKrL1L70VrNF/exf7qb/fq/wDFmKuvkvvq&#xA;r1miI2/3U3iP+LMVdfpffUbis0RHpPX9038p/wCLMVXzpfehJWaKnFv91N4f8ZMVdAl96EdJoqcV&#xA;/wB1N4f8ZMVWWCX31G3pNEB6SU/dN/KP+LMVdYpffVUpNEBv/upvE/8AFmKuskvvRak0X97L/upv&#xA;9+t/xZiq+NL7nL++i+0P91N/Kv8AxZiqhZJffWb+ksVfXWv7tuvoRf8AFmKqiJffXpv30VfSi/3U&#xA;380n/FmKuRL769N++ir6UX+6m/mk/wCLMVc6X316H99FX0pf91N/NH/xZirnS++vQ/voq+lL/upv&#xA;5o/+LMVdcJfeta1mi/vTT903++n/AOLMVXyJfc4v30X2j/upv5W/4sxVZepfeitZov72L/dTf79X&#xA;/izFXXyX31V6zREbf7qbxH/FmKuv0vvqNxWaIj0nr+6b+U/8WYq6/S++o3FZoiPSev7pv5T/AMWY&#xA;q6we++o29IYiPSSn71v5R/xXirrB776jb0hiI9JKfvW/lH/FeKusXvvqqUhiI3/3a3if+K8VdZPf&#xA;ei1IYv72X/drf79b/ivFV8b33OX9zF9of7tb+Vf+K8VULJ776zf0iir661/eN19CL/ivFVRHvvr0&#xA;37mKvpRf7tb+aT/ivFXI999em/cxV9KL/drfzSf8V4q53vvr0P7mKvpS/wC7W/mj/wCK8Vc73316&#xA;H9zFX0pf92t/NH/xXiqnevffWbCsUVfXan7xuvoS/wDFeKq8j33OL9zF9o/7tb+Vv+K8VWXr33or&#xA;WGL+9i/3a3+/V/4rxV18999VesMQG3+7W8R/xXirr9776jcVhiA9J6/vW/lP/FeKr53vvQkrDFTi&#xA;3+7W8P8AjHiroHvvQjpDFTiv+7W8P+MeKrLB776jb0hiI9JKfvW/lH/FeKusXvvqqUhiI3/3a3if&#xA;+K8VdZPfei1IYv72X/drf79b/ivFV8b33OX9zF9of7tb+Vf+K8VULJ776zf0iir661/eN19CL/iv&#xA;FVRHvvr037mKvpRf7tb+aT/ivFXI999em/cxV9KL/drfzSf8V4q53vvr0P7mKvpS/wC7W/mj/wCK&#xA;8Vc73316H9zFX0pf92t/NH/xXirrh771rWsMX96afvW/30//ABXiq+R77nF+5i+0f92t/K3/ABXi&#xA;qy9e+9Fawxf3sX+7W/36v/FeKuvnvvqr1hiA2/3a3iP+K8VdfvffUbisMQHpPX9638p/4rxV1+99&#xA;9RuKwxAek9f3rfyn/ivFXWD331G3pDER6SU/et/KP+K8VdYPffUbekMRHpJT9638o/4rxV1i999V&#xA;SkMRG/8Au1vE/wDFeKusnvvRakMX97L/ALtb/frf8V4qvje+5y/uYvtD/drfyr/xXiqhZPffWb+k&#xA;UVfXWv7xuvoRf8V4qqI999em/cxV9KL/AHa380n/ABXirke++vTfuYq+lF/u1v5pP+K8Vc73316H&#xA;9zFX0pf92t/NH/xXirne++vQ/uYq+lL/ALtb+aP/AIrxVTvXvvrNhWKKvrtT943X0Jf+K8VV5Hvu&#xA;cX7mL7R/3a38rf8AFeKrL1770VrDF/exf7tb/fq/8V4q6+e++qvWGIDb/dreI/4rxV1+999RuKwx&#xA;Aek9f3rfyn/ivFV8733oSVhipxb/AHa3h/xjxV0D33oR0hipxX/dreH/ABjxVZYPffUbekMRHpJT&#xA;9638o/4rxV1i999VSkMRG/8Au1vE/wDFeKusnvvRakMX97L/ALtb/frf8V4qvje+5y/uYvtD/drf&#xA;yr/xXiqlYNc/WL/lGgb11qA5I/uIu/EYqqoZ/r03wLX0ov2j/NJ/k4q5DP8AXpvgWvpRftH+aT/J&#xA;xVzmf69D8C19KX9o/wA0f+TirnM/16H4Fr6Uv7R/mj/ycVdcmf1rX4F/vT+0f99P/k4qqSNPzi+B&#xA;ftH9o/yt/k4qp3pn9FfgX+9h/aP+/V/ycVdfGf6q9UXt+0fEf5OKuvzP9RuaotPSf9o/yn/JxV1+&#xA;Z/qNzVFp6T/tH+U/5OKpBbeZ7qONYUtkcQoiijEsaKNvhB3qOP8ArMPpVTixvbkWNuBYTkCJNw0F&#xA;D8I8ZcVdZXtyLVALCc9dw0HifGXFXWd7ciFqWE5/ey7hoP8AfreMuKr47255y/6BP9oftQfyr/xb&#xA;iqjZ3lwLi+IsZzWdSQGg2/cRChrLiq9L25+vSn6hPX0o9uUFftSf8W4q5L25+vSn6hPX0o9uUFft&#xA;Sf8AFuKue9ufr0R+oT19KTblBX7Uf/FuKue9ufr0R+oT19KTblBX7Uf/ABbiqy8vLg3FiTYzik7E&#xA;AtBv+4lFBSXFVaS9uecX+gT/AGj+1B/K3/FuKrLy9uTCtbCcfvYty0H+/V8JcVde3tybVwbCcdNy&#xA;0HiPCXFXX17cmxuAbCcAxPuWgoPhPhLiq+e9ufQk/wBAnHwnflB4f8ZcVdBe3PoR/wCgTn4Rvyg8&#xA;P+MuKrLG9uRY24FhOQIk3DQUPwjxlxV1le3ItUAsJz13DQeJ8ZcVdZ3tyIWpYTn97LuGg/363jLi&#xA;q+O9uecv+gT/AGh+1B/Kv/FuKqNneXAuL4ixnNZ1JAaDb9xEKGsuKr0vbn69KfqE9fSj25QV+1J/&#xA;xbirkvbn69KfqE9fSj25QV+1J/xbirnvbn69EfqE9fSk25QV+1H/AMW4q5725+vRH6hPX0pNuUFf&#xA;tR/8W4q64vbkzWv+gTikpoOUG/7p/wDi3FV8l7c84v8AQJ/tH9qD+Vv+LcVWXl7cmFa2E4/exblo&#xA;P9+r4S4q69vbk2rg2E46bloPEeEuKuvr25NjcA2E4BifctBQfCfCXFXX17cmxuAbCcAxPuWgoPhP&#xA;hLiqvYSP9Rtv3Tf3Sd1/lH+VirrCR/qNt+6b+6Tuv8o/ysVdYyP9VT903fuvif8AKxV1lI/ot+6b&#xA;+9m7r/v1v8rFVSOR+cv7pvtDuv8AKv8AlYqh7KR/rN/+6b+/Xuv++Iv8rFVRJH+vTfum/uou6/zS&#xA;f5WKuSR/r037pv7qLuv80n+Virnkf69D+6b+6l7r/NH/AJWKueR/r0P7pv7qXuv80f8AlYqo31z/&#xA;AKVYgwyfDO37PX9xKNqHFVaS7+OL9zL9o/s/5Le+KrL27rCv7mX+9i/Z/wCLV98VdfXdbVx6Mo6f&#xA;s+498Vdf3dbG4HoyisT7lf8AJPviq+e7/cSfuZfst+z7fPFXQXf7iP8Acy/ZX9n2+eKrLC7pY249&#xA;GU0iTcL/AJI98VdY3dLVB6Mp6/s+598VdZXdIW/cy/3sv7P/ABa3viq+O7+OX9zL9ofs/wCSvviq&#xA;hZXVLm//AHMu86n7P/FEXviqol3/AKdMfRl/uotuP+VJ74q5Lv8A06Y+jL/dRbcf8qT3xVz3f+nQ&#xA;n0Zf7qXbj/lR++Kue7/06E+jL/dS7cf8qP3xV1xd/vrX9zLtKf2f+Kn98VXyXfxxfuZftH9n/Jb3&#xA;xVZe3dYV/cy/3sX7P/Fq++Kuvrutq49GUdP2fce+Kuv7utjcD0ZRWJ9yv+SffFXX93WxuB6MorE+&#xA;5X/JPvirrC9hFjbjjLtEn+6pT+yP8nFXWF7CLG3HGXaJP91Sn9kf5OKusb2EWqDjL3/3VKe5/wAn&#xA;FXWV7CIW+GX+9l/3VL/v1v8AJxVfHew85fhl+0P90y/yr/k4qoWV5CLm/PGXedSP3Uv++Ih/Liqo&#xA;l7D9emPGX+6i/wB1S/zSf5OKuS9h+vTHjL/dRf7ql/mk/wAnFXPew/XoTxl/upf91S/zR/5OKue9&#xA;h+vQnjL/AHUv+6pf5o/8nFVO9vITc2B4y7TsT+6l/wB8Sj+XFVeS9h5xfDL9o/7pl/lb/JxVZe3s&#xA;JhX4Zf72L/dUv+/V/wAnFXX17CbVxxl7f7qlHcf5OKuv72E2NwOMu8T/AO6pR+yf8nFV897D6Enw&#xA;y/Zb/dMvh/q4q6C9h9CP4Zfsr/umXw/1cVWWF7CLG3HGXaJP91Sn9kf5OKusb2EWqDjL3/3VKe5/&#xA;ycVdZXsIhb4Zf72X/dUv+/W/ycVXx3sPOX4ZftD/AHTL/Kv+TiqhZXkIub88Zd51I/dS/wC+Ih/L&#xA;iqol7D9emPGX+6i/3VL/ADSf5OKuS9h+vTHjL/dRf7ql/mk/ycVc97D9ehPGX+6l/wB1S/zR/wCT&#xA;irnvYfr0J4y/3Uv+6pf5o/8AJxV1xewma1+GXaU/7ql/30/+Tiq+S9h5xfDL9o/7pl/lb/JxVZe3&#xA;sJhX4Zf72L/dUv8Av1f8nFXX17CbVxxl7f7qlHcf5OKuv72E2NwOMu8T/wC6pR+yf8nFXX97CbG4&#xA;HGXeJ/8AdUo/ZP8Ak4q6wvrUWNuC+4iSux/lHtirrC+tRY24L7iJK7H+Ue2Kusb61FqgL779j4n2&#xA;xV1lfWohar/7tl7HvK3tiq+O+tecvx/tDsf5V9sVULK9tRc35L9Z1I2P++Ih4YqqJfWv16Y89jFF&#xA;2P8ANJ7Yq5L61+vTHnsYoux/mk9sVc99a/XoTz2EUvY/zR+2Kue+tfr0J57CKXsf5o/bFVO9vbU3&#xA;NgQ/Sdidj/viUeGKq8l9a84vj/aPY/yt7Yqsvb61MK0f/dsXY9pV9sVdfX1qbVwH327HxHtirr++&#xA;tTY3AD7mJ6bH+U+2Kr5761MEg5/st2Ph8sVdBfWogjHP9lex8PliqywvrUWNuC+4iSux/lHtirrG&#xA;+tRaoC++/Y+J9sVdZX1qIWq/+7Zex7yt7YqvjvrXnL8f7Q7H+VfbFVCyvbUXN+S/WdSNj/viIeGK&#xA;qiX1r9emPPYxRdj/ADSe2KuS+tfr0x57GKLsf5pPbFXPfWv16E89hFL2P80ftirnvrX69Ceewil7&#xA;H+aP2xV1xfWpmtfj6Smux/30/tiq+S+tecXx/tHsf5W9sVWXt9amFaP/ALti7HtKvtirr6+tTauA&#xA;++3Y+I9sVdf31qbG4AfcxPTY/wAp9sVdf31qbG4AfcxPTY/yn2xV1hf2IsbcG4iBESVHNf5R74q6&#xA;wv7EWNuDcRAiJKjmv8o98VdY39iLVAbiIHfbmviffFXWV/YiFq3EQ/ey/tr3lb3xVfHf2POX/SYv&#xA;tD9tf5V98VULK+sRc35NxEAZ1I+Ndx6EQ8cVVEv7H69MfrEVDFFvzX+aT3xVyX9j9emP1iKhii35&#xA;r/NJ74q57+x+vQn6xFQRS781/mj98Vc9/Y/XoT9YioIpd+a/zR++Kqd7fWJubAi4iIE7E/Guw9CU&#xA;eOKq8l/Y84v9Ji+0f21/lb3xVZe39iYVpcRH97F+2vaVffFXX1/Ym1cC4iJ225r4j3xV1/f2Jsbg&#xA;C4iJMT0HNf5T74qvnv7EwSAXMVeLftr4fPFXQX9iIIwbmKvFf218Pniqywv7EWNuDcRAiJKjmv8A&#xA;KPfFXWN/Yi1QG4iB325r4n3xV1lf2IhatxEP3sv7a95W98VXx39jzl/0mL7Q/bX+VffFVCyvrEXN&#xA;+TcRAGdSPjXcehEPHFVRL+x+vTH6xFQxRb81/mk98Vcl/Y/Xpj9YioYot+a/zSe+Kue/sfr0J+sR&#xA;UEUu/Nf5o/fFXPf2P16E/WIqCKXfmv8ANH74q64v7EzWtLiLaU1+Nf8AfT++Kr5L+x5xf6TF9o/t&#xA;r/K3viqy9v7EwrS4iP72L9te0q++Kuvr+xNq4FxETttzXxHvirr+/sTY3AFxESYnoOa/yn3xV1/f&#xA;2JsbgC4iJMT0HNf5T74qhrHXtKWKC1aYidUiRlKSUBZdvi48fxxVGWE8AsbYGRa+kn7Q/lGKusZ4&#xA;BapWRe/7Q8TirrKeD0W/eL/ezftD/frYqqR3EHOX94v2h+0P5VxVD2U8H1m//eLvOtNx/viLFVRJ&#xA;4Pr0x9RaelF+0P5pMVck8H16Y+otPSi/aH80mKueeD69CfUWnpS/tD+aPFXPPB9ehPqLT0pf2h/N&#xA;HiqnezwfWbD94u07V3H++JcVRElxBzi/eL9o/tD+VsVU72eD0V/eL/ew/tD/AH6uKuvp4DavSRe3&#xA;7Q8Rirr+eA2NyBItfSf9ofynFVS4uIPQk/eL9lv2h4Yq63uIPQj/AHi/ZX9oeGKqdhPALG2BkWvp&#xA;J+0P5RirrGeAWqVkXv8AtDxOKusp4PRb94v97N+0P9+tiqpHcQc5f3i/aH7Q/lXFUPZTwfWb/wDe&#xA;LvOtNx/viLFVRJ4Pr0x9RaelF+0P5pMVck8H16Y+otPSi/aH80mKueeD69CfUWnpS/tD+aPFXPPB&#xA;9ehPqLT0pf2h/NHirrmeD1rX94v96f2h/vp8VVJLiDnF+8X7R/aH8rYqp3s8Hor+8X+9h/aH+/Vx&#xA;V19PAbV6SL2/aHiMVdfzwGxuQJFr6T/tD+U4q6/ngNjcgSLX0n/aH8pxVBWugaZKttePGTPwjYfE&#xA;QtQij7I23C74qjbCCA2NsTGtfST9kfyjFXWMEBtUrGvf9keJxV1lBB6Lfu1/vZv2R/v1sVVI7eDn&#xA;L+7X7Q/ZH8q4qh7KCD6zf/u12nWmw/3xFiqokEH16YemtPSi/ZH80mKuSCD69MPTWnpRfsj+aTFX&#xA;PBB9ehHprT0pf2R/NHirngg+vQj01p6Uv7I/mjxVTvYIPrNh+7Xedq7D/fEuKoiS3g5xfu1+0f2R&#xA;/K2Kqd7BB6K/u1/vYf2R/v1cVdfQQC1eka9v2R4jFVuo2lq1jcFoYyVifiSo2+E+2Krp7CxEEhFt&#xA;FXi37C+HyxV0FhYmCMm2irxX9hfD5YqssLCxNjbk28RJiSp4L/KPbFXWNhYm1Qm3iJ334L4n2xV1&#xA;lYWJhatvEf3sv7C9pW9sVXx2Fjzl/wBGi+0P2F/lX2xVQsrGxNzfg28RAnUD4F2HoRHwxVUSwsfr&#xA;0w+rxUEUW3Bf5pPbFXJYWP16YfV4qCKLbgv80ntirnsLH69CPq8VDFLtwX+aP2xVz2Fj9ehH1eKh&#xA;il24L/NH7Yq64sLETWtLeLeU1+Bf99P7YqvksLHnF/o0X2j+wv8AK3tiqy9sLEQrS3iH72L9he8q&#xA;+2KuvrCxFq5FvEDtvwXxHtirr+wsRY3BFvECInoeC/yn2xV1/YWIsbgi3iBET0PBf5T7Yq6wsLE2&#xA;NuTbxEmJKngv8o9sVdYWFibG3Jt4iTElTwX+Ue2KusbCxNqhNvETvvwXxPtirrKwsTC1beI/vZf2&#xA;F7St7YqvjsLHnL/o0X2h+wv8q+2KqFlY2Jub8G3iIE6gfAuw9CI+GKqiWFj9emH1eKgii24L/NJ7&#xA;Yq5LCx+vTD6vFQRRbcF/mk9sVc9hY/XoR9XioYpduC/zR+2Kuewsfr0I+rxUMUu3Bf5o/bFVO9sb&#xA;EXNgBbxAGdgfgXcehKfDFVeSwsecX+jRfaP7C/yt7YqsvbCxEK0t4h+9i/YXvKvtirr6wsRauRbx&#xA;A7b8F8R7Yq6/sLEWNwRbxAiJ6Hgv8p9sVXz2FiIJCLaKvFv2F8PliroLCxMEZNtFXiv7C+HyxVZY&#xA;WFibG3Jt4iTElTwX+Ue2KusbCxNqhNvETvvwXxPtirrKwsTC1beI/vZf2F7St7YqvjsLHnL/AKNF&#xA;9ofsL/KvtiqhZWNibm/Bt4iBOoHwLsPQiPhiqolhY/Xph9XioIotuC/zSe2KuSwsfr0w+rxUEUW3&#xA;Bf5pPbFXPYWP16EfV4qGKXbgv80ftirnsLH69CPq8VDFLtwX+aP2xV1xYWImtaW8W8pr8C/76f2x&#xA;VUays0kiKwRqeR3CKP2W9sVavYIPRX92v97D+yP9+rirr6CAWr0jXt+yPEYq6/ggFjckRrX0n/ZH&#xA;8pxV1/BALG5IjWvpP+yP5TiqywsbU2NuSm5iSu5/lHvirrCxtTY25KbmJK7n+Ue+KusbG1NqhKb7&#xA;9z4n3xV1lY2phaqf7tl7ntK3viq+OxtecvwftDuf5V98VULKytTc34KdJ1A3P++Ij44qqJY2v16Y&#xA;cNhFF3P80nvirksbX69MOGwii7n+aT3xVz2Nr9ehHDYxS9z/ADR++Kuextfr0I4bGKXuf5o/fFVO&#xA;9srUXNgAnWdgdz/viU+OKq8lja84vg/aPc/yt74qsvbG1EK0T/dsXc95V98VdfWNqLVyE327nxHv&#xA;irr+xtRY3BCbiJ6bn+U++Kq01tEtvIF5KArbBmp0+eKt28CehHu32V/bbw+eKqdhCn1G23b+6T9t&#xA;v5R74q6xhT6qm7d/228T74q6yhT0W3b+9m/bb/fre+KqkcCc5d2+0P22/lX3xVD2UKfWb/dtp1/b&#xA;b/fEXviqokKfXpt2/uov22/mk98VckKfXpt2/uov22/mk98Vc8KfXod2/upf22/mj98Vc8KfXod2&#xA;/upf22/mj98Vdcwp61ru396f22/30/viqpJAnOLdvtH9tv5W98VU76BPQXd95Yh9t/8Afq++KrL6&#xA;yhFq55S9v92ynuP8rFXX9lCLG4PKXaJ/92yn9k/5WKuv7KEWNweUu0T/AO7ZT+yf8rFXWFlCbG3P&#xA;KXeJP92yj9kf5WKusLKE2NueUu8Sf7tlH7I/ysVdYWcX1aNuUld/92yU6ntyxVfZQp6Lbt/ezftt&#xA;/v1vfFVSOBOcu7faH7bfyr74qh7KFPrN/u206/tt/viL3xVUSFPr027f3UX7bfzSe+KuSFPr027f&#xA;3UX7bfzSe+KueFPr0O7f3Uv7bfzR++KueFPr0O7f3Uv7bfzR++Kqd7Cn1mw3bedv22/3xL74qiJI&#xA;E5xbt9o/tt/K3viqnewp6K7t/ew/tt/v1ffFXX0KfVX3bt+23iPfFXX8KfUbndv7p/22/lPviqpc&#xA;QJ6Em7fZb9tvD54qtitYngiq0goo6SSL2HgwxVSsLKE2NueUu8Sf7tlH7I/ysVdY2UJtUPKXv/u2&#xA;Udz/AJWKusrKEwt8Uv8Aey/7tl/363+Viq+Oyh5y/FL9of7ul/lX/KxVQsrOE3N+OUu06gfvZf8A&#xA;fER/mxVUSyh+vTDlL/dRf7tl/mk/ysVcllD9emHKX+6i/wB2y/zSf5WKueyh+vQjlL/dS/7tl/mj&#xA;/wArFXPZQ/XoRyl/upf92y/zR/5WKuuLKETWvxS7yn/dsv8Avp/8rFV8llDzi+KX7R/3dL/K3+Vi&#xA;qy9soRCvxS/3sX+7Zf8Afq/5WKuvrKEWrnlL2/3bKe4/ysVdf2UIsbg8pdon/wB2yn9k/wCVirr+&#xA;yhFjcHlLtE/+7ZT+yf8AKxVfYRv9Rtv3rf3Sdl/lH+TirrCN/qNt+9b+6Tsv8o/ycVdYxv8AVU/e&#xA;t37L4n/JxV1lG/ot+9b+9m7L/v1v8nFXJbzGSX/SpR8fYRfyr/kYqoWVvMbm/wD9KlFJ1qaRb/uI&#xA;v8jFVRLeb69MPrUv91FvSL+aT/IxVyW8316YfWpf7qLekX80n+Rirnt5vr0I+tS/3Uu9Iv5o/wDI&#xA;xVz28316EfWpf7qXekX80f8AkYqp3tvMLmw/0qU1nahpFt+4l/yMVV5LabnF/pUv2j2i/lb/ACMV&#xA;WXtvMIV/0qU/vYu0X+/V/wAjFXX1vMLV/wDSpT02pF4j/IxV1/bzCxuD9alP7p9qRfyn/IxVfPbT&#xA;ehJ/pUv2W7ReH+piroLab0I/9Kl+yvaLw/1MVWWFvMbG3P1qUfuk2pF/KP8AIxV1jbzG1T/SpR12&#xA;pF4n/IxV1lbzGFv9KlH72XtF/v1v8jFV8dtNzl/0qX7Q7Rfyr/kYqoWVvMbm/wD9KlFJ1qaRb/uI&#xA;v8jFVRLeb69MPrUv91FvSL+aT/IxVyW8316YfWpf7qLekX80n+Rirnt5vr0I+tS/3Uu9Iv5o/wDI&#xA;xVz28316EfWpf7qXekX80f8AkYq64t5vWtf9KlNZT2i/30/+Riq+S2m5xf6VL9o9ov5W/wAjFVl7&#xA;bzCFf9KlP72LtF/v1f8AIxV19bzC1f8A0qU9NqReI/yMVdf28wsbg/WpT+6fakX8p/yMVdf28wsb&#xA;g/WpT+6fakX8p/yMVSa10HVC0E8d43ot6UlGkblTgtRxA4bHp9GKprY2VybG3Iv5wDEmwWCg+EeM&#xA;WKusrK5NqhF/OOuwWDxPjFirrOyuTC1L+cfvZdgsH+/W8YsVXx2Vzzl/0+f7Q/Zg/lX/AIqxVRs7&#xA;O4NxfAX04pOoJCwb/uIjU1ixVellc/XpR9fnr6Ue/GCv2pP+KsVcllc/XpR9fnr6Ue/GCv2pP+Ks&#xA;Vc9lc/Xoh9fnr6Um/GCv2o/+KsVc9lc/Xoh9fnr6Um/GCv2o/wDirFVl5Z3AuLEG+nNZ2AJWDb9x&#xA;KaikWKq0llc84v8AT5/tH9mD+Vv+KsVWXllciFa385/exbFYP9+r4RYq69srkWrk3856bFYPEeEW&#xA;KuvrK5FjcE385AifYrBQ/CfCLFV89lc+hJ/p85+E7cYPD/jFiroLK59CP/T5x8I24weH/GLFVljZ&#xA;XJsbci/nAMSbBYKD4R4xYqvsLab6pH/pcvftF/Mf8jFW7K3mMLf6VKP3svaL/frf5GKr47abnL/p&#xA;Uv2h2i/lX/IxVQsreY3N/wD6VKKTrU0i3/cRf5GKqiW8316YfWpf7qLekX80n+Rirkt5vr0w+tS/&#xA;3UW9Iv5pP8jFXPbzfXoR9al/upd6RfzR/wCRirnt5vr0I+tS/wB1LvSL+aP/ACMVdcW83rWv+lSm&#xA;sp7Rf76f/IxVfJbTc4v9Kl+0e0X8rf5GKrL23mEK/wClSn97F2i/36v+Rirr63mFq/8ApUp6bUi8&#xA;R/kYq6/t5hY3B+tSn90+1Iv5T/kYq6/t5hY3B+tSn90+1Iv5T/kYq6wS++o29JogPSSn7pv5R/xZ&#xA;irrBL76jb0miA9JKfum/lH/FmKusUvvqqUmiA3/3U3if+LMVdZJfei1Jov72X/dTf79b/izFV8aX&#xA;3OX99F9of7qb+Vf+LMVULJL76zf0lir661/dt19CL/izFVREvvr0376KvpRf7qb+aT/izFXIl99e&#xA;m/fRV9KL/dTfzSf8WYq50vvr0P76KvpS/wC6m/mj/wCLMVc6X316H99FX0pf91N/NH/xZiqnepff&#xA;WbCssVfXan7tuvoS/wDFmKq8iX3OL99F9o/7qb+Vv+LMVWXqX3orWaL+9i/3U3+/V/4sxV18l99V&#xA;es0RG3+6m8R/xZirr9L76jcVmiI9J6/um/lP/FmKr50vvQkrNFTi3+6m8P8AjJiroEvvQjpNFTiv&#xA;+6m8P+MmKrLBL76jb0miA9JKfum/lH/FmKusUvvqqUmiA3/3U3if+LMVdZJfei1Jov72X/dTf79b&#xA;/izFV8aX3OX99F9of7qb+Vf+LMVULJL76zf0lir661/dt19CL/izFVREvvr0376KvpRf7qb+aT/i&#xA;zFXIl99em/fRV9KL/dTfzSf8WYq50vvr0P76KvpS/wC6m/mj/wCLMVc6X316H99FX0pf91N/NH/x&#xA;ZirrhL71rWs0X96afum/30//ABZiq+RL7nF++i+0f91N/K3/ABZiqy9S+9FazRf3sX+6m/36v/Fm&#xA;Kuvkvvqr1miI2/3U3iP+LMVdfpffUbis0RHpPX9038p/4sxV1+l99RuKzREek9f3Tfyn/izFXWCX&#xA;31G3pNEB6SU/dN/KP+LMVdYJffUbek0QHpJT9038o/4sxV1il99VSk0QG/8AupvE/wDFmKuskvvR&#xA;ak0X97L/ALqb/frf8WYqvjS+5y/vovtD/dTfyr/xZiqhZJffWb+ksVfXWv7tuvoRf8WYqqIl99em&#xA;/fRV9KL/AHU380n/ABZirkS++vTfvoq+lF/upv5pP+LMVc6X316H99FX0pf91N/NH/xZirnS++vQ&#xA;/voq+lL/ALqb+aP/AIsxVTvUvvrNhWWKvrtT923X0Jf+LMVV5EvucX76L7R/3U38rf8AFmKrL1L7&#xA;0VrNF/exf7qb/fq/8WYq6+S++qvWaIjb/dTeI/4sxV1+l99RuKzREek9f3Tfyn/izFV86X3oSVmi&#xA;pxb/AHU3h/xkxV0CX3oR0mipxX/dTeH/ABkxVZYJffUbek0QHpJT9038o/4sxV1il99VSk0QG/8A&#xA;upvE/wDFmKuskvvRak0X97L/ALqb/frf8WYqvjS+5y/vovtD/dTfyr/xZiqhZJffWb+ksVfXWv7t&#xA;uvoRf8WYqqIl99em/fRV9KL/AHU380n/ABZirkS++vTfvoq+lF/upv5pP+LMVc6X316H99FX0pf9&#xA;1N/NH/xZirnS++vQ/voq+lL/ALqb+aP/AIsxV1wl961rWaL+9NP3Tf76f/izFV8iX3OL99F9o/7q&#xA;b+Vv+LMVWXqX3orWaL+9i/3U3+/V/wCLMVdfJffVXrNERt/upvEf8WYq6/S++o3FZoiPSev7pv5T&#xA;/wAWYq6/S++o3FZoiPSev7pv5T/xZirrB776jb0hiI9JKfvW/lH/ABXirrB776jb0hiI9JKfvW/l&#xA;H/FeKusXvvqqUhiI3/3a3if+K8VdZPfei1IYv72X/drf79b/AIrxVfG99zl/cxfaH+7W/lX/AIrx&#xA;VQsnvvrN/SKKvrrX943X0Iv+K8VVEe++vTfuYq+lF/u1v5pP+K8Vcj3316b9zFX0ov8AdrfzSf8A&#xA;FeKud7769D+5ir6Uv+7W/mj/AOK8Vc73316H9zFX0pf92t/NH/xXiqnevffWbCsUVfXan7xuvoS/&#xA;8V4qryPfc4v3MX2j/u1v5W/4rxVZevfeitYYv72L/drf79X/AIrxV18999VesMQG3+7W8R/xXirr&#xA;9776jcVhiA9J6/vW/lP/ABXiq+d770JKwxU4t/u1vD/jHiroHvvQjpDFTiv+7W8P+MeKrLB776jb&#xA;0hiI9JKfvW/lH/FeKusXvvqqUhiI3/3a3if+K8VdZPfei1IYv72X/drf79b/AIrxVfG99zl/cxfa&#xA;H+7W/lX/AIrxVQsnvvrN/SKKvrrX943X0Iv+K8VVEe++vTfuYq+lF/u1v5pP+K8Vcj3316b9zFX0&#xA;ov8AdrfzSf8AFeKud7769D+5ir6Uv+7W/mj/AOK8Vc73316H9zFX0pf92t/NH/xXirrh771rWsMX&#xA;96afvW/30/8AxXiq+R77nF+5i+0f92t/K3/FeKrL1770VrDF/exf7tb/AH6v/FeKuvnvvqr1hiA2&#xA;/wB2t4j/AIrxV1+999RuKwxAek9f3rfyn/ivFXX7331G4rDEB6T1/et/Kf8AivFXWD331G3pDER6&#xA;SU/et/KP+K8VdYPffUbekMRHpJT9638o/wCK8VdYvffVUpDERv8A7tbxP/FeKusnvvRakMX97L/u&#xA;1v8Afrf8V4qvje+5y/uYvtD/AHa38q/8V4qoWT331m/pFFX11r+8br6EX/FeKqiPffXpv3MVfSi/&#xA;3a380n/FeKuR7769N+5ir6UX+7W/mk/4rxVzvffXof3MVfSl/wB2t/NH/wAV4q53vvr0P7mKvpS/&#xA;7tb+aP8A4rxVTvXvvrNhWKKvrtT943X0Jf8AivFVeR77nF+5i+0f92t/K3/FeKrL1770VrDF/exf&#xA;7tb/AH6v/FeKuvnvvqr1hiA2/wB2t4j/AIrxV1+999RuKwxAek9f3rfyn/ivFV8733oSVhipxb/d&#xA;reH/ABjxV0D33oR0hipxX/dreH/GPFVlg999Rt6QxEeklP3rfyj/AIrxV1i999VSkMRG/wDu1vE/&#xA;8V4q6ye+9FqQxf3sv+7W/wB+t/xXiq+N77nL+5i+0P8Adrfyr/xXiqjYNd/Wr/lHGP361pITv6EX&#xA;+QMVVkM/16b4Fr6UX7R/mk/ycVchn+vTfAtfSi/aP80n+TirnM/16H4Fr6Uv7R/mj/ycVc5n+vQ/&#xA;AtfSl/aP80f+Tirrkz+ta/Av96f2j/vp/wDJxVUkafnF8C/aP7R/lb/JxVTvTP6K/Av97D+0f9+r&#xA;/k4q6+M/1V6ovb9o+I/ycVdfmf6jc1Raek/7R/lP+Tirr8z/AFG5qi09J/2j/Kf8nFUnt9dvYmtr&#xA;YWp48YVWMhebBlAqrBytTuRWmynfrRVMbG9uRY24FhOQIk3DQUPwjxlxV1le3ItUAsJz13DQeJ8Z&#xA;cVdZ3tyIWpYTn97LuGg/363jLiq+O9uecv8AoE/2h+1B/Kv/ABbiqjZ3lwLi+IsZzWdSQGg2/cRC&#xA;hrLiq9L25+vSn6hPX0o9uUFftSf8W4q5L25+vSn6hPX0o9uUFftSf8W4q5725+vRH6hPX0pNuUFf&#xA;tR/8W4q5725+vRH6hPX0pNuUFftR/wDFuKrLy8uDcWJNjOKTsQC0G/7iUUFJcVVpL255xf6BP9o/&#xA;tQfyt/xbiqy8vbkwrWwnH72LctB/v1fCXFXXt7cm1cGwnHTctB4jwlxV19e3JsbgGwnAMT7loKD4&#xA;T4S4qvnvbn0JP9AnHwnflB4f8ZcVdBe3PoR/6BOfhG/KDw/4y4qssb25FjbgWE5AiTcNBQ/CPGXF&#xA;XWV7ci1QCwnPXcNB4nxlxV1ne3IhalhOf3su4aD/AH63jLiq+O9uecv+gT/aH7UH8q/8W4qo2d5c&#xA;C4viLGc1nUkBoNv3EQoay4qvS9ufr0p+oT19KPblBX7Un/FuKuS9ufr0p+oT19KPblBX7Un/ABbi&#xA;rnvbn69EfqE9fSk25QV+1H/xbirnvbn69EfqE9fSk25QV+1H/wAW4q64vbkzWv8AoE4pKaDlBv8A&#xA;un/4txVfJe3POL/QJ/tH9qD+Vv8Ai3FVl5e3JhWthOP3sW5aD/fq+EuKuvb25Nq4NhOOm5aDxHhL&#xA;irr69uTY3ANhOAYn3LQUHwnwlxV19e3JsbgGwnAMT7loKD4T4S4qr2Ej/Ubb90390ndf5R/lYq6w&#xA;kf6jbfum/uk7r/KP8rFXWMj/AFVP3Td+6+J/ysVdZSP6Lfum/vZu6/79b/KxVUjkfnL+6b7Q7r/K&#xA;v+ViqHspH+s3/wC6b+/Xuv8AviL/ACsVVEkf69N+6b+6i7r/ADSf5WKuSR/r037pv7qLuv8ANJ/l&#xA;Yq55H+vQ/um/upe6/wA0f+Virnkf69D+6b+6l7r/ADR/5WKqV/OVubCsT/37HYA/7olHYnFVWS6J&#xA;eP8AcS7NU/D/AJJ98VWXt3WFf3Mv97F+z/xavvirr67rauPRlHT9n3Hvirr+7rY3A9GUVifcr/kn&#xA;3xVfPd/uJP3Mv2W/Z9vniroLv9xH+5l+yv7Pt88VWWF3Sxtx6MppEm4X/JHvirrG7paoPRlPX9n3&#xA;PvirrK7pC37mX+9l/Z/4tb3xVfHd/HL+5l+0P2f8lffFVCyuqXN/+5l3nU/Z/wCKIvfFVRLv/Tpj&#xA;6Mv91Ftx/wAqT3xVyXf+nTH0Zf7qLbj/AJUnvirnu/8AToT6Mv8AdS7cf8qP3xVz3f8Ap0J9GX+6&#xA;l24/5Ufvirri7/fWv7mXaU/s/wDFT++Kr5Lv44v3Mv2j+z/kt74qsvbusK/uZf72L9n/AItX3xV1&#xA;9d1tXHoyjp+z7j3xV1/d1sbgejKKxPuV/wAk++Kuv7utjcD0ZRWJ9yv+SffFXWF7CLG3HGXaJP8A&#xA;dUp/ZH+TirrC9hFjbjjLtEn+6pT+yP8AJxV1jewi1QcZe/8AuqU9z/k4q6yvYRC3wy/3sv8AuqX/&#xA;AH63+Tiq+O9h5y/DL9of7pl/lX/JxVQsryEXN+eMu86kfupf98RD+XFVRL2H69MeMv8AdRf7ql/m&#xA;k/ycVcl7D9emPGX+6i/3VL/NJ/k4q572H69CeMv91L/uqX+aP/JxVz3sP16E8Zf7qX/dUv8ANH/k&#xA;4qp3t5CbmwPGXadif3Uv++JR/LiqvJfRc4vhl+0a/upf5T/k4qqXxIsrhgaERuQe4IUkZgdqyMdJ&#xA;lINEY5/7kqUkto4ZLITSai8c9GJQydCCabVrnn2hw4smkGWerljzVL0+Jyomtr4u5irx6lI+mJDM&#xA;rSz3AeNOPUrSnL8c2/Z3tJkhpcYyRllzZCREDnIDqfu+Cgr7vV3ezuFVGguIioZGodiaY9oe0s5a&#xA;bKICWHPjMbBo7Ej8cltE2d7cOsKNauFKqDLtx6dds23Zva2oyjHGWGfqAue1cvq+KQUfnRpcAFFA&#xA;KDwGKqdvEYkKk1q7t/wblv44qtaaOF2DByXPL4Y3YdAOqgjtiqDsryEXN+eMu86kfupf98RD+XFV&#xA;RL2H69MeMv8AdRf7ql/mk/ycVcl7D9emPGX+6i/3VL/NJ/k4q572H69CeMv91L/uqX+aP/JxVz3s&#xA;P16E8Zf7qX/dUv8ANH/k4q64vYTNa/DLtKf91S/76f8AycVXyXsPOL4ZftH/AHTL/K3+Tiqy9vYT&#xA;Cvwy/wB7F/uqX/fq/wCTirr69hNq44y9v91SjuP8nFXX97CbG4HGXeJ/91Sj9k/5OKuv72E2NwOM&#xA;u8T/AO6pR+yf8nFXWF9aixtwX3ESV2P8o9sVdYX1qLG3BfcRJXY/yj2xV1jfWotUBfffsfE+2Kus&#xA;r61ELVf/AHbL2PeVvbFV8d9a85fj/aHY/wAq+2KqFle2oub8l+s6kbH/AHxEPDFVRL61+vTHnsYo&#xA;ux/mk9sVcl9a/Xpjz2MUXY/zSe2Kue+tfr0J57CKXsf5o/bFXPfWv16E89hFL2P80ftiqne3tqbm&#xA;wIfpOxOx/wB8SjwxVXkvrXnF8f7R7H+VvbFW7meKezuFiPNvTYBQDUkggUzA7VgZaXLGIsnHMADr&#xA;6SpQFrpcB0nlNBS44v1BDVqeO33ZyfZ/s/hl2beTF+/4Z8wRK7lw7c+6mIGyFBv47e0jkWdYByEg&#xA;jBD/AGjQfd0zUA63HgwQyDPHCOLi4LEvqND5VQPTkhYLG4k+uenBIisgMYkBqaMp6nvTKB2Tny/m&#xA;ODFkjGUAY8YNmpRPM85EWa79lpFW5nu7uypA8a2q0kZxQVp2+7Nvo5ZtZqdNWKcI6ePqMhQ5fs9/&#xA;lslPOuehMnVr0xV2KqUt1BE3F2oaVpQn9WKoKyvbUXN+S/WdSNj/AL4iHhiqol9a/Xpjz2MUXY/z&#xA;Se2KuS+tfr0x57GKLsf5pPbFXPfWv16E89hFL2P80ftirnvrX69Ceewil7H+aP2xV1xfWpmtfj6S&#xA;mux/30/tiq+S+tecXx/tHsf5W9sVWXt9amFaP/u2Lse0q+2Kuvr61Nq4D77dj4j2xV1/fWpsbgB9&#xA;zE9Nj/KfbFXX99amxuAH3MT02P8AKfbFXWF/YixtwbiIERJUc1/lHvirrC/sRY24NxECIkqOa/yj&#xA;3xV1jf2ItUBuIgd9ua+J98VdZX9iIWrcRD97L+2veVvfFV8d/Y85f9Ji+0P21/lX3xVQsr6xFzfk&#xA;3EQBnUj413HoRDxxVUS/sfr0x+sRUMUW/Nf5pPfFXJf2P16Y/WIqGKLfmv8ANJ74q57+x+vQn6xF&#xA;QRS781/mj98Vc9/Y/XoT9YioIpd+a/zR++Kqd7fWJubAi4iIE7E/Guw9CUeOKq8l/Y84v9Ji+0f2&#xA;1/lb3xVZe39iYVpcRH97F+2vaVffFXX1/Ym1cC4iJ225r4j3xV1/f2JsbgC4iJMT0HNf5T74qvnv&#xA;7EwSAXMVeLftr4fPFXQX9iIIwbmKvFf218Pniqywv7EWNuDcRAiJKjmv8o98VdY39iLVAbiIHfbm&#xA;viffFV8OqWMiFjPEtGdaeov7LFa/TSuKtpqNkWcG5ioGovxr04g+OKoeyvrEXN+TcRAGdSPjXceh&#xA;EPHFVRL+x+vTH6xFQxRb81/mk98Vcl/Y/Xpj9YioYot+a/zSe+Kue/sfr0J+sRUEUu/Nf5o/fFXP&#xA;f2P16E/WIqCKXfmv80fvirri/sTNa0uItpTX41/30/viq+S/secX+kxfaP7a/wAre+KrL2/sTCtL&#xA;iI/vYv217Sr74q6+v7E2rgXERO23NfEe+Kuv7+xNjcAXERJieg5r/KffFXX9/YmxuALiIkxPQc1/&#xA;lPvirrC/sRY24NxECIkqOa/yj3xV1hf2IsbcG4iBESVHNf5R74q6xv7EWqA3EQO+3NfE++Kusr+x&#xA;ELVuIh+9l/bXvK3viq+O/secv+kxfaH7a/yr74qlGjXEkWoXBnu4zAAyyVlU8paqVbcn/dfcbUoO&#xA;ooFU0S/sfr0x+sRUMUW/Nf5pPfFXJf2P16Y/WIqGKLfmv80nvirnv7H69CfrEVBFLvzX+aP3xVz3&#xA;9j9ehP1iKgil35r/ADR++KpNrU902oxPa3iegWHFRKg3CNyC1+yStaHb54qnK31qEtxLdQtKKeoQ&#xA;605cDU/firr2/sTCtLiI/vYv217Sr74q6+v7E2rgXERO23NfEe+Kuv7+xNjcAXERJieg5r/KffFU&#xA;Lrlyk1mBa3aK6klwkqqSnFgR9ofrxV2h3ZjtHF7dRFzITEPVVgI+KgAEmtK1pXfFUVYX9iLG3BuI&#xA;gRElRzX+Ue+Kusb+xFqgNxEDvtzXxPvirrK/sRC1biIfvZf217yt74q1Jf2npXQjuY/UNeHGRAa8&#xA;BShao6+OKpLpU96mpIZb1Dbxml2TJGOb+iKHbrsUHXsfpVTtL+x+vTH6xFQxRb81/mk98Vcl/Y/X&#xA;pj9YioYot+a/zSe+Kue/sfr0J+sRUEUu/Nf5o/fFXPf2P16E/WIqCKXfmv8ANH74qk2qTXDal6kV&#xA;4PRZuMMYmQD+6JZkIYcSaMvxbV+eyqcRX1uIbUT3ULTqB6zB1oW9M8j9+Kt3t/YmFaXER/exftr2&#xA;lX3xV19f2JtXAuIidtua+I98Vdf39ibG4AuIiTE9BzX+U++Kuv7+xNjcAXERJieg5r/KffFX/9k=</xmpGImg:image>
               </rdf:li>
            </rdf:Alt>
         </xmp:Thumbnails>
         <xmpTPg:MaxPageSize rdf:parseType="Resource">
            <stDim:w>300.000000</stDim:w>
            <stDim:h>300.000000</stDim:h>
            <stDim:unit>Pixels</stDim:unit>
         </xmpTPg:MaxPageSize>
         <xmpTPg:NPages>1</xmpTPg:NPages>
         <xmpTPg:HasVisibleTransparency>False</xmpTPg:HasVisibleTransparency>
         <xmpTPg:HasVisibleOverprint>False</xmpTPg:HasVisibleOverprint>
         <xmpTPg:PlateNames>
            <rdf:Seq>
               <rdf:li>Cyan</rdf:li>
               <rdf:li>Magenta</rdf:li>
               <rdf:li>Yellow</rdf:li>
               <rdf:li>Black</rdf:li>
            </rdf:Seq>
         </xmpTPg:PlateNames>
         <xmpTPg:SwatchGroups>
            <rdf:Seq>
               <rdf:li rdf:parseType="Resource">
                  <xmpG:groupName>Grupo de amostras padrão</xmpG:groupName>
                  <xmpG:groupType>0</xmpG:groupType>
                  <xmpG:Colorants>
                     <rdf:Seq>
                        <rdf:li rdf:parseType="Resource">
                           <xmpG:swatchName>R=165 G=164 B=164</xmpG:swatchName>
                           <xmpG:type>PROCESS</xmpG:type>
                           <xmpG:tint>100.000000</xmpG:tint>
                           <xmpG:mode>RGB</xmpG:mode>
                           <xmpG:red>165</xmpG:red>
                           <xmpG:green>164</xmpG:green>
                           <xmpG:blue>164</xmpG:blue>
                        </rdf:li>
                     </rdf:Seq>
                  </xmpG:Colorants>
               </rdf:li>
            </rdf:Seq>
         </xmpTPg:SwatchGroups>
         <dc:format>image/svg+xml</dc:format>
         <xmpMM:InstanceID>xmp.iid:a2f404ee-6e53-f94f-b1b8-37a98fec987b</xmpMM:InstanceID>
         <xmpMM:DocumentID>xmp.did:a2f404ee-6e53-f94f-b1b8-37a98fec987b</xmpMM:DocumentID>
         <xmpMM:OriginalDocumentID>xmp.did:8866edee-bcf7-3545-ab02-7c65fedb1202</xmpMM:OriginalDocumentID>
         <xmpMM:DerivedFrom rdf:parseType="Resource">
            <stRef:instanceID>xmp.iid:c29c64c5-4369-fc4f-ae33-6c9e5509ec03</stRef:instanceID>
            <stRef:documentID>xmp.did:c29c64c5-4369-fc4f-ae33-6c9e5509ec03</stRef:documentID>
            <stRef:originalDocumentID>xmp.did:8866edee-bcf7-3545-ab02-7c65fedb1202</stRef:originalDocumentID>
         </xmpMM:DerivedFrom>
         <xmpMM:History>
            <rdf:Seq>
               <rdf:li rdf:parseType="Resource">
                  <stEvt:action>saved</stEvt:action>
                  <stEvt:instanceID>xmp.iid:e9c29c93-e14e-e342-96bc-96c20cd032c4</stEvt:instanceID>
                  <stEvt:when>2025-05-28T11:35:13+01:00</stEvt:when>
                  <stEvt:softwareAgent>Adobe Illustrator 29.1 (Windows)</stEvt:softwareAgent>
                  <stEvt:changed>/</stEvt:changed>
               </rdf:li>
               <rdf:li rdf:parseType="Resource">
                  <stEvt:action>saved</stEvt:action>
                  <stEvt:instanceID>xmp.iid:a2f404ee-6e53-f94f-b1b8-37a98fec987b</stEvt:instanceID>
                  <stEvt:when>2025-05-28T11:41:46+01:00</stEvt:when>
                  <stEvt:softwareAgent>Adobe Illustrator 29.1 (Windows)</stEvt:softwareAgent>
                  <stEvt:changed>/</stEvt:changed>
               </rdf:li>
            </rdf:Seq>
         </xmpMM:History>
      </rdf:Description>
   </rdf:RDF>
</x:xmpmeta>
                                                                                                    
                                                                                                    
                                                                                                    
                                                                                                    
                                                                                                    
                                                                                                    
                                                                                                    
                                                                                                    
                                                                                                    
                                                                                                    
                                                                                                    
                                                                                                    
                                                                                                    
                                                                                                    
                                                                                                    
                                                                                                    
                                                                                                    
                                                                                                    
                                                                                                    
                                                                                                    
                           
<?xpacket end="w"?>
	</metadata>
<g>
	<path fill="#A5A4A4" d="M299.5,0.5v299H0.5V0.5H299.5 M300,0H0v300h300V0L300,0z"/>
</g>
<g>
	<rect x="9.9" y="0" fill="#A5A4A4" width="0.2" height="300"/>
</g>
<g>
	<rect x="19.9" y="0" fill="#A5A4A4" width="0.2" height="300"/>
</g>
<g>
	<rect x="29.9" y="0" fill="#A5A4A4" width="0.2" height="300"/>
</g>
<g>
	<rect x="39.9" y="0" fill="#A5A4A4" width="0.2" height="300"/>
</g>
<g>
	<rect x="49.8" y="0" fill="#A5A4A4" width="0.5" height="291.7"/>
</g>
<g>
	<rect x="59.9" y="0" fill="#A5A4A4" width="0.2" height="300"/>
</g>
<g>
	<rect x="69.9" y="0" fill="#A5A4A4" width="0.2" height="300"/>
</g>
<g>
	<rect x="79.9" y="0" fill="#A5A4A4" width="0.2" height="300"/>
</g>
<g>
	<rect x="89.9" y="0" fill="#A5A4A4" width="0.2" height="300"/>
</g>
<g>
	<rect x="99.8" y="0" fill="#A5A4A4" width="0.5" height="291.7"/>
</g>
<g>
	<rect x="109.9" y="263.4" fill="#A5A4A4" width="0.2" height="36.6"/>
</g>
<g>
	<rect x="109.9" y="0" fill="#A5A4A4" width="0.2" height="261.5"/>
</g>
<g>
	<rect x="119.9" y="281.2" fill="#A5A4A4" width="0.2" height="18.8"/>
</g>
<g>
	<rect x="119.9" y="0" fill="#A5A4A4" width="0.2" height="262.5"/>
</g>
<g>
	<rect x="129.9" y="281.2" fill="#A5A4A4" width="0.2" height="18.8"/>
</g>
<g>
	<rect x="129.9" y="0" fill="#A5A4A4" width="0.2" height="262.6"/>
</g>
<g>
	<rect x="139.9" y="281.4" fill="#A5A4A4" width="0.2" height="18.6"/>
</g>
<g>
	<rect x="139.9" y="0" fill="#A5A4A4" width="0.2" height="266.5"/>
</g>
<g>
	<rect x="149.7" y="281" fill="#A5A4A4" width="0.5" height="10.6"/>
</g>
<g>
	<rect x="149.7" y="0" fill="#A5A4A4" width="0.5" height="263.5"/>
</g>
<g>
	<rect x="159.9" y="281.2" fill="#A5A4A4" width="0.2" height="18.8"/>
</g>
<g>
	<rect x="159.9" y="0" fill="#A5A4A4" width="0.2" height="262.5"/>
</g>
<g>
	<rect x="169.9" y="281.2" fill="#A5A4A4" width="0.2" height="18.8"/>
</g>
<g>
	<rect x="169.9" y="0" fill="#A5A4A4" width="0.2" height="263.1"/>
</g>
<g>
	<rect x="179.9" y="286.1" fill="#A5A4A4" width="0.2" height="13.9"/>
</g>
<g>
	<rect x="179.9" y="0" fill="#A5A4A4" width="0.2" height="267.5"/>
</g>
<g>
	<rect x="189.9" y="284" fill="#A5A4A4" width="0.2" height="16"/>
</g>
<g>
	<rect x="189.9" y="0" fill="#A5A4A4" width="0.2" height="266.8"/>
</g>
<g>
	<rect x="199.8" y="0" fill="#A5A4A4" width="0.5" height="291.7"/>
</g>
<g>
	<rect x="209.9" y="0" fill="#A5A4A4" width="0.2" height="300"/>
</g>
<g>
	<rect x="219.9" y="0" fill="#A5A4A4" width="0.2" height="300"/>
</g>
<g>
	<rect x="229.9" y="0" fill="#A5A4A4" width="0.2" height="300"/>
</g>
<g>
	<rect x="239.9" y="0" fill="#A5A4A4" width="0.2" height="300"/>
</g>
<g>
	<rect x="249.9" y="0" fill="#A5A4A4" width="0.2" height="291.7"/>
</g>
<g>
	<rect x="259.9" y="0" fill="#A5A4A4" width="0.2" height="300"/>
</g>
<g>
	<rect x="269.9" y="0" fill="#A5A4A4" width="0.2" height="300"/>
</g>
<g>
	<rect x="279.9" y="0" fill="#A5A4A4" width="0.2" height="300"/>
</g>
<g>
	<rect x="289.9" y="0" fill="#A5A4A4" width="0.2" height="300"/>
</g>
<g>
	<rect x="0" y="9.9" fill="#A5A4A4" width="300" height="0.2"/>
</g>
<g>
	<rect x="0" y="19.9" fill="#A5A4A4" width="300" height="0.2"/>
</g>
<g>
	<rect x="0" y="29.9" fill="#A5A4A4" width="300" height="0.2"/>
</g>
<g>
	<rect x="0" y="39.9" fill="#A5A4A4" width="300" height="0.2"/>
</g>
<g>
	<rect x="9.6" y="49.8" fill="#A5A4A4" width="290.4" height="0.5"/>
</g>
<g>
	<rect x="0" y="59.9" fill="#A5A4A4" width="300" height="0.2"/>
</g>
<g>
	<rect x="0" y="69.9" fill="#A5A4A4" width="300" height="0.2"/>
</g>
<g>
	<rect x="0" y="79.9" fill="#A5A4A4" width="300" height="0.2"/>
</g>
<g>
	<rect x="0" y="89.9" fill="#A5A4A4" width="300" height="0.2"/>
</g>
<g>
	<rect x="9.5" y="99.8" fill="#A5A4A4" width="290.5" height="0.5"/>
</g>
<g>
	<rect x="0" y="109.9" fill="#A5A4A4" width="300" height="0.2"/>
</g>
<g>
	<rect x="0" y="119.9" fill="#A5A4A4" width="300" height="0.2"/>
</g>
<g>
	<rect x="0" y="129.9" fill="#A5A4A4" width="300" height="0.2"/>
</g>
<g>
	<rect x="0" y="139.9" fill="#A5A4A4" width="300" height="0.2"/>
</g>
<g>
	<rect x="8.8" y="149.8" fill="#A5A4A4" width="291.2" height="0.5"/>
</g>
<g>
	<rect x="0" y="159.9" fill="#A5A4A4" width="300" height="0.2"/>
</g>
<g>
	<rect x="0" y="169.9" fill="#A5A4A4" width="300" height="0.2"/>
</g>
<g>
	<rect x="0" y="179.9" fill="#A5A4A4" width="300" height="0.2"/>
</g>
<g>
	<rect x="0" y="189.9" fill="#A5A4A4" width="300" height="0.2"/>
</g>
<g>
	<rect x="8.9" y="199.8" fill="#A5A4A4" width="291.1" height="0.5"/>
</g>
<g>
	<rect x="0" y="209.9" fill="#A5A4A4" width="300" height="0.2"/>
</g>
<g>
	<rect x="0" y="219.9" fill="#A5A4A4" width="300" height="0.2"/>
</g>
<g>
	<rect x="0" y="229.9" fill="#A5A4A4" width="300" height="0.2"/>
</g>
<g>
	<rect x="0" y="239.9" fill="#A5A4A4" width="300" height="0.2"/>
</g>
<g>
	<rect x="8.4" y="249.8" fill="#A5A4A4" width="291.6" height="0.5"/>
</g>
<g>
	<rect x="0" y="259.9" fill="#A5A4A4" width="300" height="0.2"/>
</g>
<g>
	<rect x="0" y="269.9" fill="#A5A4A4" width="112.7" height="0.2"/>
</g>
<g>
	<rect x="191" y="270" fill="#A5A4A4" width="109" height="0.2"/>
</g>
<g>
	<rect x="0" y="279.9" fill="#A5A4A4" width="117.7" height="0.2"/>
</g>
<g>
	<rect x="191" y="280" fill="#A5A4A4" width="109" height="0.2"/>
</g>
<g>
	<rect x="0" y="289.9" fill="#A5A4A4" width="300" height="0.2"/>
</g>
<g>
	<path fill="#A5A4A4" d="M1.6,52.3c0-0.8,0.3-1.3,0.9-1.9c0.6-0.6,0.8-1,0.8-1.5c0-0.5-0.2-0.7-0.6-0.7c-0.4,0-0.6,0.3-0.6,0.7v0.5
		H1.6v-0.4c0-0.7,0.3-1.2,1.1-1.2c0.8,0,1.1,0.5,1.1,1.2c0,0.6-0.3,1.1-0.9,1.8c-0.5,0.5-0.8,0.9-0.8,1.4v0.1h1.7v0.5H1.6V52.3z"/>
	<path fill="#A5A4A4" d="M4.1,51.5v-0.3h0.5v0.4c0,0.4,0.2,0.7,0.6,0.7c0.4,0,0.6-0.2,0.6-0.7v-1.1c0-0.5-0.2-0.7-0.6-0.7
		c-0.3,0-0.5,0.2-0.6,0.6v0H4.1l0.1-2.7h2v0.5H4.8l-0.1,1.5c0.2-0.3,0.4-0.4,0.8-0.4c0.6,0,0.9,0.4,0.9,1.1v1.1
		c0,0.8-0.4,1.2-1.1,1.2C4.4,52.8,4.1,52.3,4.1,51.5z"/>
	<path fill="#A5A4A4" d="M6.7,51.5v-2.7c0-0.8,0.4-1.2,1.2-1.2C8.6,47.6,9,48,9,48.8v2.7c0,0.8-0.4,1.2-1.2,1.2
		C7.1,52.8,6.7,52.3,6.7,51.5z M8.5,51.6v-2.8c0-0.5-0.2-0.7-0.6-0.7c-0.4,0-0.6,0.2-0.6,0.7v2.8c0,0.5,0.2,0.7,0.6,0.7
		C8.2,52.3,8.5,52,8.5,51.6z"/>
</g>
<g>
	<path fill="#A5A4A4" d="M1.6,102.4c0-0.8,0.3-1.3,0.9-1.9c0.6-0.6,0.8-1,0.8-1.5c0-0.5-0.2-0.7-0.6-0.7c-0.4,0-0.6,0.3-0.6,0.7v0.5
		H1.6V99c0-0.7,0.3-1.2,1.1-1.2c0.8,0,1.1,0.5,1.1,1.2c0,0.6-0.3,1.1-0.9,1.8c-0.5,0.5-0.8,0.9-0.8,1.4v0.1h1.7v0.5H1.6V102.4z"/>
	<path fill="#A5A4A4" d="M4,101.7V99c0-0.8,0.4-1.2,1.2-1.2c0.7,0,1.2,0.4,1.2,1.2v2.7c0,0.8-0.4,1.2-1.2,1.2
		C4.4,102.9,4,102.5,4,101.7z M5.8,101.7v-2.8c0-0.5-0.2-0.7-0.6-0.7c-0.4,0-0.6,0.2-0.6,0.7v2.8c0,0.5,0.2,0.7,0.6,0.7
		C5.6,102.4,5.8,102.2,5.8,101.7z"/>
	<path fill="#A5A4A4" d="M6.6,101.7V99c0-0.8,0.4-1.2,1.2-1.2c0.7,0,1.2,0.4,1.2,1.2v2.7c0,0.8-0.4,1.2-1.2,1.2
		C7,102.9,6.6,102.5,6.6,101.7z M8.3,101.7v-2.8c0-0.5-0.2-0.7-0.6-0.7c-0.4,0-0.6,0.2-0.6,0.7v2.8c0,0.5,0.2,0.7,0.6,0.7
		C8.1,102.4,8.3,102.2,8.3,101.7z"/>
</g>
<g>
	<path fill="#A5A4A4" d="M2.5,148.7c-0.2,0.1-0.5,0.2-0.9,0.2v-0.4c0.6,0,0.9-0.2,1-0.7h0.4v5H2.5V148.7z"/>
	<path fill="#A5A4A4" d="M3.5,151.6v-0.3H4v0.4c0,0.4,0.2,0.7,0.6,0.7c0.4,0,0.6-0.2,0.6-0.7v-1.1c0-0.5-0.2-0.7-0.6-0.7
		c-0.3,0-0.5,0.2-0.6,0.6v0H3.5l0.1-2.7h2v0.5H4.2l-0.1,1.5c0.2-0.3,0.4-0.4,0.8-0.4c0.6,0,0.9,0.4,0.9,1.1v1.1
		c0,0.8-0.4,1.2-1.1,1.2C3.9,152.8,3.5,152.3,3.5,151.6z"/>
	<path fill="#A5A4A4" d="M6,151.6v-2.7c0-0.8,0.4-1.2,1.2-1.2c0.7,0,1.2,0.4,1.2,1.2v2.7c0,0.8-0.4,1.2-1.2,1.2
		C6.4,152.8,6,152.4,6,151.6z M7.7,151.6v-2.8c0-0.5-0.2-0.7-0.6-0.7c-0.4,0-0.6,0.2-0.6,0.7v2.8c0,0.5,0.2,0.7,0.6,0.7
		C7.5,152.3,7.7,152.1,7.7,151.6z"/>
</g>
<g>
	<path fill="#A5A4A4" d="M2.6,198.5c-0.2,0.1-0.5,0.2-0.9,0.2v-0.4c0.6,0,0.9-0.2,1-0.7h0.4v5H2.6V198.5z"/>
	<path fill="#A5A4A4" d="M3.5,201.5v-2.7c0-0.8,0.4-1.2,1.2-1.2c0.7,0,1.2,0.4,1.2,1.2v2.7c0,0.8-0.4,1.2-1.2,1.2
		C3.9,202.7,3.5,202.3,3.5,201.5z M5.3,201.5v-2.8c0-0.5-0.2-0.7-0.6-0.7c-0.4,0-0.6,0.2-0.6,0.7v2.8c0,0.5,0.2,0.7,0.6,0.7
		C5.1,202.2,5.3,202,5.3,201.5z"/>
	<path fill="#A5A4A4" d="M6.1,201.5v-2.7c0-0.8,0.4-1.2,1.2-1.2c0.7,0,1.2,0.4,1.2,1.2v2.7c0,0.8-0.4,1.2-1.2,1.2
		C6.5,202.7,6.1,202.3,6.1,201.5z M7.8,201.5v-2.8c0-0.5-0.2-0.7-0.6-0.7c-0.4,0-0.6,0.2-0.6,0.7v2.8c0,0.5,0.2,0.7,0.6,0.7
		C7.6,202.2,7.8,202,7.8,201.5z"/>
</g>
<g>
	<path fill="#A5A4A4" d="M2.8,251.7v-0.3h0.5v0.4c0,0.4,0.2,0.7,0.6,0.7c0.4,0,0.6-0.2,0.6-0.7v-1.1c0-0.5-0.2-0.7-0.6-0.7
		c-0.3,0-0.5,0.2-0.6,0.6v0H2.9l0.1-2.7h2v0.5H3.5l-0.1,1.5c0.2-0.3,0.4-0.4,0.8-0.4c0.6,0,0.9,0.4,0.9,1.1v1.1
		c0,0.8-0.4,1.2-1.1,1.2C3.2,252.9,2.8,252.4,2.8,251.7z"/>
	<path fill="#A5A4A4" d="M5.5,251.7V249c0-0.8,0.4-1.2,1.2-1.2c0.7,0,1.2,0.4,1.2,1.2v2.7c0,0.8-0.4,1.2-1.2,1.2
		C5.9,252.9,5.5,252.5,5.5,251.7z M7.3,251.7v-2.8c0-0.5-0.2-0.7-0.6-0.7c-0.4,0-0.6,0.2-0.6,0.7v2.8c0,0.5,0.2,0.7,0.6,0.7
		C7.1,252.4,7.3,252.2,7.3,251.7z"/>
</g>
<g>
	<path fill="#A5A4A4" d="M47.5,296.1v-0.3H48v0.4c0,0.4,0.2,0.7,0.6,0.7c0.4,0,0.6-0.2,0.6-0.7v-1.1c0-0.5-0.2-0.7-0.6-0.7
		c-0.3,0-0.5,0.2-0.6,0.6v0h-0.5l0.1-2.7h2v0.5h-1.5l-0.1,1.5c0.2-0.3,0.4-0.4,0.8-0.4c0.6,0,0.9,0.4,0.9,1.1v1.1
		c0,0.8-0.4,1.2-1.1,1.2C47.8,297.4,47.5,296.9,47.5,296.1z"/>
	<path fill="#A5A4A4" d="M50.2,296.1v-2.7c0-0.8,0.4-1.2,1.2-1.2c0.7,0,1.2,0.4,1.2,1.2v2.7c0,0.8-0.4,1.2-1.2,1.2
		C50.6,297.4,50.2,296.9,50.2,296.1z M51.9,296.2v-2.8c0-0.5-0.2-0.7-0.6-0.7c-0.4,0-0.6,0.2-0.6,0.7v2.8c0,0.5,0.2,0.7,0.6,0.7
		C51.7,296.9,51.9,296.7,51.9,296.2z"/>
</g>
<g>
	<path fill="#A5A4A4" d="M97.3,293.2c-0.2,0.1-0.5,0.2-0.9,0.2v-0.4c0.6,0,0.9-0.2,1-0.7h0.4v5h-0.6V293.2z"/>
	<path fill="#A5A4A4" d="M98.4,296.1v-2.7c0-0.8,0.4-1.2,1.2-1.2c0.7,0,1.2,0.4,1.2,1.2v2.7c0,0.8-0.4,1.2-1.2,1.2
		C98.8,297.4,98.4,296.9,98.4,296.1z M100.2,296.2v-2.8c0-0.5-0.2-0.7-0.6-0.7c-0.4,0-0.6,0.2-0.6,0.7v2.8c0,0.5,0.2,0.7,0.6,0.7
		C99.9,296.9,100.2,296.7,100.2,296.2z"/>
	<path fill="#A5A4A4" d="M101.2,296.1v-2.7c0-0.8,0.4-1.2,1.2-1.2c0.7,0,1.2,0.4,1.2,1.2v2.7c0,0.8-0.4,1.2-1.2,1.2
		C101.6,297.4,101.2,296.9,101.2,296.1z M102.9,296.2v-2.8c0-0.5-0.2-0.7-0.6-0.7c-0.4,0-0.6,0.2-0.6,0.7v2.8c0,0.5,0.2,0.7,0.6,0.7
		C102.7,296.9,102.9,296.7,102.9,296.2z"/>
</g>
<g>
	<path fill="#A5A4A4" d="M147.3,293.2c-0.2,0.1-0.5,0.2-0.9,0.2v-0.4c0.6,0,0.9-0.2,1-0.7h0.4v5h-0.6V293.2z"/>
	<path fill="#A5A4A4" d="M148.4,296.1v-0.3h0.5v0.4c0,0.4,0.2,0.7,0.6,0.7c0.4,0,0.6-0.2,0.6-0.7v-1.1c0-0.5-0.2-0.7-0.6-0.7
		c-0.3,0-0.5,0.2-0.6,0.6v0h-0.5l0.1-2.7h2v0.5h-1.5l-0.1,1.5c0.2-0.3,0.4-0.4,0.8-0.4c0.6,0,0.9,0.4,0.9,1.1v1.1
		c0,0.8-0.4,1.2-1.1,1.2C148.8,297.4,148.4,296.9,148.4,296.1z"/>
	<path fill="#A5A4A4" d="M151.1,296.1v-2.7c0-0.8,0.4-1.2,1.2-1.2c0.7,0,1.2,0.4,1.2,1.2v2.7c0,0.8-0.4,1.2-1.2,1.2
		C151.5,297.4,151.1,296.9,151.1,296.1z M152.9,296.2v-2.8c0-0.5-0.2-0.7-0.6-0.7c-0.4,0-0.6,0.2-0.6,0.7v2.8c0,0.5,0.2,0.7,0.6,0.7
		C152.7,296.9,152.9,296.7,152.9,296.2z"/>
</g>
<g>
	<path fill="#A5A4A4" d="M196.1,296.9c0-0.8,0.3-1.3,0.9-1.9c0.6-0.6,0.8-1,0.8-1.5c0-0.5-0.2-0.7-0.6-0.7c-0.4,0-0.6,0.3-0.6,0.7
		v0.5h-0.5v-0.4c0-0.7,0.3-1.2,1.1-1.2c0.8,0,1.1,0.5,1.1,1.2c0,0.6-0.3,1.1-0.9,1.8c-0.5,0.5-0.8,0.9-0.8,1.4v0.1h1.7v0.5h-2.2
		V296.9z"/>
	<path fill="#A5A4A4" d="M198.7,296.1v-2.7c0-0.8,0.4-1.2,1.2-1.2c0.7,0,1.2,0.4,1.2,1.2v2.7c0,0.8-0.4,1.2-1.2,1.2
		C199.1,297.4,198.7,296.9,198.7,296.1z M200.5,296.2v-2.8c0-0.5-0.2-0.7-0.6-0.7c-0.4,0-0.6,0.2-0.6,0.7v2.8c0,0.5,0.2,0.7,0.6,0.7
		C200.3,296.9,200.5,296.7,200.5,296.2z"/>
	<path fill="#A5A4A4" d="M201.5,296.1v-2.7c0-0.8,0.4-1.2,1.2-1.2c0.7,0,1.2,0.4,1.2,1.2v2.7c0,0.8-0.4,1.2-1.2,1.2
		C201.9,297.4,201.5,296.9,201.5,296.1z M203.3,296.2v-2.8c0-0.5-0.2-0.7-0.6-0.7c-0.4,0-0.6,0.2-0.6,0.7v2.8c0,0.5,0.2,0.7,0.6,0.7
		C203.1,296.9,203.3,296.7,203.3,296.2z"/>
</g>
<g>
	<path fill="#A5A4A4" d="M246.2,296.9c0-0.8,0.3-1.3,0.9-1.9c0.6-0.6,0.8-1,0.8-1.5c0-0.5-0.2-0.7-0.6-0.7c-0.4,0-0.6,0.3-0.6,0.7
		v0.5h-0.5v-0.4c0-0.7,0.3-1.2,1.1-1.2c0.8,0,1.1,0.5,1.1,1.2c0,0.6-0.3,1.1-0.9,1.8c-0.5,0.5-0.8,0.9-0.8,1.4v0.1h1.7v0.5h-2.2
		V296.9z"/>
	<path fill="#A5A4A4" d="M248.8,296.1v-0.3h0.5v0.4c0,0.4,0.2,0.7,0.6,0.7c0.4,0,0.6-0.2,0.6-0.7v-1.1c0-0.5-0.2-0.7-0.6-0.7
		c-0.3,0-0.5,0.2-0.6,0.6v0h-0.5l0.1-2.7h2v0.5h-1.5l-0.1,1.5c0.2-0.3,0.4-0.4,0.8-0.4c0.6,0,0.9,0.4,0.9,1.1v1.1
		c0,0.8-0.4,1.2-1.1,1.2C249.1,297.4,248.8,296.9,248.8,296.1z"/>
	<path fill="#A5A4A4" d="M251.5,296.1v-2.7c0-0.8,0.4-1.2,1.2-1.2c0.7,0,1.2,0.4,1.2,1.2v2.7c0,0.8-0.4,1.2-1.2,1.2
		C251.9,297.4,251.5,296.9,251.5,296.1z M253.2,296.2v-2.8c0-0.5-0.2-0.7-0.6-0.7c-0.4,0-0.6,0.2-0.6,0.7v2.8c0,0.5,0.2,0.7,0.6,0.7
		C253,296.9,253.2,296.7,253.2,296.2z"/>
</g>
<g>
	<rect x="0" y="249.7" fill="#A5A4A4" width="2.3" height="0.5"/>
</g>
<g>
	<rect x="0" y="199.7" fill="#A5A4A4" width="2.1" height="0.5"/>
</g>
<g>
	<rect x="0" y="149.7" fill="#A5A4A4" width="1.9" height="0.5"/>
</g>
<g>
	<rect x="0" y="99.7" fill="#A5A4A4" width="1.3" height="0.5"/>
</g>
<g>
	<rect x="0" y="49.7" fill="#A5A4A4" width="1.4" height="0.5"/>
</g>
<g>
	<rect x="49.8" y="297.9" fill="#A5A4A4" width="0.5" height="2.1"/>
</g>
<g>
	<rect x="99.8" y="297.9" fill="#A5A4A4" width="0.5" height="2.1"/>
</g>
<g>
	<rect x="149.8" y="297.9" fill="#A5A4A4" width="0.5" height="2.1"/>
</g>
<g>
	<rect x="199.8" y="297.9" fill="#A5A4A4" width="0.5" height="2.1"/>
</g>
<g>
	<rect x="249.8" y="297.9" fill="#A5A4A4" width="0.5" height="2.1"/>
</g>
<path fill-rule="evenodd" fill="#FFFFFF" d="M115.2,268.2l1.1,1.8v1.5C115.9,271,114,269.1,115.2,268.2 M111.4,263.4l1.5,0.7l-0.9,1
	L111.4,263.4z M119.3,279v1.3h-0.8l-1-1.3H119.3z M110,262l3.3,1.5h6v15.1h-2l-1-1.3l-0.4-0.9l-1.5,1.5l-0.1-0.1l1.5-1.5l-0.3-0.6
	l-2.1,0.8l-0.1-0.2l2.1-0.8l-0.2-0.6h-2.2v-0.2h2.1L110,262z"/>
<g>
	<path fill="#CEFF00" d="M130.6,280.1v-4.2c0-1.7-0.7-2.3-2.7-2.3h-3.8v6.5h-3.2v-16.4h8.3c3,0,5,1.9,5,4.7c0,1.8-0.9,3.2-2.4,3.8
		l-0.3,0.1l0.3,0.1c1.5,0.5,2,1.3,2,3.2v4.6H130.6z M124.1,270.9h4.5c2.2,0,2.7-1.3,2.7-2.3c0-1.5-0.9-2.3-2.5-2.3h-4.6V270.9z"/>
</g>
<g>
	<path fill="#CEFF00" d="M139.1,280.4c-2.6,0-4-1.2-4-3.3c0-3.4,2.1-3.8,5.6-4.3c1.7-0.2,2.2-0.6,2.2-1.5c0-0.8-0.8-1.4-2.2-1.4
		c-1.4,0-2.1,0.6-2.3,1.8h-2.8c0.1-2.8,1.8-4.1,5.3-4.1c3.6,0,5.2,1.5,5.2,4.8v7.7h-2.9c-0.1-0.3-0.2-0.7-0.2-1l0-0.2l-0.2,0.2
		C142,279.9,140.6,280.4,139.1,280.4z M142.8,274.1c-0.3,0.3-0.8,0.5-2.1,0.7c-1.8,0.4-2.5,0.9-2.5,2c0,1,0.6,1.5,1.7,1.5
		c1.7,0,3-1.2,3.1-2.8l0-1.6L142.8,274.1z"/>
</g>
<g>
	<path fill="#CEFF00" d="M152.6,280.4c-3.1,0-4.9-1.8-4.9-4.9v-10.9h3v3.3h6.8v2.1h-6.8v5.2c0,1.7,0.7,2.6,2,2.6c1.3,0,2-0.9,2-2.5
		v-3.1h2.8v3.4C157.4,277.9,156.2,280.4,152.6,280.4z"/>
</g>
<g>
	<path fill="#FFFFFF" d="M168.6,280.1v-4.2c0-1.7-0.7-2.3-2.7-2.3h-3.8v6.5h-3.2v-16.4h8.3c2.9,0,5,1.9,5,4.7c0,1.8-0.9,3.2-2.4,3.8
		l-0.3,0.1l0.3,0.1c1.5,0.5,2,1.3,2,3.2v4.6H168.6z M162.1,270.9h4.5c2.2,0,2.7-1.3,2.7-2.3c0-1.5-0.9-2.3-2.5-2.3h-4.6V270.9z"/>
</g>
<g>
	<path fill="#FFFFFF" d="M173.5,280.1v-12.1h3.1v12.1H173.5z M173.5,266.3v-2.8h3.1v2.8H173.5z"/>
</g>
<g>
	<path fill="#FFFFFF" d="M183.9,285.9c-3.5,0-5.8-2-5.9-5h2.8c0,1.5,1.1,2.4,2.8,2.4c1.9,0,3.2-1.1,3.2-2.8V278l-0.2,0.5
		c-0.4,1-1.7,1.7-3.3,1.7c-4.8,0-5.4-4.4-5.4-6.2c0-3.7,2.2-6.3,5.3-6.3c1.5,0,2.6,0.6,3.4,1.8l0.2,0.3v-1.8h3.1v12.3
		C189.9,283.7,187.5,285.9,183.9,285.9z M184.1,270.2c-1.9,0-2.9,1.3-2.9,3.9c0,2.2,1.2,3.7,2.9,3.7s2.9-1.4,2.9-3.5
		C186.9,271.6,186,270.2,184.1,270.2z"/>
</g>
</svg>
