<?xml version="1.0" encoding="UTF-8" standalone="no"?>
<!-- Generator: Adobe Illustrator 29.1.0, SVG Export Plug-In . SVG Version: 9.03 Build 55587)  -->

<svg
   version="1.1"
   id="svg159"
   x="0px"
   y="0px"
   viewBox="0 0 150 300"
   overflow="visible"
   xml:space="preserve"
   sodipodi:docname="VC4_300_Copy.svg"
   inkscape:version="1.4.2 (f4327f4, 2025-05-13)"
   xmlns:inkscape="http://www.inkscape.org/namespaces/inkscape"
   xmlns:sodipodi="http://sodipodi.sourceforge.net/DTD/sodipodi-0.dtd"
   xmlns="http://www.w3.org/2000/svg"
   xmlns:svg="http://www.w3.org/2000/svg"><defs
   id="defs93" />
<sodipodi:namedview
   bordercolor="#666666"
   borderopacity="1"
   gridtolerance="10"
   guidetolerance="10"
   id="namedview161"
   inkscape:current-layer="svg159"
   inkscape:cx="-391.40625"
   inkscape:cy="457.03125"
   inkscape:deskcolor="#d1d1d1"
   inkscape:document-rotation="0"
   inkscape:pagecheckerboard="0"
   inkscape:pageopacity="0"
   inkscape:pageshadow="2"
   inkscape:showpageshadow="2"
   inkscape:window-height="1369"
   inkscape:window-maximized="1"
   inkscape:window-width="3440"
   inkscape:window-x="-8"
   inkscape:window-y="-8"
   inkscape:zoom="0.64"
   objecttolerance="10"
   pagecolor="#ffffff"
   showgrid="false">
	</sodipodi:namedview>
<g
   id="g1">
	<path
   fill="#A5A4A4"
   d="M149.7,0.5v299H0.3V0.5H149.7 M150,0H0v300h150V0L150,0z"
   id="path1" />
</g>
<g
   id="g2">
	<rect
   x="9.9"
   y="0"
   fill="#A5A4A4"
   width="0.2"
   height="300"
   id="rect1" />
</g>
<g
   id="g3">
	<rect
   x="19.9"
   y="0"
   fill="#A5A4A4"
   width="0.2"
   height="300"
   id="rect2" />
</g>
<g
   id="g4">
	<rect
   x="29.9"
   y="0"
   fill="#A5A4A4"
   width="0.2"
   height="300"
   id="rect3" />
</g>
<g
   id="g5">
	<rect
   x="39.9"
   y="0"
   fill="#A5A4A4"
   width="0.2"
   height="300"
   id="rect4" />
</g>
<g
   id="g6">
	<rect
   x="49.8"
   y="0"
   fill="#A5A4A4"
   width="0.5"
   height="291.7"
   id="rect5" />
</g>
<g
   id="g7">
	<rect
   x="59.9"
   y="0"
   fill="#A5A4A4"
   width="0.2"
   height="300"
   id="rect6" />
</g>
<g
   id="g8">
	<polygon
   fill="#A5A4A4"
   points="70.1,0 70.1,253.6 69.9,253.5 69.9,0  "
   id="polygon7" />
	<polygon
   fill="#A5A4A4"
   points="69.9,264.5 70.1,265.1 70.1,300 69.9,300  "
   id="polygon8" />
</g>
<g
   id="g9">
	<rect
   x="79.9"
   y="0"
   fill="#A5A4A4"
   width="0.2"
   height="254.6"
   id="rect8" />
	<polygon
   fill="#A5A4A4"
   points="79.9,285.4 80.1,285.7 80.1,300 79.9,300  "
   id="polygon9" />
</g>
<g
   id="g10">
	<rect
   x="89.9"
   y="0"
   fill="#A5A4A4"
   width="0.2"
   height="300"
   id="rect9" />
</g>
<g
   id="g11">
	<rect
   x="99.8"
   y="0"
   fill="#A5A4A4"
   width="0.5"
   height="291.7"
   id="rect10" />
</g>
<g
   id="g12">
	<rect
   x="109.9"
   y="0"
   fill="#A5A4A4"
   width="0.2"
   height="299.9"
   id="rect11" />
</g>
<g
   id="g13">
	<rect
   x="119.9"
   y="0"
   fill="#A5A4A4"
   width="0.2"
   height="299.9"
   id="rect12" />
</g>
<g
   id="g14">
	<rect
   x="129.9"
   y="0"
   fill="#A5A4A4"
   width="0.2"
   height="299.9"
   id="rect13" />
</g>
<g
   id="g15">
	<rect
   x="139.9"
   y="0"
   fill="#A5A4A4"
   width="0.2"
   height="299.5"
   id="rect14" />
</g>
<g
   id="g16">
	<rect
   x="0"
   y="9.9"
   fill="#A5A4A4"
   width="149.7"
   height="0.2"
   id="rect15" />
</g>
<g
   id="g17">
	<rect
   x="0"
   y="19.9"
   fill="#A5A4A4"
   width="149.7"
   height="0.2"
   id="rect16" />
</g>
<g
   id="g18">
	<rect
   x="0"
   y="29.9"
   fill="#A5A4A4"
   width="149.7"
   height="0.2"
   id="rect17" />
</g>
<g
   id="g19">
	<rect
   x="0"
   y="39.9"
   fill="#A5A4A4"
   width="149.7"
   height="0.2"
   id="rect18" />
</g>
<g
   id="g20">
	<rect
   x="9.5"
   y="49.8"
   fill="#A5A4A4"
   width="140.3"
   height="0.5"
   id="rect19" />
</g>
<g
   id="g21">
	<rect
   x="0"
   y="59.9"
   fill="#A5A4A4"
   width="149.7"
   height="0.2"
   id="rect20" />
</g>
<g
   id="g22">
	<rect
   x="0"
   y="69.9"
   fill="#A5A4A4"
   width="149.7"
   height="0.2"
   id="rect21" />
</g>
<g
   id="g23">
	<rect
   x="0"
   y="79.9"
   fill="#A5A4A4"
   width="149.7"
   height="0.2"
   id="rect22" />
</g>
<g
   id="g24">
	<rect
   x="0"
   y="89.9"
   fill="#A5A4A4"
   width="149.7"
   height="0.2"
   id="rect23" />
</g>
<g
   id="g25">
	<rect
   x="9.4"
   y="99.8"
   fill="#A5A4A4"
   width="140.3"
   height="0.5"
   id="rect24" />
</g>
<g
   id="g26">
	<rect
   x="0"
   y="109.9"
   fill="#A5A4A4"
   width="149.7"
   height="0.2"
   id="rect25" />
</g>
<g
   id="g27">
	<rect
   x="0"
   y="119.9"
   fill="#A5A4A4"
   width="149.7"
   height="0.2"
   id="rect26" />
</g>
<g
   id="g28">
	<rect
   x="0"
   y="129.9"
   fill="#A5A4A4"
   width="149.7"
   height="0.2"
   id="rect27" />
</g>
<g
   id="g29">
	<rect
   x="0"
   y="139.9"
   fill="#A5A4A4"
   width="149.7"
   height="0.2"
   id="rect28" />
</g>
<g
   id="g30">
	<rect
   x="8.8"
   y="149.8"
   fill="#A5A4A4"
   width="140.9"
   height="0.5"
   id="rect29" />
</g>
<g
   id="g31">
	<rect
   x="0"
   y="159.9"
   fill="#A5A4A4"
   width="149.7"
   height="0.2"
   id="rect30" />
</g>
<g
   id="g32">
	<rect
   x="0"
   y="169.9"
   fill="#A5A4A4"
   width="149.7"
   height="0.2"
   id="rect31" />
</g>
<g
   id="g33">
	<rect
   x="0"
   y="179.9"
   fill="#A5A4A4"
   width="149.7"
   height="0.2"
   id="rect32" />
</g>
<g
   id="g34">
	<rect
   x="0"
   y="189.9"
   fill="#A5A4A4"
   width="149.7"
   height="0.2"
   id="rect33" />
</g>
<g
   id="g35">
	<rect
   x="8.8"
   y="199.8"
   fill="#A5A4A4"
   width="141"
   height="0.5"
   id="rect34" />
</g>
<g
   id="g36">
	<rect
   x="0"
   y="209.9"
   fill="#A5A4A4"
   width="149.7"
   height="0.2"
   id="rect35" />
</g>
<g
   id="g37">
	<rect
   x="0"
   y="219.9"
   fill="#A5A4A4"
   width="149.7"
   height="0.2"
   id="rect36" />
</g>
<g
   id="g38">
	<rect
   x="0"
   y="229.9"
   fill="#A5A4A4"
   width="149.7"
   height="0.2"
   id="rect37" />
</g>
<g
   id="g39">
	<rect
   x="0"
   y="239.9"
   fill="#A5A4A4"
   width="149.7"
   height="0.2"
   id="rect38" />
</g>
<g
   id="g40">
	<rect
   x="8.4"
   y="249.8"
   fill="#A5A4A4"
   width="141.3"
   height="0.5"
   id="rect39" />
</g>
<g
   id="g41">
	<polygon
   fill="#A5A4A4"
   points="68,259.9 68.1,260.2 0,260.1 0,259.9  "
   id="polygon40" />
	<rect
   x="84.1"
   y="260"
   fill="#A5A4A4"
   width="65.6"
   height="0.2"
   id="rect40" />
</g>
<g
   id="g42">
	<polygon
   fill="#A5A4A4"
   points="72.1,270 72.2,270.2 69.9,270.2 0.3,270.2 0.3,269.9 69.9,270  "
   id="polygon41" />
	<rect
   x="84.1"
   y="270"
   fill="#A5A4A4"
   width="65.6"
   height="0.2"
   id="rect41" />
</g>
<g
   id="g43">
	<polygon
   fill="#A5A4A4"
   points="71.8,280.2 69.9,280.2 0.3,280.2 0.3,279.9 69.9,280 71.7,280  "
   id="polygon42" />
	<rect
   x="84.1"
   y="280"
   fill="#A5A4A4"
   width="65.6"
   height="0.2"
   id="rect42" />
</g>
<g
   id="g44">
	<rect
   x="0"
   y="289.9"
   fill="#A5A4A4"
   width="149.7"
   height="0.2"
   id="rect43" />
</g>
<g
   id="g46">
	<path
   fill="#A5A4A4"
   d="M1.6,52.3c0-0.8,0.3-1.3,0.9-1.9c0.6-0.6,0.8-1,0.8-1.5c0-0.5-0.2-0.7-0.6-0.7c-0.4,0-0.6,0.3-0.6,0.7v0.5   H1.6v-0.4c0-0.7,0.3-1.2,1.1-1.2c0.8,0,1.1,0.5,1.1,1.2c0,0.6-0.3,1.1-0.9,1.8c-0.5,0.5-0.8,0.9-0.8,1.4v0.1h1.7v0.5H1.6V52.3z"
   id="path44" />
	<path
   fill="#A5A4A4"
   d="M4.1,51.5v-0.3h0.5v0.4c0,0.4,0.2,0.7,0.6,0.7c0.4,0,0.6-0.2,0.6-0.7v-1.1c0-0.5-0.2-0.7-0.6-0.7   c-0.3,0-0.5,0.2-0.6,0.6v0H4.1l0.1-2.7h2v0.5H4.8l-0.1,1.5c0.2-0.3,0.4-0.4,0.8-0.4c0.6,0,0.9,0.4,0.9,1.1v1.1   c0,0.8-0.4,1.2-1.1,1.2C4.4,52.8,4.1,52.3,4.1,51.5z"
   id="path45" />
	<path
   fill="#A5A4A4"
   d="M6.7,51.5v-2.7c0-0.8,0.4-1.2,1.2-1.2C8.6,47.6,9,48,9,48.8v2.7c0,0.8-0.4,1.2-1.2,1.2   C7.1,52.8,6.7,52.3,6.7,51.5z M8.5,51.6v-2.8c0-0.5-0.2-0.7-0.6-0.7c-0.4,0-0.6,0.2-0.6,0.7v2.8c0,0.5,0.2,0.7,0.6,0.7   C8.2,52.3,8.5,52,8.5,51.6z"
   id="path46" />
</g>
<g
   id="g49">
	<path
   fill="#A5A4A4"
   d="M1.6,102.4c0-0.8,0.3-1.3,0.9-1.9c0.6-0.6,0.8-1,0.8-1.5c0-0.5-0.2-0.7-0.6-0.7c-0.4,0-0.6,0.3-0.6,0.7v0.5   H1.6V99c0-0.7,0.3-1.2,1.1-1.2c0.8,0,1.1,0.5,1.1,1.2c0,0.6-0.3,1.1-0.9,1.8c-0.5,0.5-0.8,0.9-0.8,1.4v0.1h1.7v0.5H1.6V102.4z"
   id="path47" />
	<path
   fill="#A5A4A4"
   d="M4,101.7V99c0-0.8,0.4-1.2,1.2-1.2c0.7,0,1.2,0.4,1.2,1.2v2.7c0,0.8-0.4,1.2-1.2,1.2   C4.4,102.9,4,102.5,4,101.7z M5.8,101.7v-2.8c0-0.5-0.2-0.7-0.6-0.7c-0.4,0-0.6,0.2-0.6,0.7v2.8c0,0.5,0.2,0.7,0.6,0.7   C5.6,102.4,5.8,102.2,5.8,101.7z"
   id="path48" />
	<path
   fill="#A5A4A4"
   d="M6.6,101.7V99c0-0.8,0.4-1.2,1.2-1.2c0.7,0,1.2,0.4,1.2,1.2v2.7c0,0.8-0.4,1.2-1.2,1.2   C7,102.9,6.6,102.5,6.6,101.7z M8.3,101.7v-2.8c0-0.5-0.2-0.7-0.6-0.7c-0.4,0-0.6,0.2-0.6,0.7v2.8c0,0.5,0.2,0.7,0.6,0.7   C8.1,102.4,8.3,102.2,8.3,101.7z"
   id="path49" />
</g>
<g
   id="g52">
	<path
   fill="#A5A4A4"
   d="M2.5,148.7c-0.2,0.1-0.5,0.2-0.9,0.2v-0.4c0.6,0,0.9-0.2,1-0.7h0.4v5H2.5V148.7z"
   id="path50" />
	<path
   fill="#A5A4A4"
   d="M3.5,151.6v-0.3h0.5v0.4c0,0.4,0.2,0.7,0.6,0.7c0.4,0,0.6-0.2,0.6-0.7v-1.1c0-0.5-0.2-0.7-0.6-0.7   c-0.3,0-0.5,0.2-0.6,0.6v0H3.5l0.1-2.7h2v0.5H4.2l-0.1,1.5c0.2-0.3,0.4-0.4,0.8-0.4c0.6,0,0.9,0.4,0.9,1.1v1.1   c0,0.8-0.4,1.2-1.1,1.2C3.9,152.8,3.5,152.3,3.5,151.6z"
   id="path51" />
	<path
   fill="#A5A4A4"
   d="M6,151.6v-2.7c0-0.8,0.4-1.2,1.2-1.2c0.7,0,1.2,0.4,1.2,1.2v2.7c0,0.8-0.4,1.2-1.2,1.2   C6.4,152.8,6,152.4,6,151.6z M7.7,151.6v-2.8c0-0.5-0.2-0.7-0.6-0.7c-0.4,0-0.6,0.2-0.6,0.7v2.8c0,0.5,0.2,0.7,0.6,0.7   C7.5,152.3,7.7,152.1,7.7,151.6z"
   id="path52" />
</g>
<g
   id="g55">
	<path
   fill="#A5A4A4"
   d="M2.6,198.5c-0.2,0.1-0.5,0.2-0.9,0.2v-0.4c0.6,0,0.9-0.2,1-0.7h0.4v5H2.6V198.5z"
   id="path53" />
	<path
   fill="#A5A4A4"
   d="M3.5,201.5v-2.7c0-0.8,0.4-1.2,1.2-1.2c0.7,0,1.2,0.4,1.2,1.2v2.7c0,0.8-0.4,1.2-1.2,1.2   C3.9,202.7,3.5,202.3,3.5,201.5z M5.3,201.5v-2.8c0-0.5-0.2-0.7-0.6-0.7c-0.4,0-0.6,0.2-0.6,0.7v2.8c0,0.5,0.2,0.7,0.6,0.7   C5.1,202.2,5.3,202,5.3,201.5z"
   id="path54" />
	<path
   fill="#A5A4A4"
   d="M6.1,201.5v-2.7c0-0.8,0.4-1.2,1.2-1.2c0.7,0,1.2,0.4,1.2,1.2v2.7c0,0.8-0.4,1.2-1.2,1.2   C6.5,202.7,6.1,202.3,6.1,201.5z M7.8,201.5v-2.8c0-0.5-0.2-0.7-0.6-0.7c-0.4,0-0.6,0.2-0.6,0.7v2.8c0,0.5,0.2,0.7,0.6,0.7   C7.6,202.2,7.8,202,7.8,201.5z"
   id="path55" />
</g>
<g
   id="g57">
	<path
   fill="#A5A4A4"
   d="M2.8,251.7v-0.3h0.5v0.4c0,0.4,0.2,0.7,0.6,0.7c0.4,0,0.6-0.2,0.6-0.7v-1.1c0-0.5-0.2-0.7-0.6-0.7   c-0.3,0-0.5,0.2-0.6,0.6v0H2.9l0.1-2.7h2v0.5H3.5l-0.1,1.5c0.2-0.3,0.4-0.4,0.8-0.4c0.6,0,0.9,0.4,0.9,1.1v1.1   c0,0.8-0.4,1.2-1.1,1.2C3.2,252.9,2.8,252.4,2.8,251.7z"
   id="path56" />
	<path
   fill="#A5A4A4"
   d="M5.5,251.7V249c0-0.8,0.4-1.2,1.2-1.2c0.7,0,1.2,0.4,1.2,1.2v2.7c0,0.8-0.4,1.2-1.2,1.2   C5.9,252.9,5.5,252.5,5.5,251.7z M7.3,251.7v-2.8c0-0.5-0.2-0.7-0.6-0.7c-0.4,0-0.6,0.2-0.6,0.7v2.8c0,0.5,0.2,0.7,0.6,0.7   C7.1,252.4,7.3,252.2,7.3,251.7z"
   id="path57" />
</g>
<g
   id="g59">
	<path
   fill="#A5A4A4"
   d="M47.5,296.1v-0.3H48v0.4c0,0.4,0.2,0.7,0.6,0.7c0.4,0,0.6-0.2,0.6-0.7v-1.1c0-0.5-0.2-0.7-0.6-0.7   c-0.3,0-0.5,0.2-0.6,0.6v0h-0.5l0.1-2.7h2v0.5h-1.5l-0.1,1.5c0.2-0.3,0.4-0.4,0.8-0.4c0.6,0,0.9,0.4,0.9,1.1v1.1   c0,0.8-0.4,1.2-1.1,1.2C47.8,297.4,47.5,296.9,47.5,296.1z"
   id="path58" />
	<path
   fill="#A5A4A4"
   d="M50.2,296.1v-2.7c0-0.8,0.4-1.2,1.2-1.2c0.7,0,1.2,0.4,1.2,1.2v2.7c0,0.8-0.4,1.2-1.2,1.2   C50.6,297.4,50.2,296.9,50.2,296.1z M51.9,296.2v-2.8c0-0.5-0.2-0.7-0.6-0.7c-0.4,0-0.6,0.2-0.6,0.7v2.8c0,0.5,0.2,0.7,0.6,0.7   C51.7,296.9,51.9,296.7,51.9,296.2z"
   id="path59" />
</g>
<g
   id="g62">
	<path
   fill="#A5A4A4"
   d="M97.3,293.2c-0.2,0.1-0.5,0.2-0.9,0.2v-0.4c0.6,0,0.9-0.2,1-0.7h0.4v5h-0.6V293.2z"
   id="path60" />
	<path
   fill="#A5A4A4"
   d="M98.4,296.1v-2.7c0-0.8,0.4-1.2,1.2-1.2c0.7,0,1.2,0.4,1.2,1.2v2.7c0,0.8-0.4,1.2-1.2,1.2   C98.8,297.4,98.4,296.9,98.4,296.1z M100.2,296.2v-2.8c0-0.5-0.2-0.7-0.6-0.7c-0.4,0-0.6,0.2-0.6,0.7v2.8c0,0.5,0.2,0.7,0.6,0.7   C99.9,296.9,100.2,296.7,100.2,296.2z"
   id="path61" />
	<path
   fill="#A5A4A4"
   d="M101.2,296.1v-2.7c0-0.8,0.4-1.2,1.2-1.2c0.7,0,1.2,0.4,1.2,1.2v2.7c0,0.8-0.4,1.2-1.2,1.2   C101.6,297.4,101.2,296.9,101.2,296.1z M102.9,296.2v-2.8c0-0.5-0.2-0.7-0.6-0.7c-0.4,0-0.6,0.2-0.6,0.7v2.8c0,0.5,0.2,0.7,0.6,0.7   C102.7,296.9,102.9,296.7,102.9,296.2z"
   id="path62" />
</g>
<g
   id="g63">
	<rect
   x="0"
   y="249.8"
   fill="#A5A4A4"
   width="2.3"
   height="0.5"
   id="rect62" />
</g>
<g
   id="g64">
	<rect
   x="0"
   y="199.8"
   fill="#A5A4A4"
   width="2.1"
   height="0.5"
   id="rect63" />
</g>
<g
   id="g65">
	<rect
   x="0"
   y="149.8"
   fill="#A5A4A4"
   width="1.9"
   height="0.5"
   id="rect64" />
</g>
<g
   id="g66">
	<rect
   x="0"
   y="99.8"
   fill="#A5A4A4"
   width="1.3"
   height="0.5"
   id="rect65" />
</g>
<g
   id="g67">
	<rect
   x="0"
   y="49.8"
   fill="#A5A4A4"
   width="1.4"
   height="0.5"
   id="rect66" />
</g>
<g
   id="g68">
	<rect
   x="49.8"
   y="297.9"
   fill="#A5A4A4"
   width="0.5"
   height="2.1"
   id="rect67" />
</g>
<g
   id="g69">
	<rect
   x="99.8"
   y="297.9"
   fill="#A5A4A4"
   width="0.5"
   height="2.1"
   id="rect68" />
</g>
<g
   id="g70">
	<path
   fill-rule="evenodd"
   fill="#6D6C6C"
   d="M75.7,264.1l2,3.3v2.8C77,269.3,73.5,265.9,75.7,264.1z M68.7,255.4l2.8,1.3l-1.6,1.8   L68.7,255.4z M83.1,283.8v2.4h-1.4l-1.8-2.4H83.1z M66.2,252.9l6,2.7h10.9v27.5h-3.7l-1.8-2.3l-0.7-1.6l-2.7,2.7l-0.2-0.2l2.8-2.8   l-0.5-1.1l-3.9,1.5l-0.1-0.3l3.9-1.5l-0.4-1h-4v-0.3h3.8L66.2,252.9z"
   id="path69" />
	<path
   fill="#A5A4A4"
   d="M83.2,286.3h-1.5l0,0l-2-2.6h3.5V286.3z M81.8,286.1H83v-2.2h-2.9L81.8,286.1z M83.2,283.2h-3.9l0,0   l-1.8-2.3l-0.6-1.5l-2.7,2.7l-0.4-0.4l2.8-2.8l-0.4-1l-3.9,1.5l-0.2-0.5l0.1,0l3.8-1.5l-0.4-0.9h-4V276h3.8L66,252.7l6.2,2.8h11   V283.2z M79.5,283H83v-27.3l-10.9,0l-5.8-2.6l9.5,23.1H72v0.1h3.9l0.5,1.2l-3.9,1.5l0.1,0.1l3.9-1.5l0.5,1.3l-2.8,2.8l0.1,0.1   l2.7-2.7l0.7,1.7L79.5,283z M77.8,270.4l-0.2-0.2c-0.1-0.1-0.2-0.2-0.3-0.3c-0.8-0.9-2.6-2.9-2.4-4.5c0-0.5,0.3-1,0.7-1.3l0.1-0.1   l2,3.4V270.4z M75.7,264.3c-0.3,0.3-0.5,0.7-0.6,1.1c-0.1,1.5,1.6,3.5,2.4,4.4c0,0,0.1,0.1,0.1,0.1v-2.5L75.7,264.3z M69.9,258.7   l-1.4-3.4l3.2,1.4L69.9,258.7z M68.9,255.6l1.1,2.7l1.4-1.6L68.9,255.6z"
   id="path70" />
</g>


</svg>
