<?xml version="1.0" encoding="utf-8"?>
<!-- Generator: Adobe Illustrator 29.1.0, SVG Export Plug-In . SVG Version: 9.03 Build 55587)  -->
<svg version="1.1" baseProfile="tiny"
	 id="svg159" xmlns:sodipodi="http://sodipodi.sourceforge.net/DTD/sodipodi-0.dtd" xmlns:svg="http://www.w3.org/2000/svg" xmlns:inkscape="http://www.inkscape.org/namespaces/inkscape" xmlns:sketch="http://www.bohemiancoding.com/sketch/ns" xmlns:dc="http://purl.org/dc/elements/1.1/" xmlns:cc="http://creativecommons.org/ns#" xmlns:rdf="http://www.w3.org/1999/02/22-rdf-syntax-ns#"
	 xmlns="http://www.w3.org/2000/svg" xmlns:xlink="http://www.w3.org/1999/xlink" x="0px" y="0px" viewBox="0 0 122.5 300"
	 overflow="visible" xml:space="preserve">
<sodipodi:namedview  bordercolor="#666666" borderopacity="1" gridtolerance="10" guidetolerance="10" id="namedview161" inkscape:current-layer="Page-1" inkscape:cx="-557.39902" inkscape:cy="330.90388" inkscape:deskcolor="#d1d1d1" inkscape:document-rotation="0" inkscape:pagecheckerboard="0" inkscape:pageopacity="0" inkscape:pageshadow="2" inkscape:showpageshadow="2" inkscape:window-height="1369" inkscape:window-maximized="1" inkscape:window-width="3440" inkscape:window-x="-8" inkscape:window-y="-8" inkscape:zoom="0.90509668" objecttolerance="10" pagecolor="#ffffff" showgrid="false">
	</sodipodi:namedview>
<g>
	<polygon fill="#A5A4A4" points="0.2,299.5 0.2,0.5 122.5,0.5 122.5,0 0,0 0,300 122.5,300 122.5,299.5 	"/>
</g>
<g>
	<rect x="9.9" y="0" fill="#A5A4A4" width="0.2" height="300"/>
</g>
<g>
	<rect x="19.9" y="0" fill="#A5A4A4" width="0.2" height="300"/>
</g>
<g>
	<rect x="29.9" y="0" fill="#A5A4A4" width="0.2" height="300"/>
</g>
<g>
	<rect x="39.9" y="0" fill="#A5A4A4" width="0.2" height="300"/>
</g>
<g>
	<rect x="49.8" y="0" fill="#A5A4A4" width="0.5" height="291.7"/>
</g>
<g>
	<rect x="59.9" y="0" fill="#A5A4A4" width="0.2" height="255.1"/>
	<rect x="59.9" y="279.9" fill="#A5A4A4" width="0.2" height="0.2"/>
	<polygon fill="#A5A4A4" points="59.9,282.6 60.1,282.4 60.1,300 59.9,300 59.9,282.6 	"/>
</g>
<g>
	<rect x="69.9" y="0" fill="#A5A4A4" width="0.2" height="300"/>
</g>
<g>
	<rect x="79.9" y="0" fill="#A5A4A4" width="0.2" height="300"/>
</g>
<g>
	<rect x="89.9" y="0" fill="#A5A4A4" width="0.2" height="300"/>
</g>
<g>
	<rect x="99.8" y="0" fill="#A5A4A4" width="0.5" height="291.7"/>
</g>
<g>
	<rect x="109.9" y="0" fill="#A5A4A4" width="0.2" height="299.9"/>
</g>
<g>
	<rect x="119.9" y="0" fill="#A5A4A4" width="0.2" height="299.9"/>
</g>
<g>
	<rect x="0" y="9.9" fill="#A5A4A4" width="122.5" height="0.2"/>
</g>
<g>
	<rect x="0" y="19.9" fill="#A5A4A4" width="122.5" height="0.2"/>
</g>
<g>
	<rect x="0" y="29.9" fill="#A5A4A4" width="122.5" height="0.2"/>
</g>
<g>
	<rect x="0" y="39.9" fill="#A5A4A4" width="122.5" height="0.2"/>
</g>
<g>
	<rect x="9.5" y="49.8" fill="#A5A4A4" width="113" height="0.5"/>
</g>
<g>
	<rect x="0" y="59.9" fill="#A5A4A4" width="122.5" height="0.2"/>
</g>
<g>
	<rect x="0" y="69.9" fill="#A5A4A4" width="122.5" height="0.2"/>
</g>
<g>
	<rect x="0" y="79.9" fill="#A5A4A4" width="122.5" height="0.2"/>
</g>
<g>
	<rect x="0" y="89.9" fill="#A5A4A4" width="122.5" height="0.2"/>
</g>
<g>
	<rect x="9.4" y="99.8" fill="#A5A4A4" width="113.1" height="0.5"/>
</g>
<g>
	<rect x="0" y="109.9" fill="#A5A4A4" width="122.5" height="0.2"/>
</g>
<g>
	<rect x="0" y="119.9" fill="#A5A4A4" width="122.5" height="0.2"/>
</g>
<g>
	<rect x="0" y="129.9" fill="#A5A4A4" width="122.5" height="0.2"/>
</g>
<g>
	<rect x="0" y="139.9" fill="#A5A4A4" width="122.5" height="0.2"/>
</g>
<g>
	<rect x="8.8" y="149.8" fill="#A5A4A4" width="113.7" height="0.5"/>
</g>
<g>
	<rect x="0" y="159.9" fill="#A5A4A4" width="122.5" height="0.2"/>
</g>
<g>
	<rect x="0" y="169.9" fill="#A5A4A4" width="122.5" height="0.2"/>
</g>
<g>
	<rect x="0" y="179.9" fill="#A5A4A4" width="122.5" height="0.2"/>
</g>
<g>
	<rect x="0" y="189.9" fill="#A5A4A4" width="122.5" height="0.2"/>
</g>
<g>
	<rect x="8.8" y="199.8" fill="#A5A4A4" width="113.7" height="0.5"/>
</g>
<g>
	<rect x="0" y="209.9" fill="#A5A4A4" width="122.5" height="0.2"/>
</g>
<g>
	<rect x="0" y="219.9" fill="#A5A4A4" width="122.5" height="0.2"/>
</g>
<g>
	<rect x="0" y="229.9" fill="#A5A4A4" width="122.5" height="0.2"/>
</g>
<g>
	<rect x="0" y="239.9" fill="#A5A4A4" width="122.5" height="0.2"/>
</g>
<g>
	<rect x="8.4" y="249.8" fill="#A5A4A4" width="114.1" height="0.5"/>
</g>
<g>
	<polygon fill="#A5A4A4" points="54.2,259.9 54.3,260.1 0,260.1 0,259.9 	"/>
	<polygon fill="#A5A4A4" points="122.5,259.9 122.5,260.2 70.1,260.2 69.2,260.2 69.2,259.9 70.1,259.9 	"/>
</g>
<g>
	<polygon fill="#A5A4A4" points="58.3,269.9 58.4,270.2 0.3,270.2 0.3,269.9 	"/>
	<polygon fill="#A5A4A4" points="122.5,270 122.5,270.2 70.1,270.2 69.2,270.2 69.2,269.9 70.1,269.9 	"/>
</g>
<g>
	<polygon fill="#A5A4A4" points="60.8,279.9 60.5,280.2 59.9,280.2 0.3,280.2 0.3,279.9 59.9,279.9 	"/>
	<polygon fill="#A5A4A4" points="122.5,280 122.5,280.2 70.1,280.2 69.2,280.2 69.2,279.9 70.1,279.9 	"/>
</g>
<g>
	<rect x="0" y="289.9" fill="#A5A4A4" width="122.5" height="0.2"/>
</g>
<g>
	<path fill="#A5A4A4" d="M1.6,52.3c0-0.8,0.3-1.3,0.9-1.9c0.6-0.6,0.8-1,0.8-1.5c0-0.5-0.2-0.7-0.6-0.7c-0.4,0-0.6,0.3-0.6,0.7v0.5
		H1.6v-0.4c0-0.7,0.3-1.2,1.1-1.2c0.8,0,1.1,0.5,1.1,1.2c0,0.6-0.3,1.1-0.9,1.8c-0.5,0.5-0.8,0.9-0.8,1.4v0.1h1.7v0.5H1.6V52.3z"/>
	<path fill="#A5A4A4" d="M4.1,51.5v-0.3h0.5v0.4c0,0.4,0.2,0.7,0.6,0.7c0.4,0,0.6-0.2,0.6-0.7v-1.1c0-0.5-0.2-0.7-0.6-0.7
		c-0.3,0-0.5,0.2-0.6,0.6v0H4.1l0.1-2.7h2v0.5H4.8l-0.1,1.5c0.2-0.3,0.4-0.4,0.8-0.4c0.6,0,0.9,0.4,0.9,1.1v1.1
		c0,0.8-0.4,1.2-1.1,1.2C4.4,52.8,4.1,52.3,4.1,51.5z"/>
	<path fill="#A5A4A4" d="M6.7,51.5v-2.7c0-0.8,0.4-1.2,1.2-1.2C8.6,47.6,9,48,9,48.8v2.7c0,0.8-0.4,1.2-1.2,1.2
		C7.1,52.8,6.7,52.3,6.7,51.5z M8.5,51.6v-2.8c0-0.5-0.2-0.7-0.6-0.7c-0.4,0-0.6,0.2-0.6,0.7v2.8c0,0.5,0.2,0.7,0.6,0.7
		C8.2,52.3,8.5,52,8.5,51.6z"/>
</g>
<g>
	<path fill="#A5A4A4" d="M1.6,102.4c0-0.8,0.3-1.3,0.9-1.9c0.6-0.6,0.8-1,0.8-1.5c0-0.5-0.2-0.7-0.6-0.7c-0.4,0-0.6,0.3-0.6,0.7v0.5
		H1.6V99c0-0.7,0.3-1.2,1.1-1.2c0.8,0,1.1,0.5,1.1,1.2c0,0.6-0.3,1.1-0.9,1.8c-0.5,0.5-0.8,0.9-0.8,1.4v0.1h1.7v0.5H1.6V102.4z"/>
	<path fill="#A5A4A4" d="M4,101.7V99c0-0.8,0.4-1.2,1.2-1.2c0.7,0,1.2,0.4,1.2,1.2v2.7c0,0.8-0.4,1.2-1.2,1.2
		C4.4,102.9,4,102.5,4,101.7z M5.8,101.7v-2.8c0-0.5-0.2-0.7-0.6-0.7c-0.4,0-0.6,0.2-0.6,0.7v2.8c0,0.5,0.2,0.7,0.6,0.7
		C5.6,102.4,5.8,102.2,5.8,101.7z"/>
	<path fill="#A5A4A4" d="M6.6,101.7V99c0-0.8,0.4-1.2,1.2-1.2c0.7,0,1.2,0.4,1.2,1.2v2.7c0,0.8-0.4,1.2-1.2,1.2
		C7,102.9,6.6,102.5,6.6,101.7z M8.3,101.7v-2.8c0-0.5-0.2-0.7-0.6-0.7c-0.4,0-0.6,0.2-0.6,0.7v2.8c0,0.5,0.2,0.7,0.6,0.7
		C8.1,102.4,8.3,102.2,8.3,101.7z"/>
</g>
<g>
	<path fill="#A5A4A4" d="M2.5,148.7c-0.2,0.1-0.5,0.2-0.9,0.2v-0.4c0.6,0,0.9-0.2,1-0.7h0.4v5H2.5V148.7z"/>
	<path fill="#A5A4A4" d="M3.5,151.6v-0.3H4v0.4c0,0.4,0.2,0.7,0.6,0.7c0.4,0,0.6-0.2,0.6-0.7v-1.1c0-0.5-0.2-0.7-0.6-0.7
		c-0.3,0-0.5,0.2-0.6,0.6v0H3.5l0.1-2.7h2v0.5H4.2l-0.1,1.5c0.2-0.3,0.4-0.4,0.8-0.4c0.6,0,0.9,0.4,0.9,1.1v1.1
		c0,0.8-0.4,1.2-1.1,1.2C3.9,152.8,3.5,152.3,3.5,151.6z"/>
	<path fill="#A5A4A4" d="M6,151.6v-2.7c0-0.8,0.4-1.2,1.2-1.2c0.7,0,1.2,0.4,1.2,1.2v2.7c0,0.8-0.4,1.2-1.2,1.2
		C6.4,152.8,6,152.4,6,151.6z M7.7,151.6v-2.8c0-0.5-0.2-0.7-0.6-0.7c-0.4,0-0.6,0.2-0.6,0.7v2.8c0,0.5,0.2,0.7,0.6,0.7
		C7.5,152.3,7.7,152.1,7.7,151.6z"/>
</g>
<g>
	<path fill="#A5A4A4" d="M2.6,198.5c-0.2,0.1-0.5,0.2-0.9,0.2v-0.4c0.6,0,0.9-0.2,1-0.7h0.4v5H2.6V198.5z"/>
	<path fill="#A5A4A4" d="M3.5,201.5v-2.7c0-0.8,0.4-1.2,1.2-1.2c0.7,0,1.2,0.4,1.2,1.2v2.7c0,0.8-0.4,1.2-1.2,1.2
		C3.9,202.7,3.5,202.3,3.5,201.5z M5.3,201.5v-2.8c0-0.5-0.2-0.7-0.6-0.7c-0.4,0-0.6,0.2-0.6,0.7v2.8c0,0.5,0.2,0.7,0.6,0.7
		C5.1,202.2,5.3,202,5.3,201.5z"/>
	<path fill="#A5A4A4" d="M6.1,201.5v-2.7c0-0.8,0.4-1.2,1.2-1.2c0.7,0,1.2,0.4,1.2,1.2v2.7c0,0.8-0.4,1.2-1.2,1.2
		C6.5,202.7,6.1,202.3,6.1,201.5z M7.8,201.5v-2.8c0-0.5-0.2-0.7-0.6-0.7c-0.4,0-0.6,0.2-0.6,0.7v2.8c0,0.5,0.2,0.7,0.6,0.7
		C7.6,202.2,7.8,202,7.8,201.5z"/>
</g>
<g>
	<path fill="#A5A4A4" d="M2.8,251.7v-0.3h0.5v0.4c0,0.4,0.2,0.7,0.6,0.7c0.4,0,0.6-0.2,0.6-0.7v-1.1c0-0.5-0.2-0.7-0.6-0.7
		c-0.3,0-0.5,0.2-0.6,0.6v0H2.9l0.1-2.7h2v0.5H3.5l-0.1,1.5c0.2-0.3,0.4-0.4,0.8-0.4c0.6,0,0.9,0.4,0.9,1.1v1.1
		c0,0.8-0.4,1.2-1.1,1.2C3.2,252.9,2.8,252.4,2.8,251.7z"/>
	<path fill="#A5A4A4" d="M5.5,251.7V249c0-0.8,0.4-1.2,1.2-1.2c0.7,0,1.2,0.4,1.2,1.2v2.7c0,0.8-0.4,1.2-1.2,1.2
		C5.9,252.9,5.5,252.5,5.5,251.7z M7.3,251.7v-2.8c0-0.5-0.2-0.7-0.6-0.7c-0.4,0-0.6,0.2-0.6,0.7v2.8c0,0.5,0.2,0.7,0.6,0.7
		C7.1,252.4,7.3,252.2,7.3,251.7z"/>
</g>
<g>
	<path fill="#A5A4A4" d="M47.5,296.1v-0.3H48v0.4c0,0.4,0.2,0.7,0.6,0.7c0.4,0,0.6-0.2,0.6-0.7v-1.1c0-0.5-0.2-0.7-0.6-0.7
		c-0.3,0-0.5,0.2-0.6,0.6v0h-0.5l0.1-2.7h2v0.5h-1.5l-0.1,1.5c0.2-0.3,0.4-0.4,0.8-0.4c0.6,0,0.9,0.4,0.9,1.1v1.1
		c0,0.8-0.4,1.2-1.1,1.2C47.8,297.4,47.5,296.9,47.5,296.1z"/>
	<path fill="#A5A4A4" d="M50.2,296.1v-2.7c0-0.8,0.4-1.2,1.2-1.2c0.7,0,1.2,0.4,1.2,1.2v2.7c0,0.8-0.4,1.2-1.2,1.2
		C50.6,297.4,50.2,296.9,50.2,296.1z M51.9,296.2v-2.8c0-0.5-0.2-0.7-0.6-0.7c-0.4,0-0.6,0.2-0.6,0.7v2.8c0,0.5,0.2,0.7,0.6,0.7
		C51.7,296.9,51.9,296.7,51.9,296.2z"/>
</g>
<g>
	<path fill="#A5A4A4" d="M97.3,293.2c-0.2,0.1-0.5,0.2-0.9,0.2v-0.4c0.6,0,0.9-0.2,1-0.7h0.4v5h-0.6V293.2z"/>
	<path fill="#A5A4A4" d="M98.4,296.1v-2.7c0-0.8,0.4-1.2,1.2-1.2c0.7,0,1.2,0.4,1.2,1.2v2.7c0,0.8-0.4,1.2-1.2,1.2
		C98.8,297.4,98.4,296.9,98.4,296.1z M100.2,296.2v-2.8c0-0.5-0.2-0.7-0.6-0.7c-0.4,0-0.6,0.2-0.6,0.7v2.8c0,0.5,0.2,0.7,0.6,0.7
		C99.9,296.9,100.2,296.7,100.2,296.2z"/>
	<path fill="#A5A4A4" d="M101.2,296.1v-2.7c0-0.8,0.4-1.2,1.2-1.2c0.7,0,1.2,0.4,1.2,1.2v2.7c0,0.8-0.4,1.2-1.2,1.2
		C101.6,297.4,101.2,296.9,101.2,296.1z M102.9,296.2v-2.8c0-0.5-0.2-0.7-0.6-0.7c-0.4,0-0.6,0.2-0.6,0.7v2.8c0,0.5,0.2,0.7,0.6,0.7
		C102.7,296.9,102.9,296.7,102.9,296.2z"/>
</g>
<g>
	<rect x="0" y="249.8" fill="#A5A4A4" width="2.3" height="0.5"/>
</g>
<g>
	<rect x="0" y="199.8" fill="#A5A4A4" width="2.1" height="0.5"/>
</g>
<g>
	<rect x="0" y="149.8" fill="#A5A4A4" width="1.9" height="0.5"/>
</g>
<g>
	<rect x="0" y="99.8" fill="#A5A4A4" width="1.3" height="0.5"/>
</g>
<g>
	<rect x="0" y="49.8" fill="#A5A4A4" width="1.4" height="0.5"/>
</g>
<g>
	<rect x="49.8" y="297.9" fill="#A5A4A4" width="0.5" height="2.1"/>
</g>
<g>
	<rect x="99.8" y="297.9" fill="#A5A4A4" width="0.5" height="2.1"/>
</g>
<g>
	<path fill-rule="evenodd" fill="#6D6C6C" d="M61.3,264.1l2,3.3v2.8C62.6,269.3,59.2,265.9,61.3,264.1z M54.3,255.4l2.8,1.3
		l-1.6,1.8L54.3,255.4z M68.8,283.8v2.4h-1.4l-1.8-2.4H68.8z M51.8,252.9l6,2.7h10.9v27.5H65l-1.8-2.3l-0.7-1.6l-2.7,2.7l-0.2-0.2
		l2.8-2.8l-0.5-1.1l-3.9,1.5L58,279l3.9-1.5l-0.4-1h-4v-0.3h3.8L51.8,252.9z"/>
	<path fill="#A5A4A4" d="M68.9,286.3h-1.5l0,0l-2-2.6h3.5V286.3z M67.4,286.1h1.2v-2.2h-2.9L67.4,286.1z M68.9,283.2H65l0,0
		l-1.8-2.3l-0.6-1.5l-2.7,2.7l-0.4-0.4l2.8-2.8l-0.4-1l-3.9,1.5l-0.2-0.5l0.1,0l3.8-1.5l-0.4-0.9h-4V276h3.8l-9.5-23.2l6.2,2.8h11
		V283.2z M65.1,283h3.6v-27.3l-10.9,0l-5.8-2.6l9.5,23.1h-3.9v0.1h3.9l0.5,1.2l-3.9,1.5l0.1,0.1l3.9-1.5l0.5,1.3l-2.8,2.8l0.1,0.1
		l2.7-2.7l0.7,1.7L65.1,283z M63.4,270.4l-0.2-0.2c-0.1-0.1-0.2-0.2-0.3-0.3c-0.8-0.9-2.6-2.9-2.4-4.5c0-0.5,0.3-1,0.7-1.3l0.1-0.1
		l2,3.4V270.4z M61.3,264.3c-0.3,0.3-0.5,0.7-0.6,1.1c-0.1,1.5,1.6,3.5,2.4,4.4c0,0,0.1,0.1,0.1,0.1v-2.5L61.3,264.3z M55.5,258.7
		l-1.4-3.4l3.2,1.4L55.5,258.7z M54.5,255.6l1.1,2.7l1.4-1.6L54.5,255.6z"/>
</g>
</svg>
