<?xml version="1.0" encoding="utf-8"?>
<!-- Generator: Adobe Illustrator 29.1.0, SVG Export Plug-In . SVG Version: 9.03 Build 55587)  -->
<svg version="1.1" baseProfile="tiny"
	 id="svg159" xmlns:sodipodi="http://sodipodi.sourceforge.net/DTD/sodipodi-0.dtd" xmlns:svg="http://www.w3.org/2000/svg" xmlns:inkscape="http://www.inkscape.org/namespaces/inkscape" xmlns:sketch="http://www.bohemiancoding.com/sketch/ns" xmlns:dc="http://purl.org/dc/elements/1.1/" xmlns:cc="http://creativecommons.org/ns#" xmlns:rdf="http://www.w3.org/1999/02/22-rdf-syntax-ns#"
	 xmlns="http://www.w3.org/2000/svg" xmlns:xlink="http://www.w3.org/1999/xlink" x="0px" y="0px" viewBox="0 0 200 400"
	 overflow="visible" xml:space="preserve">
<sodipodi:namedview  bordercolor="#666666" borderopacity="1" gridtolerance="10" guidetolerance="10" id="namedview161" inkscape:current-layer="Page-1" inkscape:cx="-557.39902" inkscape:cy="330.90388" inkscape:deskcolor="#d1d1d1" inkscape:document-rotation="0" inkscape:pagecheckerboard="0" inkscape:pageopacity="0" inkscape:pageshadow="2" inkscape:showpageshadow="2" inkscape:window-height="1369" inkscape:window-maximized="1" inkscape:window-width="3440" inkscape:window-x="-8" inkscape:window-y="-8" inkscape:zoom="0.90509668" objecttolerance="10" pagecolor="#ffffff" showgrid="false">
	</sodipodi:namedview>
<g>
	<path fill-rule="evenodd" fill="#6D6C6C" d="M99.5,363.9l2,3.3v2.8C100.8,369.1,97.3,365.6,99.5,363.9z M92.5,355.2l2.8,1.3
		l-1.6,1.8L92.5,355.2z M106.9,383.6v2.4h-1.4l-1.8-2.4H106.9z M90,352.7l6,2.7h10.9v27.5h-3.7l-1.8-2.3l-0.7-1.6l-2.7,2.7l-0.2-0.2
		l2.8-2.8l-0.5-1.1l-3.9,1.5l-0.1-0.3l3.9-1.5l-0.4-1h-4v-0.3h3.8L90,352.7z"/>
	<path fill="#A5A4A4" d="M107,386.1h-1.5l0,0l-2-2.6h3.5V386.1z M105.6,385.9h1.2v-2.2h-2.9L105.6,385.9z M107,383h-3.9l0,0
		l-1.8-2.3l-0.6-1.5l-2.7,2.7l-0.4-0.4l2.8-2.8l-0.4-1l-3.9,1.5l-0.2-0.5l0.1,0l3.8-1.5l-0.4-0.9h-4v-0.5h3.8l-9.5-23.2l6.2,2.8h11
		V383z M103.3,382.8h3.6v-27.3l-10.9,0l-5.8-2.6l9.5,23.1h-3.9v0.1h3.9l0.5,1.2l-3.9,1.5l0.1,0.1l3.9-1.5l0.5,1.3l-2.8,2.8l0.1,0.1
		l2.7-2.7l0.7,1.7L103.3,382.8z M101.6,370.2l-0.2-0.2c-0.1-0.1-0.2-0.2-0.3-0.3c-0.8-0.9-2.6-2.9-2.4-4.5c0-0.5,0.3-1,0.7-1.3
		l0.1-0.1l2,3.4V370.2z M99.5,364c-0.3,0.3-0.5,0.7-0.6,1.1c-0.1,1.5,1.6,3.5,2.4,4.4c0,0,0.1,0.1,0.1,0.1v-2.5L99.5,364z
		 M93.7,358.4l-1.4-3.4l3.2,1.4L93.7,358.4z M92.7,355.4l1.1,2.7l1.4-1.6L92.7,355.4z"/>
</g>
<g>
	<path fill="#A5A4A4" d="M1.4,152.2c0-0.8,0.3-1.3,0.9-1.9c0.6-0.6,0.8-1,0.8-1.5c0-0.5-0.2-0.7-0.6-0.7c-0.4,0-0.6,0.3-0.6,0.7v0.5
		H1.4v-0.4c0-0.7,0.3-1.2,1.1-1.2c0.8,0,1.1,0.5,1.1,1.2c0,0.6-0.3,1.1-0.9,1.8c-0.5,0.5-0.8,0.9-0.8,1.4v0.1h1.7v0.5H1.4V152.2z"/>
	<path fill="#A5A4A4" d="M3.9,151.5v-0.3h0.5v0.4c0,0.4,0.2,0.7,0.6,0.7c0.4,0,0.6-0.2,0.6-0.7v-1.1c0-0.5-0.2-0.7-0.6-0.7
		c-0.3,0-0.5,0.2-0.6,0.6v0H3.9l0.1-2.7h2v0.5H4.6l-0.1,1.5c0.2-0.3,0.4-0.4,0.8-0.4c0.6,0,0.9,0.4,0.9,1.1v1.1
		c0,0.8-0.4,1.2-1.1,1.2C4.2,152.7,3.9,152.2,3.9,151.5z"/>
	<path fill="#A5A4A4" d="M6.5,151.5v-2.7c0-0.8,0.4-1.2,1.2-1.2c0.7,0,1.2,0.4,1.2,1.2v2.7c0,0.8-0.4,1.2-1.2,1.2
		C6.9,152.7,6.5,152.3,6.5,151.5z M8.3,151.5v-2.8c0-0.5-0.2-0.7-0.6-0.7c-0.4,0-0.6,0.2-0.6,0.7v2.8c0,0.5,0.2,0.7,0.6,0.7
		C8,152.2,8.3,152,8.3,151.5z"/>
</g>
<g>
	<path fill="#A5A4A4" d="M1.3,101.4V101h0.5v0.4c0,0.4,0.2,0.7,0.6,0.7c0.4,0,0.6-0.2,0.6-0.7v-0.4c0-0.5-0.2-0.7-0.6-0.7H2.1v-0.5
		h0.3C2.7,99.7,3,99.5,3,99v-0.3C3,98.2,2.8,98,2.4,98c-0.4,0-0.6,0.2-0.6,0.7v0.3H1.3v-0.3c0-0.8,0.4-1.2,1.1-1.2
		c0.7,0,1.1,0.4,1.1,1.2v0.2c0,0.5-0.2,0.9-0.6,1v0c0.4,0.1,0.6,0.5,0.6,1v0.5c0,0.8-0.4,1.2-1.1,1.2C1.6,102.6,1.3,102.2,1.3,101.4
		z"/>
	<path fill="#A5A4A4" d="M3.9,101.4v-2.7c0-0.8,0.4-1.2,1.2-1.2c0.7,0,1.2,0.4,1.2,1.2v2.7c0,0.8-0.4,1.2-1.2,1.2
		C4.3,102.6,3.9,102.2,3.9,101.4z M5.6,101.4v-2.8C5.6,98.2,5.4,98,5,98c-0.4,0-0.6,0.2-0.6,0.7v2.8c0,0.5,0.2,0.7,0.6,0.7
		C5.4,102.1,5.6,101.9,5.6,101.4z"/>
	<path fill="#A5A4A4" d="M6.6,101.4v-2.7c0-0.8,0.4-1.2,1.2-1.2c0.7,0,1.2,0.4,1.2,1.2v2.7c0,0.8-0.4,1.2-1.2,1.2
		C7,102.6,6.6,102.2,6.6,101.4z M8.3,101.4v-2.8c0-0.5-0.2-0.7-0.6-0.7c-0.4,0-0.6,0.2-0.6,0.7v2.8c0,0.5,0.2,0.7,0.6,0.7
		C8.1,102.1,8.3,101.9,8.3,101.4z"/>
</g>
<g>
	<path fill="#A5A4A4" d="M1.3,51.5v-0.4h0.5v0.4c0,0.4,0.2,0.7,0.6,0.7c0.4,0,0.6-0.2,0.6-0.7V51c0-0.5-0.2-0.7-0.6-0.7H2.1v-0.5
		h0.3c0.4,0,0.6-0.2,0.6-0.7v-0.3c0-0.5-0.2-0.7-0.6-0.7c-0.4,0-0.6,0.2-0.6,0.7V49H1.4v-0.3c0-0.8,0.4-1.2,1.1-1.2
		c0.7,0,1.1,0.4,1.1,1.2V49c0,0.5-0.2,0.9-0.6,1v0c0.4,0.1,0.6,0.5,0.6,1v0.5c0,0.8-0.4,1.2-1.1,1.2C1.7,52.7,1.3,52.2,1.3,51.5z"/>
	<path fill="#A5A4A4" d="M3.9,51.5v-0.3h0.5v0.4c0,0.4,0.2,0.7,0.6,0.7c0.4,0,0.6-0.2,0.6-0.7v-1.1c0-0.5-0.2-0.7-0.6-0.7
		c-0.3,0-0.5,0.2-0.6,0.6v0H3.9l0.1-2.7h2v0.5H4.6l-0.1,1.5c0.2-0.3,0.4-0.4,0.8-0.4c0.6,0,0.9,0.4,0.9,1.1v1.1
		c0,0.8-0.4,1.2-1.1,1.2C4.3,52.7,3.9,52.2,3.9,51.5z"/>
	<path fill="#A5A4A4" d="M6.5,51.5v-2.7c0-0.8,0.4-1.2,1.2-1.2c0.7,0,1.2,0.4,1.2,1.2v2.7c0,0.8-0.4,1.2-1.2,1.2
		C6.9,52.7,6.5,52.3,6.5,51.5z M8.3,51.5v-2.8c0-0.5-0.2-0.7-0.6-0.7c-0.4,0-0.6,0.2-0.6,0.7v2.8c0,0.5,0.2,0.7,0.6,0.7
		C8.1,52.2,8.3,52,8.3,51.5z"/>
</g>
<g>
	<path fill="#A5A4A4" d="M1.4,202.1c0-0.8,0.3-1.3,0.9-1.9c0.6-0.6,0.8-1,0.8-1.5c0-0.5-0.2-0.7-0.6-0.7c-0.4,0-0.6,0.3-0.6,0.7v0.5
		H1.4v-0.4c0-0.7,0.3-1.2,1.1-1.2c0.8,0,1.1,0.5,1.1,1.2c0,0.6-0.3,1.1-0.9,1.8c-0.5,0.5-0.8,0.9-0.8,1.4v0.1h1.7v0.5H1.4V202.1z"/>
	<path fill="#A5A4A4" d="M3.8,201.3v-2.7c0-0.8,0.4-1.2,1.2-1.2c0.7,0,1.2,0.4,1.2,1.2v2.7c0,0.8-0.4,1.2-1.2,1.2
		C4.2,202.6,3.8,202.1,3.8,201.3z M5.5,201.3v-2.8c0-0.5-0.2-0.7-0.6-0.7c-0.4,0-0.6,0.2-0.6,0.7v2.8c0,0.5,0.2,0.7,0.6,0.7
		C5.3,202,5.5,201.8,5.5,201.3z"/>
	<path fill="#A5A4A4" d="M6.4,201.3v-2.7c0-0.8,0.4-1.2,1.2-1.2c0.7,0,1.2,0.4,1.2,1.2v2.7c0,0.8-0.4,1.2-1.2,1.2
		C6.8,202.6,6.4,202.1,6.4,201.3z M8.1,201.3v-2.8c0-0.5-0.2-0.7-0.6-0.7c-0.4,0-0.6,0.2-0.6,0.7v2.8c0,0.5,0.2,0.7,0.6,0.7
		C7.9,202,8.1,201.8,8.1,201.3z"/>
</g>
<g>
	<path fill="#A5A4A4" d="M2.6,248.2c-0.2,0.1-0.5,0.2-0.9,0.2v-0.4c0.6,0,0.9-0.2,1-0.7h0.4v5H2.6V248.2z"/>
	<path fill="#A5A4A4" d="M3.6,251.1v-0.3h0.5v0.4c0,0.4,0.2,0.7,0.6,0.7c0.4,0,0.6-0.2,0.6-0.7v-1.1c0-0.5-0.2-0.7-0.6-0.7
		c-0.3,0-0.5,0.2-0.6,0.6v0H3.6l0.1-2.7h2v0.5H4.3l-0.1,1.5c0.2-0.3,0.4-0.4,0.8-0.4c0.6,0,0.9,0.4,0.9,1.1v1.1
		c0,0.8-0.4,1.2-1.1,1.2C3.9,252.4,3.6,251.9,3.6,251.1z"/>
	<path fill="#A5A4A4" d="M6.1,251.1v-2.7c0-0.8,0.4-1.2,1.2-1.2c0.7,0,1.2,0.4,1.2,1.2v2.7c0,0.8-0.4,1.2-1.2,1.2
		C6.5,252.4,6.1,251.9,6.1,251.1z M7.8,251.2v-2.8c0-0.5-0.2-0.7-0.6-0.7c-0.4,0-0.6,0.2-0.6,0.7v2.8c0,0.5,0.2,0.7,0.6,0.7
		C7.6,251.9,7.8,251.7,7.8,251.2z"/>
</g>
<g>
	<path fill="#A5A4A4" d="M2.5,298.5c-0.2,0.1-0.5,0.2-0.9,0.2v-0.4c0.6,0,0.9-0.2,1-0.7H3v5H2.5V298.5z"/>
	<path fill="#A5A4A4" d="M3.4,301.4v-2.7c0-0.8,0.4-1.2,1.2-1.2c0.7,0,1.2,0.4,1.2,1.2v2.7c0,0.8-0.4,1.2-1.2,1.2
		C3.8,302.6,3.4,302.2,3.4,301.4z M5.1,301.4v-2.8c0-0.5-0.2-0.7-0.6-0.7c-0.4,0-0.6,0.2-0.6,0.7v2.8c0,0.5,0.2,0.7,0.6,0.7
		C4.9,302.1,5.1,301.9,5.1,301.4z"/>
	<path fill="#A5A4A4" d="M6,301.4v-2.7c0-0.8,0.4-1.2,1.2-1.2c0.7,0,1.2,0.4,1.2,1.2v2.7c0,0.8-0.4,1.2-1.2,1.2
		C6.4,302.6,6,302.2,6,301.4z M7.7,301.4v-2.8c0-0.5-0.2-0.7-0.6-0.7c-0.4,0-0.6,0.2-0.6,0.7v2.8c0,0.5,0.2,0.7,0.6,0.7
		C7.5,302.1,7.7,301.9,7.7,301.4z"/>
</g>
<g>
	<path fill="#A5A4A4" d="M3,351.4V351h0.5v0.4c0,0.4,0.2,0.7,0.6,0.7c0.4,0,0.6-0.2,0.6-0.7v-1.1c0-0.5-0.2-0.7-0.6-0.7
		c-0.3,0-0.5,0.2-0.6,0.6v0H3l0.1-2.7h2v0.5H3.6l-0.1,1.5c0.2-0.3,0.4-0.4,0.8-0.4c0.6,0,0.9,0.4,0.9,1.1v1.1c0,0.8-0.4,1.2-1.1,1.2
		C3.3,352.6,3,352.1,3,351.4z"/>
	<path fill="#A5A4A4" d="M5.7,351.4v-2.7c0-0.8,0.4-1.2,1.2-1.2c0.7,0,1.2,0.4,1.2,1.2v2.7c0,0.8-0.4,1.2-1.2,1.2
		C6.1,352.6,5.7,352.1,5.7,351.4z M7.4,351.4v-2.8c0-0.5-0.2-0.7-0.6-0.7c-0.4,0-0.6,0.2-0.6,0.7v2.8c0,0.5,0.2,0.7,0.6,0.7
		C7.2,352.1,7.4,351.9,7.4,351.4z"/>
</g>
<g>
	<path fill="#A5A4A4" d="M47.5,396.2v-0.3H48v0.4c0,0.4,0.2,0.7,0.6,0.7c0.4,0,0.6-0.2,0.6-0.7v-1.1c0-0.5-0.2-0.7-0.6-0.7
		c-0.3,0-0.5,0.2-0.6,0.6v0h-0.5l0.1-2.7h2v0.5h-1.5l-0.1,1.5c0.2-0.3,0.4-0.4,0.8-0.4c0.6,0,0.9,0.4,0.9,1.1v1.1
		c0,0.8-0.4,1.2-1.1,1.2C47.8,397.4,47.5,396.9,47.5,396.2z"/>
	<path fill="#A5A4A4" d="M50.2,396.2v-2.7c0-0.8,0.4-1.2,1.2-1.2c0.7,0,1.2,0.4,1.2,1.2v2.7c0,0.8-0.4,1.2-1.2,1.2
		C50.6,397.4,50.2,397,50.2,396.2z M51.9,396.2v-2.8c0-0.5-0.2-0.7-0.6-0.7c-0.4,0-0.6,0.2-0.6,0.7v2.8c0,0.5,0.2,0.7,0.6,0.7
		C51.7,396.9,51.9,396.7,51.9,396.2z"/>
</g>
<g>
	<path fill="#A5A4A4" d="M97.3,393.3c-0.2,0.1-0.5,0.2-0.9,0.2V393c0.6,0,0.9-0.2,1-0.7h0.4v5h-0.6V393.3z"/>
	<path fill="#A5A4A4" d="M98.4,396.2v-2.7c0-0.8,0.4-1.2,1.2-1.2c0.7,0,1.2,0.4,1.2,1.2v2.7c0,0.8-0.4,1.2-1.2,1.2
		C98.8,397.4,98.4,397,98.4,396.2z M100.2,396.2v-2.8c0-0.5-0.2-0.7-0.6-0.7c-0.4,0-0.6,0.2-0.6,0.7v2.8c0,0.5,0.2,0.7,0.6,0.7
		C99.9,396.9,100.2,396.7,100.2,396.2z"/>
	<path fill="#A5A4A4" d="M101.2,396.2v-2.7c0-0.8,0.4-1.2,1.2-1.2c0.7,0,1.2,0.4,1.2,1.2v2.7c0,0.8-0.4,1.2-1.2,1.2
		C101.6,397.4,101.2,397,101.2,396.2z M102.9,396.2v-2.8c0-0.5-0.2-0.7-0.6-0.7c-0.4,0-0.6,0.2-0.6,0.7v2.8c0,0.5,0.2,0.7,0.6,0.7
		C102.7,396.9,102.9,396.7,102.9,396.2z"/>
</g>
<g>
	<path fill="#A5A4A4" d="M147.3,393.3c-0.2,0.1-0.5,0.2-0.9,0.2V393c0.6,0,0.9-0.2,1-0.7h0.4v5h-0.6V393.3z"/>
	<path fill="#A5A4A4" d="M148.4,396.2v-0.3h0.5v0.4c0,0.4,0.2,0.7,0.6,0.7c0.4,0,0.6-0.2,0.6-0.7v-1.1c0-0.5-0.2-0.7-0.6-0.7
		c-0.3,0-0.5,0.2-0.6,0.6v0h-0.5l0.1-2.7h2v0.5h-1.5l-0.1,1.5c0.2-0.3,0.4-0.4,0.8-0.4c0.6,0,0.9,0.4,0.9,1.1v1.1
		c0,0.8-0.4,1.2-1.1,1.2C148.8,397.4,148.4,396.9,148.4,396.2z"/>
	<path fill="#A5A4A4" d="M151.1,396.2v-2.7c0-0.8,0.4-1.2,1.2-1.2c0.7,0,1.2,0.4,1.2,1.2v2.7c0,0.8-0.4,1.2-1.2,1.2
		C151.5,397.4,151.1,397,151.1,396.2z M152.9,396.2v-2.8c0-0.5-0.2-0.7-0.6-0.7c-0.4,0-0.6,0.2-0.6,0.7v2.8c0,0.5,0.2,0.7,0.6,0.7
		C152.7,396.9,152.9,396.7,152.9,396.2z"/>
</g>
<g>
	<rect x="9.9" y="0" fill="#A5A4A4" width="0.2" height="400"/>
</g>
<g>
	<rect x="19.9" y="0" fill="#A5A4A4" width="0.2" height="400"/>
</g>
<g>
	<rect x="29.9" y="0" fill="#A5A4A4" width="0.2" height="400"/>
</g>
<g>
	<rect x="39.9" y="0" fill="#A5A4A4" width="0.2" height="400"/>
</g>
<g>
	<rect x="49.8" y="0" fill="#A5A4A4" width="0.5" height="391.7"/>
</g>
<g>
	<rect x="59.9" y="0" fill="#A5A4A4" width="0.2" height="400"/>
</g>
<g>
	<rect x="69.9" y="0" fill="#A5A4A4" width="0.2" height="400"/>
</g>
<g>
	<rect x="79.9" y="0" fill="#A5A4A4" width="0.2" height="400"/>
</g>
<g>
	<polygon fill="#A5A4A4" points="90.1,0 90.1,351.5 89.9,351.4 89.9,0 	"/>
	<polygon fill="#A5A4A4" points="89.9,355.3 90.1,355.9 90.1,400 89.9,400 	"/>
</g>
<g>
	<rect x="99.8" y="0" fill="#A5A4A4" width="0.5" height="354.3"/>
	<polygon fill="#A5A4A4" points="99.8,381.6 100.3,381.1 100.3,391.7 99.8,391.7 	"/>
</g>
<g>
	<rect x="109.9" y="0" fill="#A5A4A4" width="0.2" height="400"/>
</g>
<g>
	<rect x="119.9" y="0" fill="#A5A4A4" width="0.2" height="400"/>
</g>
<g>
	<rect x="129.9" y="0" fill="#A5A4A4" width="0.2" height="400"/>
</g>
<g>
	<rect x="139.9" y="0" fill="#A5A4A4" width="0.2" height="400"/>
</g>
<g>
	<rect x="149.8" y="0" fill="#A5A4A4" width="0.5" height="391.7"/>
</g>
<g>
	<rect x="159.9" y="0" fill="#A5A4A4" width="0.2" height="400"/>
</g>
<g>
	<rect x="169.9" y="0" fill="#A5A4A4" width="0.2" height="399.6"/>
</g>
<g>
	<rect x="179.9" y="0" fill="#A5A4A4" width="0.2" height="399.7"/>
</g>
<g>
	<rect x="189.9" y="0" fill="#A5A4A4" width="0.2" height="399.7"/>
</g>
<g>
	<rect x="0" y="9.9" fill="#A5A4A4" width="199.7" height="0.2"/>
</g>
<g>
	<rect x="0" y="19.9" fill="#A5A4A4" width="199.7" height="0.2"/>
</g>
<g>
	<rect x="0" y="29.9" fill="#A5A4A4" width="199.7" height="0.2"/>
</g>
<g>
	<rect x="0" y="39.9" fill="#A5A4A4" width="199.7" height="0.2"/>
</g>
<g>
	<rect x="9.4" y="49.8" fill="#A5A4A4" width="190.4" height="0.5"/>
</g>
<g>
	<rect x="0" y="59.9" fill="#A5A4A4" width="199.7" height="0.2"/>
</g>
<g>
	<rect x="0" y="69.9" fill="#A5A4A4" width="199.7" height="0.2"/>
</g>
<g>
	<rect x="0" y="79.9" fill="#A5A4A4" width="199.7" height="0.2"/>
</g>
<g>
	<rect x="0" y="89.9" fill="#A5A4A4" width="199.7" height="0.2"/>
</g>
<g>
	<rect x="9.5" y="99.8" fill="#A5A4A4" width="190.3" height="0.5"/>
</g>
<g>
	<rect x="0" y="109.9" fill="#A5A4A4" width="199.7" height="0.2"/>
</g>
<g>
	<rect x="0" y="119.9" fill="#A5A4A4" width="199.7" height="0.2"/>
</g>
<g>
	<rect x="0" y="129.9" fill="#A5A4A4" width="199.7" height="0.2"/>
</g>
<g>
	<rect x="0" y="139.9" fill="#A5A4A4" width="199.7" height="0.2"/>
</g>
<g>
	<rect x="9.4" y="149.8" fill="#A5A4A4" width="190.4" height="0.5"/>
</g>
<g>
	<rect x="0" y="159.9" fill="#A5A4A4" width="199.7" height="0.2"/>
</g>
<g>
	<rect x="0" y="169.9" fill="#A5A4A4" width="199.7" height="0.2"/>
</g>
<g>
	<rect x="0" y="179.9" fill="#A5A4A4" width="199.7" height="0.2"/>
</g>
<g>
	<rect x="0" y="189.9" fill="#A5A4A4" width="199.7" height="0.2"/>
</g>
<g>
	<rect x="9.2" y="199.8" fill="#A5A4A4" width="190.6" height="0.5"/>
</g>
<g>
	<rect x="0" y="209.9" fill="#A5A4A4" width="199.7" height="0.2"/>
</g>
<g>
	<rect x="0" y="219.9" fill="#A5A4A4" width="199.7" height="0.2"/>
</g>
<g>
	<rect x="0" y="229.9" fill="#A5A4A4" width="199.7" height="0.2"/>
</g>
<g>
	<rect x="0" y="239.9" fill="#A5A4A4" width="199.7" height="0.2"/>
</g>
<g>
	<rect x="8.9" y="249.8" fill="#A5A4A4" width="190.8" height="0.5"/>
</g>
<g>
	<rect x="0" y="259.9" fill="#A5A4A4" width="199.7" height="0.2"/>
</g>
<g>
	<rect x="0" y="269.9" fill="#A5A4A4" width="199.7" height="0.2"/>
</g>
<g>
	<rect x="0" y="279.9" fill="#A5A4A4" width="199.7" height="0.2"/>
</g>
<g>
	<rect x="0" y="289.9" fill="#A5A4A4" width="199.7" height="0.2"/>
</g>
<g>
	<rect x="8.8" y="299.8" fill="#A5A4A4" width="190.9" height="0.5"/>
</g>
<g>
	<rect x="0" y="309.9" fill="#A5A4A4" width="199.7" height="0.2"/>
</g>
<g>
	<rect x="0" y="319.9" fill="#A5A4A4" width="199.7" height="0.2"/>
</g>
<g>
	<rect x="0" y="329.9" fill="#A5A4A4" width="199.7" height="0.2"/>
</g>
<g>
	<rect x="0" y="339.9" fill="#A5A4A4" width="199.7" height="0.2"/>
</g>
<g>
	<rect x="8.5" y="349.8" fill="#A5A4A4" width="191.2" height="0.5"/>
</g>
<g>
	<polygon fill="#A5A4A4" points="91.8,359.9 91.9,360.1 0,360.1 0,359.9 	"/>
	<rect x="108" y="359.9" fill="#A5A4A4" width="91.7" height="0.2"/>
</g>
<g>
	<polygon fill="#A5A4A4" points="95.9,369.9 96,370.1 0,370.1 0,369.9 	"/>
	<rect x="108" y="369.9" fill="#A5A4A4" width="91.7" height="0.2"/>
</g>
<g>
	<polygon fill="#A5A4A4" points="95.5,380.1 0,380.1 0,379.9 95.4,379.9 	"/>
	<rect x="108" y="379.9" fill="#A5A4A4" width="91.7" height="0.2"/>
</g>
<g>
	<rect x="0" y="389.9" fill="#A5A4A4" width="199.7" height="0.2"/>
</g>
<g>
	<rect x="0" y="349.8" fill="#A5A4A4" width="2.4" height="0.5"/>
</g>
<g>
	<rect x="0" y="299.8" fill="#A5A4A4" width="1.6" height="0.5"/>
</g>
<g>
	<rect x="0" y="249.8" fill="#A5A4A4" width="1.6" height="0.5"/>
</g>
<g>
	<rect x="0" y="199.8" fill="#A5A4A4" width="1.1" height="0.5"/>
</g>
<g>
	<rect x="0" y="149.8" fill="#A5A4A4" width="1.1" height="0.5"/>
</g>
<g>
	<rect x="0" y="99.8" fill="#A5A4A4" width="1" height="0.5"/>
</g>
<g>
	<rect x="0" y="49.8" fill="#A5A4A4" width="1.1" height="0.5"/>
</g>
<g>
	<rect x="49.8" y="397.9" fill="#A5A4A4" width="0.5" height="2.1"/>
</g>
<g>
	<rect x="99.8" y="397.9" fill="#A5A4A4" width="0.5" height="2.1"/>
</g>
<g>
	<rect x="149.8" y="397.9" fill="#A5A4A4" width="0.5" height="2.1"/>
</g>
<g>
	<path fill="#A5A4A4" d="M199.5,0.5v399H0.5V0.5H199.5 M200,0H0v400h200V0L200,0z"/>
</g>
</svg>
