<?xml version="1.0" encoding="UTF-8" standalone="no"?>
<!-- Created with Inkscape (http://www.inkscape.org/) -->

<svg
   width="250mm"
   height="220mm"
   viewBox="0 0 250 220"
   version="1.1"
   id="svg5"
   xml:space="preserve"
   inkscape:version="1.4.2 (ebf0e940, 2025-05-08)"
   sodipodi:docname="prusawire_texture.svg"
   xmlns:inkscape="http://www.inkscape.org/namespaces/inkscape"
   xmlns:sodipodi="http://sodipodi.sourceforge.net/DTD/sodipodi-0.dtd"
   xmlns="http://www.w3.org/2000/svg"
   xmlns:svg="http://www.w3.org/2000/svg"><sodipodi:namedview
     id="namedview7"
     pagecolor="#ffffff"
     bordercolor="#666666"
     borderopacity="1.0"
     inkscape:pageshadow="2"
     inkscape:pageopacity="0.0"
     inkscape:pagecheckerboard="0"
     inkscape:deskcolor="#d1d1d1"
     inkscape:document-units="mm"
     showgrid="false"
     inkscape:zoom="3.0833795"
     inkscape:cx="621.07178"
     inkscape:cy="742.36726"
     inkscape:window-width="2480"
     inkscape:window-height="1387"
     inkscape:window-x="92"
     inkscape:window-y="25"
     inkscape:window-maximized="1"
     inkscape:current-layer="layer1"
     inkscape:showpageshadow="2" /><defs
     id="defs2"><rect
       x="707.32202"
       y="853.38885"
       width="95.440025"
       height="13.565079"
       id="rect1" /><marker
       id="DistanceX"
       orient="auto"
       refX="0"
       refY="0"
       style="overflow:visible"><path
         d="M 3,-3 -3,3 M 0,-5 V 5"
         style="stroke:#000000;stroke-width:0.5"
         id="path184" /></marker><pattern
       id="Hatch"
       patternUnits="userSpaceOnUse"
       width="8"
       height="8"
       x="0"
       y="0"><path
         d="M8 4 l-4,4"
         stroke="#000000"
         stroke-width="0.25"
         linecap="square"
         id="path187" /><path
         d="M6 2 l-4,4"
         stroke="#000000"
         stroke-width="0.25"
         linecap="square"
         id="path189" /><path
         d="M4 0 l-4,4"
         stroke="#000000"
         stroke-width="0.25"
         linecap="square"
         id="path191" /></pattern><symbol
       id="*Model_Space" /><symbol
       id="*Paper_Space" /><symbol
       id="*Paper_Space0" /><marker
       id="DistanceX-8"
       orient="auto"
       refX="0"
       refY="0"
       style="overflow:visible"><path
         d="M 3,-3 -3,3 M 0,-5 V 5"
         style="stroke:#000000;stroke-width:0.5"
         id="path781" /></marker><pattern
       id="Hatch-2"
       patternUnits="userSpaceOnUse"
       width="8"
       height="8"
       x="0"
       y="0"><path
         d="M8 4 l-4,4"
         stroke="#000000"
         stroke-width="0.25"
         linecap="square"
         id="path784" /><path
         d="M6 2 l-4,4"
         stroke="#000000"
         stroke-width="0.25"
         linecap="square"
         id="path786" /><path
         d="M4 0 l-4,4"
         stroke="#000000"
         stroke-width="0.25"
         linecap="square"
         id="path788" /></pattern><symbol
       id="*Model_Space-9" /><symbol
       id="*Paper_Space-7" /><symbol
       id="*Paper_Space0-7" /><marker
       id="DistanceX-3"
       orient="auto"
       refX="0"
       refY="0"
       style="overflow:visible"><path
         d="M 3,-3 -3,3 M 0,-5 V 5"
         style="stroke:#000000;stroke-width:0.5"
         id="path2541" /></marker><pattern
       id="Hatch-3"
       patternUnits="userSpaceOnUse"
       width="8"
       height="8"
       x="0"
       y="0"><path
         d="M8 4 l-4,4"
         stroke="#000000"
         stroke-width="0.25"
         linecap="square"
         id="path2544" /><path
         d="M6 2 l-4,4"
         stroke="#000000"
         stroke-width="0.25"
         linecap="square"
         id="path2546" /><path
         d="M4 0 l-4,4"
         stroke="#000000"
         stroke-width="0.25"
         linecap="square"
         id="path2548" /></pattern><symbol
       id="*Model_Space-2" /><symbol
       id="*Paper_Space-1" /><symbol
       id="*Paper_Space0-8" /><pattern
       y="0"
       x="0"
       height="6"
       width="6"
       patternUnits="userSpaceOnUse"
       id="EMFhbasepattern" /><pattern
       y="0"
       x="0"
       height="6"
       width="6"
       patternUnits="userSpaceOnUse"
       id="EMFhbasepattern-6" /><pattern
       y="0"
       x="0"
       height="6"
       width="6"
       patternUnits="userSpaceOnUse"
       id="EMFhbasepattern-4" /><pattern
       y="0"
       x="0"
       height="6"
       width="6"
       patternUnits="userSpaceOnUse"
       id="EMFhbasepattern-6-1" /></defs><g
     inkscape:label="Layer 1"
     inkscape:groupmode="layer"
     id="layer1"
     style="display:inline"><g
       id="g11035"
       style="stroke:#b3b3b3"
       transform="translate(0,-29.999563)"><path
         style="fill:none;stroke:#b3b3b3;stroke-width:0.661458;stroke-dasharray:none"
         d="M 0.13229167,250.13232 H 250.13232"
         id="path2556" /><path
         style="fill:none;stroke:#b3b3b3;stroke-width:0.661458;stroke-dasharray:none"
         d="M 250.13232,250.13232 V 0.13229157"
         id="path2558" /><path
         style="fill:none;stroke:#b3b3b3;stroke-width:0.661458;stroke-dasharray:none"
         d="M 250.13232,30.132292 H 0.13229167"
         id="path2560" /><path
         style="fill:none;stroke:#b3b3b3;stroke-width:0.661458;stroke-dasharray:none"
         d="M 0.13229167,0.13229157 V 250.13232"
         id="path2562" /><path
         style="fill:none;stroke:#b3b3b3;stroke-width:0.661458;stroke-dasharray:none"
         d="M 0.13229167,200.13215 H 250.13232"
         id="path2564" /><path
         style="fill:none;stroke:#b3b3b3;stroke-width:0.661458;stroke-dasharray:none"
         d="M 0.13229167,150.13225 H 250.13232"
         id="path2566" /><path
         style="fill:none;stroke:#b3b3b3;stroke-width:0.661458;stroke-dasharray:none"
         d="M 0.13229167,100.13235 H 250.13232"
         id="path2568" /><path
         style="fill:none;stroke:#b3b3b3;stroke-width:0.661458;stroke-dasharray:none"
         d="M 0.13229167,50.132191 H 250.13232"
         id="path2570" /><path
         style="fill:none;stroke:#b3b3b3;stroke-width:0.661458;stroke-dasharray:none"
         d="M 50.132191,0.13229157 V 250.13232"
         id="path2572" /><path
         style="fill:none;stroke:#b3b3b3;stroke-width:0.661458;stroke-dasharray:none"
         d="M 100.13235,0.13229157 V 250.13232"
         id="path2574" /><path
         style="fill:none;stroke:#b3b3b3;stroke-width:0.661458;stroke-dasharray:none"
         d="M 150.13225,0.13229157 V 250.13232"
         id="path2576" /><path
         style="fill:none;stroke:#b3b3b3;stroke-width:0.661458;stroke-dasharray:none"
         d="m 200.04403,238.08889 v 11.84944"
         id="path2656-3-5-5-4" /><path
         style="fill:none;stroke:#b3b3b3;stroke-width:0.661458;stroke-dasharray:none"
         d="M 200.13242,0.13229157 V 210.0662"
         id="path2578"
         inkscape:label="MajorGrid1"
         sodipodi:nodetypes="cc" /></g><path
       style="fill:none;stroke:#b3b3b3;stroke-width:0.132292;stroke-dasharray:none"
       d="M 0.13229167,210.13151 H 250.13232"
       id="path2580" /><path
       style="fill:none;stroke:#b3b3b3;stroke-width:0.132292;stroke-dasharray:none"
       d="M 0.7934995,200.1126 168.65018,199.98863"
       id="path2582"
       sodipodi:nodetypes="cc" /><path
       style="fill:none;stroke:#b3b3b3;stroke-width:0.132292;stroke-dasharray:none"
       d="M 0.63229167,190.13165 H 168.65018"
       id="path2584"
       sodipodi:nodetypes="cc" /><path
       style="fill:none;stroke:#b3b3b3;stroke-width:0.132292;stroke-dasharray:none"
       d="M 232.03106,190.08865 H 250"
       id="path2584-5"
       sodipodi:nodetypes="cc" /><path
       style="fill:none;stroke:#b3b3b3;stroke-width:0.132292;stroke-dasharray:none"
       d="M 0.13229167,180.13279 H 168.65018"
       id="path2586"
       sodipodi:nodetypes="cc" /><path
       style="fill:none;stroke:#b3b3b3;stroke-width:0.132292;stroke-dasharray:none"
       d="M 0.13229167,160.13267 H 250.13232"
       id="path2588" /><path
       style="fill:none;stroke:#b3b3b3;stroke-width:0.132292;stroke-dasharray:none"
       d="M 0.13229167,150.13274 H 250.13232"
       id="path2590" /><path
       style="fill:none;stroke:#b3b3b3;stroke-width:0.132292;stroke-dasharray:none"
       d="M 0.13229167,140.13255 H 250.13232"
       id="path2592" /><path
       style="fill:none;stroke:#b3b3b3;stroke-width:0.132292;stroke-dasharray:none"
       d="M 0.13229167,130.13262 H 250.13232"
       id="path2594" /><path
       style="fill:none;stroke:#b3b3b3;stroke-width:0.132292;stroke-dasharray:none"
       d="M 0.13229167,110.13277 H 250.13232"
       id="path2596" /><path
       style="fill:none;stroke:#b3b3b3;stroke-width:0.132292;stroke-dasharray:none"
       d="M 0.13229167,100.13258 H 250.13232"
       id="path2598" /><path
       style="fill:none;stroke:#b3b3b3;stroke-width:0.132292;stroke-dasharray:none"
       d="M 0.13229167,90.13265 H 250.13232"
       id="path2600" /><path
       style="fill:none;stroke:#b3b3b3;stroke-width:0.132292;stroke-dasharray:none"
       d="M 0.13229167,80.132717 H 250.13232"
       id="path2602" /><path
       style="fill:none;stroke:#b3b3b3;stroke-width:0.132292;stroke-dasharray:none"
       d="M 0.13229167,60.1326 H 250.13232"
       id="path2604" /><path
       style="fill:none;stroke:#b3b3b3;stroke-width:0.132292;stroke-dasharray:none"
       d="M 0.13229167,50.132673 H 250.13232"
       id="path2606" /><path
       style="fill:none;stroke:#b3b3b3;stroke-width:0.132292;stroke-dasharray:none"
       d="M 0.13229167,40.132746 H 250.13232"
       id="path2608" /><path
       style="fill:none;stroke:#b3b3b3;stroke-width:0.132292;stroke-dasharray:none"
       d="M 0.13229167,30.132555 H 250.13232"
       id="path2610" /><path
       style="fill:none;stroke:#b3b3b3;stroke-width:0.132292;stroke-dasharray:none"
       d="M 0.13229167,10.132701 H 250.13232"
       id="path2612" /><path
       style="fill:none;stroke:#b3b3b3;stroke-width:0.132292;stroke-dasharray:none"
       d="M 0.13229167,0.13277484 H 250.13232"
       id="path2614"
       sodipodi:nodetypes="cc" /><path
       style="fill:none;stroke:#b3b3b3;stroke-width:0.132292;stroke-dasharray:none"
       d="M 10.132298,-29.867271 V 220.13276"
       id="path2620" /><path
       style="fill:none;stroke:#b3b3b3;stroke-width:0.132292;stroke-dasharray:none"
       d="M 20.833603,-29.867271 V 220.13276"
       id="path2622"
       sodipodi:nodetypes="cc" /><path
       style="fill:none;stroke:#b3b3b3;stroke-width:0.132292;stroke-dasharray:none"
       d="M 30.833636,-29.867271 V 220.13276"
       id="path2624"
       sodipodi:nodetypes="cc" /><path
       style="fill:none;stroke:#b3b3b3;stroke-width:0.132292;stroke-dasharray:none"
       d="M 40.132264,-29.867271 V 220.13276"
       id="path2626" /><path
       style="fill:none;stroke:#b3b3b3;stroke-width:0.132292;stroke-dasharray:none"
       d="M 60.132383,-29.867271 V 220.13276"
       id="path2628" /><path
       style="fill:none;stroke:#b3b3b3;stroke-width:0.132292;stroke-dasharray:none"
       d="M 70.13231,-29.867271 V 220.13276"
       id="path2630" /><path
       style="fill:none;stroke:#b3b3b3;stroke-width:0.132292;stroke-dasharray:none"
       d="M 80.132236,-29.867271 V 220.13276"
       id="path2632" /><path
       style="fill:none;stroke:#b3b3b3;stroke-width:0.132292;stroke-dasharray:none"
       d="M 90.132163,-29.867271 V 220.13276"
       id="path2634" /><path
       style="fill:none;stroke:#b3b3b3;stroke-width:0.132292;stroke-dasharray:none"
       d="M 110.13228,-29.867271 V 220.13276"
       id="path2636" /><path
       style="fill:none;stroke:#b3b3b3;stroke-width:0.132292;stroke-dasharray:none"
       d="M 120.13221,-29.867271 V 220.13276"
       id="path2638" /><path
       style="fill:none;stroke:#b3b3b3;stroke-width:0.132292;stroke-dasharray:none"
       d="M 130.1324,-29.867271 V 220.13276"
       id="path2640" /><path
       style="fill:none;stroke:#b3b3b3;stroke-width:0.132292;stroke-dasharray:none"
       d="M 140.13233,-29.867271 V 220.13276"
       id="path2642" /><path
       style="fill:none;stroke:#b3b3b3;stroke-width:0.132292;stroke-dasharray:none"
       d="M 160.13218,-29.867271 V 220.13276"
       id="path2644" /><path
       style="fill:none;stroke:#b3b3b3;stroke-width:0.132292;stroke-dasharray:none"
       d="M 170.13237,-29.867271 V 177.52886"
       id="path2646"
       sodipodi:nodetypes="cc" /><path
       style="fill:none;stroke:#b3b3b3;stroke-width:0.132292;stroke-dasharray:none"
       d="M 180.1323,-29.867271 V 177.52886"
       id="path2648"
       sodipodi:nodetypes="cc" /><path
       style="fill:none;stroke:#b3b3b3;stroke-width:0.132292;stroke-dasharray:none"
       d="M 190.13223,-29.867271 V 177.52886"
       id="path2650"
       sodipodi:nodetypes="cc" /><path
       style="fill:none;stroke:#b3b3b3;stroke-width:0.132292;stroke-dasharray:none"
       d="M 210.13235,-29.867271 V 177.52886"
       id="path2652"
       sodipodi:nodetypes="cc" /><path
       style="fill:none;stroke:#b3b3b3;stroke-width:0.132292;stroke-dasharray:none"
       d="m 220.13227,-29.367271 0.12397,206.896131"
       id="path2654"
       sodipodi:nodetypes="cc" /><path
       style="fill:none;stroke:#b3b3b3;stroke-width:0.132292;stroke-dasharray:none"
       d="M 230.1322,-29.367271 V 177.89788"
       id="path2656"
       sodipodi:nodetypes="cc" /><path
       style="fill:none;stroke:#b3b3b3;stroke-width:0.132292;stroke-dasharray:none"
       d="M 240.13239,-29.867271 V 220.13276"
       id="path2658" /><path
       style="fill:none;stroke:#b3b3b3;stroke-width:0.132292;stroke-dasharray:none"
       d="M 232.03106,200.50526 H 250"
       id="path2584-5-2"
       sodipodi:nodetypes="cc" /><path
       style="fill:none;stroke:#b3b3b3;stroke-width:0.132292;stroke-dasharray:none"
       d="m 230.1103,202.63843 v 17.36201"
       id="path2656-3"
       sodipodi:nodetypes="cc" /><path
       style="display:inline;fill:none;stroke:#b3b3b3;stroke-width:0.132292;stroke-dasharray:none"
       d="m 230.1103,201.52517 v 17.36201"
       id="path2656-3-3"
       sodipodi:nodetypes="cc" /><path
       style="fill:none;stroke:#b3b3b3;stroke-width:0.132292;stroke-dasharray:none"
       d="m 220.08821,208.08933 v 11.84944"
       id="path2656-3-5" /><path
       style="fill:none;stroke:#b3b3b3;stroke-width:0.132292;stroke-dasharray:none"
       d="m 210.06612,208.08933 v 11.84944"
       id="path2656-3-5-5" /><path
       style="fill:none;stroke:#b3b3b3;stroke-width:0.132292;stroke-dasharray:none"
       d="m 190.02194,208.08933 v 11.84944"
       id="path2656-3-5-5-3" /><path
       style="fill:none;stroke:#b3b3b3;stroke-width:0.132292;stroke-dasharray:none"
       d="m 179.99985,208.08933 v 11.84944"
       id="path2656-3-5-5-8" /><path
       style="fill:none;stroke:#b3b3b3;stroke-width:0.132292;stroke-dasharray:none"
       d="m 169.97776,201.77764 v 18.16113"
       id="path2656-3-5-5-34"
       sodipodi:nodetypes="cc" /><path
       style="fill:none;stroke:#b3b3b3;stroke-width:0.132292;stroke-dasharray:none"
       d="M 232.03106,180.24291 H 250"
       id="path2584-5-4"
       sodipodi:nodetypes="cc" /><path
       style="display:inline;fill:#d40000;fill-opacity:1;stroke:none;stroke-width:4.37741;stroke-linecap:round;stroke-linejoin:round;stroke-miterlimit:4;stroke-dasharray:none;stroke-dashoffset:0;stroke-opacity:1"
       d="m 228.28365,181.4431 -4.30475,0.005 -11.75324,17.31629 h 4.28892 z m -12.20622,0.005 -5.88086,8.64287 h 4.28948 l 5.85542,-8.63155 z m 9.94696,8.61914 -5.88085,8.64342 h 4.28892 l 5.85541,-8.63156 z"
       id="rect812"
       inkscape:connector-curvature="0"
       inkscape:label="VORON_LOGO" /><path
       id="rect5300"
       style="opacity:0.8;fill:#b3b3b3;stroke:#b3b3b3;stroke-width:0.103349;stroke-linecap:round;stroke-dasharray:none"
       d="m 195.68153,187.53287 2.62225,2.62226 -2.62253,2.62254 1.84008,1.84008 2.62254,-2.62254 2.62254,2.62255 1.84009,-1.84009 -2.62254,-2.62255 2.62254,-2.62253 -1.84009,-1.84009 -2.62254,2.62254 -2.62225,-2.62226 z"
       inkscape:label="CROSS" /><g
       id="g4"
       transform="matrix(0.06024998,0,0,0.06024998,151.09557,164.44659)"
       style="display:inline;fill:#e6a400;fill-opacity:1">
	<path
   d="m 395.05,512.35 c 0,-63.35 0,-126.36 0,-189.81 1.51,0 2.83,0 4.15,0 20.73,0 41.45,-0.06 62.18,0.05 2.61,0.01 4.06,-0.76 5.19,-3.07 1.51,-3.09 3.39,-5.99 4.85,-9.45 -4.68,6.1 -10.57,8.49 -17.27,6.63 11.99,-11.88 24.31,-24.09 36.18,-35.86 11.39,11.36 23.65,23.57 35.8,35.69 -7.14,2.03 -13.08,-0.17 -17.41,-7.01 -0.23,0.29 -0.46,0.59 -0.69,0.88 2.21,3.78 4.28,7.66 6.73,11.28 0.52,0.77 2.43,0.82 3.7,0.83 20.6,0.05 41.2,0.04 61.81,0.04 1.35,0 2.7,0 4.35,0 0,63.34 0,126.45 0,189.81 -63.08,-0.01 -126.17,-0.01 -189.57,-0.01 z m 170.98,-85.17 c -0.6,-0.88 -1.13,-1.55 -1.55,-2.28 -17.54,-30.38 -35.1,-60.75 -52.57,-91.18 -1.19,-2.07 -2.35,-3 -4.87,-2.97 -11.42,0.16 -22.84,0.16 -34.25,0 -2.51,-0.04 -3.74,0.88 -4.91,2.92 -12.69,22.16 -25.44,44.29 -38.2,66.41 -5.19,9 -10.44,17.97 -15.79,27.18 -2.44,-1.42 -4.65,-2.7 -7.05,-4.1 17.78,-30.82 35.39,-61.35 53.12,-92.09 -19.28,0 -37.94,0 -56.67,0 0,57.82 0,115.36 0,173.09 57.81,0 115.44,0 173.09,0 0,-57.87 0,-115.51 0,-173.05 -18.89,0 -37.5,0 -56.51,0 17.85,30.94 35.46,61.46 53.15,92.12 -2.6,1.47 -4.74,2.68 -6.99,3.95 z M 505.49,322.61 c -5.38,-9.29 -10.4,-17.97 -15.61,-26.96 -5.28,9.18 -10.28,17.89 -15.49,26.96 10.6,0 20.51,0 31.1,0 z"
   id="path1"
   style="fill:#e6a400;fill-opacity:1" />
	<path
   d="m 546.87,518.51 c -19.15,19.15 -38.07,38.06 -56.78,56.77 -18.75,-18.78 -37.7,-37.77 -56.67,-56.77 37.5,0 75.38,0 113.45,0 z"
   id="path2"
   style="fill:#e6a400;fill-opacity:1" />
	<path
   d="m 342.66,427.88 c 15.45,-15.52 30.98,-31.12 46.43,-46.64 0,30.86 0,62.03 0,93.1 -15.67,-15.68 -31.24,-31.26 -46.43,-46.46 z"
   id="path3"
   style="fill:#e6a400;fill-opacity:1" />
	<path
   d="m 590.62,474.05 c 0,-30.89 0,-61.99 0,-92.58 15.33,15.45 30.87,31.1 46.17,46.51 -14.82,14.8 -30.46,30.4 -46.17,46.07 z"
   id="path4"
   style="fill:#e6a400;fill-opacity:1" />
</g><path
       style="display:inline;fill:none;stroke:#b3b3b3;stroke-width:0.661458;stroke-dasharray:none"
       d="m 200.04403,201.68809 v 11.84944"
       id="path2656-3-5-5-4-5" /><path
       style="display:inline;fill:none;stroke:#b3b3b3;stroke-width:0.132292;stroke-dasharray:none"
       d="m 220.08821,201.68809 v 11.84944"
       id="path2656-3-5-9" /><path
       style="display:inline;fill:none;stroke:#b3b3b3;stroke-width:0.132292;stroke-dasharray:none"
       d="m 210.06612,201.68809 v 11.84944"
       id="path2656-3-5-5-6" /><path
       style="display:inline;fill:none;stroke:#b3b3b3;stroke-width:0.132292;stroke-dasharray:none"
       d="m 190.02194,201.68809 v 11.84944"
       id="path2656-3-5-5-3-0" /><path
       style="display:inline;fill:none;stroke:#b3b3b3;stroke-width:0.132292;stroke-dasharray:none"
       d="m 179.99985,201.68809 v 11.84944"
       id="path2656-3-5-5-8-4" /></g></svg>
